<?xml version="1.0" standalone="no"?>
 <!DOCTYPE svg PUBLIC "-//W3C//DTD SVG 1.1//EN" 
 "http://www.w3.org/Graphics/SVG/1.1/DTD/svg11.dtd"> 
<svg xmlns="http://www.w3.org/2000/svg" version="1.1" 
    width="11.3284cm" height="11.8212cm" viewBox="0 0 44600 46540 ">
<title>SVG Picture created as OrangePiZero.svg date 2019/08/08 11:12:14 </title>
  <desc>Picture generated by Eeschema-SVG </desc>
<g style="fill:#000000; fill-opacity:1;stroke:#000000; stroke-opacity:1;
stroke-linecap:round; stroke-linejoin:round; "
 transform="translate(0 0) scale(1 1)">
</g>
<g style="fill:#000000; fill-opacity:0.0; 
stroke:#000000; stroke-width:-10; stroke-opacity:1; 
stroke-linecap:round; stroke-linejoin:round;">
</g>
<g style="fill:#000000; fill-opacity:0.0; 
stroke:#000000; stroke-width:60; stroke-opacity:1; 
stroke-linecap:round; stroke-linejoin:round;">
<rect x="14300" y="10270" width="16000" height="26000" rx="0" />
<path d="M19300 10270
L19300 8270
" />
<path d="M19020 12240
L19020 11930
L19210 12100
L19210 12030
L19240 11980
L19260 11960
L19310 11930
L19430 11930
L19470 11960
L19500 11980
L19520 12030
L19520 12170
L19500 12220
L19470 12240
" />
<path d="M19470 11720
L19500 11700
L19520 11720
L19500 11740
L19470 11720
L19520 11720
" />
<path d="M19020 11530
L19020 11220
L19210 11390
L19210 11310
L19240 11270
L19260 11240
L19310 11220
L19430 11220
L19470 11240
L19500 11270
L19520 11310
L19520 11460
L19500 11500
L19470 11530
" />
<path d="M19020 11080
L19520 10910
L19020 10740
" />
<path d="M19030 9860
L19030 9620
" />
<path d="M19170 9910
L18670 9740
L19170 9570
" />
<path d="M18670 9310
L18670 9270
L18700 9220
L18720 9190
L18770 9170
L18860 9150
L18980 9150
L19080 9170
L19120 9190
L19150 9220
L19170 9270
L19170 9310
L19150 9360
L19120 9380
L19080 9410
L18980 9430
L18860 9430
L18770 9410
L18720 9380
L18700 9360
L18670 9310
" />
<path d="M19170 8670
L19170 8960
" />
<path d="M19170 8810
L18670 8810
L18740 8860
L18790 8910
L18810 8960
" />
<path d="M24300 10270
L24300 8270
" />
<path d="M24020 11240
L24020 11480
L24260 11500
L24240 11480
L24210 11430
L24210 11310
L24240 11270
L24260 11240
L24310 11220
L24430 11220
L24470 11240
L24500 11270
L24520 11310
L24520 11430
L24500 11480
L24470 11500
" />
<path d="M24020 11080
L24520 10910
L24020 10740
" />
<path d="M24030 9860
L24030 9620
" />
<path d="M24170 9910
L23670 9740
L24170 9570
" />
<path d="M23670 9310
L23670 9270
L23700 9220
L23720 9190
L23770 9170
L23860 9150
L23980 9150
L24080 9170
L24120 9190
L24150 9220
L24170 9270
L24170 9310
L24150 9360
L24120 9380
L24080 9410
L23980 9430
L23860 9430
L23770 9410
L23720 9380
L23700 9360
L23670 9310
" />
<path d="M23720 8960
L23700 8930
L23670 8880
L23670 8770
L23700 8720
L23720 8690
L23770 8670
L23810 8670
L23890 8690
L24170 8980
L24170 8670
" />
<path d="M14300 23270
L12300 23270
" />
<path d="M14840 23490
L14840 22990
L15030 22990
L15080 23020
L15110 23040
L15130 23090
L15130 23160
L15110 23210
L15080 23230
L15030 23250
L14840 23250
" />
<path d="M15320 23350
L15560 23350
" />
<path d="M15270 23490
L15440 22990
L15610 23490
" />
<path d="M16030 23490
L15750 23490
" />
<path d="M15890 23490
L15890 22990
L15840 23060
L15800 23110
L15750 23130
" />
<path d="M16230 23040
L16250 23020
L16300 22990
L16420 22990
L16460 23020
L16490 23040
L16510 23090
L16510 23130
L16490 23210
L16200 23490
L16510 23490
" />
<path d="M17080 22970
L16650 23610
" />
<path d="M17180 22990
L17460 22990
" />
<path d="M17320 23490
L17320 22990
" />
<path d="M17580 22990
L17700 23490
L17800 23130
L17890 23490
L18010 22990
" />
<path d="M18200 23490
L18200 22990
" />
<path d="M18530 22990
L18580 22990
L18630 23020
L18650 23040
L18680 23090
L18700 23180
L18700 23300
L18680 23400
L18650 23440
L18630 23470
L18580 23490
L18530 23490
L18490 23470
L18460 23440
L18440 23400
L18420 23300
L18420 23180
L18440 23090
L18460 23040
L18490 23020
L18530 22990
" />
<path d="M18800 23540
L19180 23540
" />
<path d="M19270 23470
L19340 23490
L19460 23490
L19510 23470
L19530 23440
L19560 23400
L19560 23350
L19530 23300
L19510 23280
L19460 23250
L19370 23230
L19320 23210
L19300 23180
L19270 23130
L19270 23090
L19300 23040
L19320 23020
L19370 22990
L19490 22990
L19560 23020
" />
<path d="M19770 23490
L19770 22990
L19890 22990
L19960 23020
L20010 23060
L20030 23110
L20060 23210
L20060 23280
L20030 23370
L20010 23420
L19960 23470
L19890 23490
L19770 23490
" />
<path d="M20250 23350
L20490 23350
" />
<path d="M20200 23490
L20370 22990
L20530 23490
" />
<path d="M21060 22970
L20630 23610
" />
<path d="M21230 23490
L21230 22990
L21340 22990
L21420 23020
L21460 23060
L21490 23110
L21510 23210
L21510 23280
L21490 23370
L21460 23420
L21420 23470
L21340 23490
L21230 23490
" />
<path d="M21730 23490
L21730 22990
" />
<path d="M21840 23540
L22230 23540
" />
<path d="M22630 23490
L22460 23250
" />
<path d="M22340 23490
L22340 22990
L22530 22990
L22580 23020
L22610 23040
L22630 23090
L22630 23160
L22610 23210
L22580 23230
L22530 23250
L22340 23250
" />
<path d="M22800 22990
L23130 23490
" />
<path d="M23130 22990
L22800 23490
" />
<path d="M23680 22970
L23250 23610
" />
<path d="M23840 23490
L23840 22990
L24030 22990
L24080 23020
L24110 23040
L24130 23090
L24130 23160
L24110 23210
L24080 23230
L24030 23250
L23840 23250
" />
<path d="M24320 23350
L24560 23350
" />
<path d="M24270 23490
L24440 22990
L24610 23490
" />
<path d="M24650 23540
L25030 23540
" />
<path d="M25150 23230
L25320 23230
" />
<path d="M25390 23490
L25150 23490
L25150 22990
L25390 22990
" />
<path d="M25610 23490
L25610 22990
" />
<path d="M25840 23490
L25840 22990
L26130 23490
L26130 22990
" />
<path d="M26300 22990
L26580 22990
" />
<path d="M26440 23490
L26440 22990
" />
<path d="M27010 23490
L26730 23490
" />
<path d="M26870 23490
L26870 22990
L26820 23060
L26770 23110
L26730 23130
" />
<path d="M27200 23040
L27230 23020
L27270 22990
L27390 22990
L27440 23020
L27460 23040
L27490 23090
L27490 23130
L27460 23210
L27180 23490
L27490 23490
" />
<path d="M12700 23000
L12940 23000
" />
<path d="M12650 23140
L12820 22640
L12990 23140
" />
<path d="M13250 22640
L13300 22640
L13340 22670
L13370 22690
L13390 22740
L13410 22830
L13410 22950
L13390 23050
L13370 23090
L13340 23120
L13300 23140
L13250 23140
L13200 23120
L13180 23090
L13150 23050
L13130 22950
L13130 22830
L13150 22740
L13180 22690
L13200 22670
L13250 22640
" />
<path d="M13580 22640
L13890 22640
L13720 22830
L13800 22830
L13840 22860
L13870 22880
L13890 22930
L13890 23050
L13870 23090
L13840 23120
L13800 23140
L13650 23140
L13600 23120
L13580 23090
" />
<path d="M25300 10270
L25300 8270
" />
<path d="M25020 11240
L25020 11480
L25260 11500
L25240 11480
L25210 11430
L25210 11310
L25240 11270
L25260 11240
L25310 11220
L25430 11220
L25470 11240
L25500 11270
L25520 11310
L25520 11430
L25500 11480
L25470 11500
" />
<path d="M25020 11080
L25520 10910
L25020 10740
" />
<path d="M25030 9860
L25030 9620
" />
<path d="M25170 9910
L24670 9740
L25170 9570
" />
<path d="M24670 9310
L24670 9270
L24700 9220
L24720 9190
L24770 9170
L24860 9150
L24980 9150
L25080 9170
L25120 9190
L25150 9220
L25170 9270
L25170 9310
L25150 9360
L25120 9380
L25080 9410
L24980 9430
L24860 9430
L24770 9410
L24720 9380
L24700 9360
L24670 9310
" />
<path d="M24840 8720
L25170 8720
" />
<path d="M24650 8840
L25000 8960
L25000 8650
" />
<path d="M14300 22270
L12300 22270
" />
<path d="M14840 22490
L14840 21990
L15030 21990
L15080 22020
L15110 22040
L15130 22090
L15130 22160
L15110 22210
L15080 22230
L15030 22250
L14840 22250
" />
<path d="M15320 22350
L15560 22350
" />
<path d="M15270 22490
L15440 21990
L15610 22490
" />
<path d="M16030 22490
L15750 22490
" />
<path d="M15890 22490
L15890 21990
L15840 22060
L15800 22110
L15750 22130
" />
<path d="M16510 22490
L16230 22490
" />
<path d="M16370 22490
L16370 21990
L16320 22060
L16270 22110
L16230 22130
" />
<path d="M17080 21970
L16650 22610
" />
<path d="M17180 21990
L17460 21990
" />
<path d="M17320 22490
L17320 21990
" />
<path d="M17580 21990
L17700 22490
L17800 22130
L17890 22490
L18010 21990
" />
<path d="M18200 22490
L18200 21990
" />
<path d="M18530 21990
L18580 21990
L18630 22020
L18650 22040
L18680 22090
L18700 22180
L18700 22300
L18680 22400
L18650 22440
L18630 22470
L18580 22490
L18530 22490
L18490 22470
L18460 22440
L18440 22400
L18420 22300
L18420 22180
L18440 22090
L18460 22040
L18490 22020
L18530 21990
" />
<path d="M18800 22540
L19180 22540
" />
<path d="M19270 22470
L19340 22490
L19460 22490
L19510 22470
L19530 22440
L19560 22400
L19560 22350
L19530 22300
L19510 22280
L19460 22250
L19370 22230
L19320 22210
L19300 22180
L19270 22130
L19270 22090
L19300 22040
L19320 22020
L19370 21990
L19490 21990
L19560 22020
" />
<path d="M20060 22440
L20030 22470
L19960 22490
L19920 22490
L19840 22470
L19800 22420
L19770 22370
L19750 22280
L19750 22210
L19770 22110
L19800 22060
L19840 22020
L19920 21990
L19960 21990
L20030 22020
L20060 22040
" />
<path d="M20270 22490
L20270 21990
" />
<path d="M20560 22490
L20340 22210
" />
<path d="M20560 21990
L20270 22280
" />
<path d="M21130 21970
L20700 22610
" />
<path d="M21300 22490
L21300 21990
L21420 21990
L21490 22020
L21530 22060
L21560 22110
L21580 22210
L21580 22280
L21560 22370
L21530 22420
L21490 22470
L21420 22490
L21300 22490
" />
<path d="M21800 22490
L21800 21990
" />
<path d="M21920 22540
L22300 22540
" />
<path d="M22340 21990
L22630 21990
" />
<path d="M22490 22490
L22490 21990
" />
<path d="M22750 21990
L23080 22490
" />
<path d="M23080 21990
L22750 22490
" />
<path d="M23630 21970
L23200 22610
" />
<path d="M23800 22490
L23800 21990
L23990 21990
L24030 22020
L24060 22040
L24080 22090
L24080 22160
L24060 22210
L24030 22230
L23990 22250
L23800 22250
" />
<path d="M24270 22350
L24510 22350
" />
<path d="M24230 22490
L24390 21990
L24560 22490
" />
<path d="M24610 22540
L24990 22540
" />
<path d="M25110 22230
L25270 22230
" />
<path d="M25340 22490
L25110 22490
L25110 21990
L25340 21990
" />
<path d="M25560 22490
L25560 21990
" />
<path d="M25800 22490
L25800 21990
L26080 22490
L26080 21990
" />
<path d="M26250 21990
L26530 21990
" />
<path d="M26390 22490
L26390 21990
" />
<path d="M26960 22490
L26680 22490
" />
<path d="M26820 22490
L26820 21990
L26770 22060
L26730 22110
L26680 22130
" />
<path d="M27440 22490
L27150 22490
" />
<path d="M27300 22490
L27300 21990
L27250 22060
L27200 22110
L27150 22130
" />
<path d="M12700 22000
L12940 22000
" />
<path d="M12650 22140
L12820 21640
L12990 22140
" />
<path d="M13250 21640
L13300 21640
L13340 21670
L13370 21690
L13390 21740
L13410 21830
L13410 21950
L13390 22050
L13370 22090
L13340 22120
L13300 22140
L13250 22140
L13200 22120
L13180 22090
L13150 22050
L13130 21950
L13130 21830
L13150 21740
L13180 21690
L13200 21670
L13250 21640
" />
<path d="M13870 21640
L13630 21640
L13600 21880
L13630 21860
L13680 21830
L13800 21830
L13840 21860
L13870 21880
L13890 21930
L13890 22050
L13870 22090
L13840 22120
L13800 22140
L13680 22140
L13630 22120
L13600 22090
" />
<path d="M18300 36270
L18300 38270
" />
<path d="M18050 35450
L18020 35500
L18020 35570
L18050 35640
L18090 35690
L18140 35720
L18240 35740
L18310 35740
L18400 35720
L18450 35690
L18500 35640
L18520 35570
L18520 35530
L18500 35450
L18470 35430
L18310 35430
L18310 35530
" />
<path d="M18520 35220
L18020 35220
L18520 34930
L18020 34930
" />
<path d="M18520 34690
L18020 34690
L18020 34570
L18050 34500
L18090 34450
L18140 34430
L18240 34410
L18310 34410
L18400 34430
L18450 34450
L18500 34500
L18520 34570
L18520 34690
" />
<path d="M18030 37860
L18030 37620
" />
<path d="M18170 37910
L17670 37740
L18170 37570
" />
<path d="M17670 37310
L17670 37270
L17700 37220
L17720 37190
L17770 37170
L17860 37150
L17980 37150
L18080 37170
L18120 37190
L18150 37220
L18170 37270
L18170 37310
L18150 37360
L18120 37380
L18080 37410
L17980 37430
L17860 37430
L17770 37410
L17720 37380
L17700 37360
L17670 37310
" />
<path d="M17670 36720
L17670 36810
L17700 36860
L17720 36880
L17790 36930
L17890 36960
L18080 36960
L18120 36930
L18150 36910
L18170 36860
L18170 36770
L18150 36720
L18120 36690
L18080 36670
L17960 36670
L17910 36690
L17890 36720
L17860 36770
L17860 36860
L17890 36910
L17910 36930
L17960 36960
" />
<path d="M14300 18270
L12300 18270
" />
<path d="M14840 18490
L14840 17990
L15030 17990
L15080 18020
L15110 18040
L15130 18090
L15130 18160
L15110 18210
L15080 18230
L15030 18250
L14840 18250
" />
<path d="M15320 18350
L15560 18350
" />
<path d="M15270 18490
L15440 17990
L15610 18490
" />
<path d="M15990 17990
L15890 17990
L15840 18020
L15820 18040
L15770 18110
L15750 18210
L15750 18400
L15770 18440
L15800 18470
L15840 18490
L15940 18490
L15990 18470
L16010 18440
L16030 18400
L16030 18280
L16010 18230
L15990 18210
L15940 18180
L15840 18180
L15800 18210
L15770 18230
L15750 18280
" />
<path d="M16610 17970
L16180 18610
" />
<path d="M16750 18470
L16820 18490
L16940 18490
L16990 18470
L17010 18440
L17030 18400
L17030 18350
L17010 18300
L16990 18280
L16940 18250
L16840 18230
L16800 18210
L16770 18180
L16750 18130
L16750 18090
L16770 18040
L16800 18020
L16840 17990
L16960 17990
L17030 18020
" />
<path d="M17250 18490
L17250 17990
" />
<path d="M17490 18490
L17490 17990
L17650 18350
L17820 17990
L17820 18490
" />
<path d="M17940 18540
L18320 18540
" />
<path d="M18440 18490
L18440 17990
L18630 17990
L18680 18020
L18700 18040
L18730 18090
L18730 18160
L18700 18210
L18680 18230
L18630 18250
L18440 18250
" />
<path d="M18890 17990
L19010 18490
L19110 18130
L19200 18490
L19320 17990
" />
<path d="M19800 18490
L19630 18250
" />
<path d="M19510 18490
L19510 17990
L19700 17990
L19750 18020
L19770 18040
L19800 18090
L19800 18160
L19770 18210
L19750 18230
L19700 18250
L19510 18250
" />
<path d="M20010 18230
L20180 18230
" />
<path d="M20250 18490
L20010 18490
L20010 17990
L20250 17990
" />
<path d="M20460 18490
L20460 17990
L20750 18490
L20750 17990
" />
<path d="M21340 17970
L20920 18610
" />
<path d="M21510 18490
L21510 17990
L21700 17990
L21750 18020
L21770 18040
L21800 18090
L21800 18160
L21770 18210
L21750 18230
L21700 18250
L21510 18250
" />
<path d="M21990 18350
L22230 18350
" />
<path d="M21940 18490
L22110 17990
L22270 18490
" />
<path d="M22320 18540
L22700 18540
" />
<path d="M22820 18230
L22990 18230
" />
<path d="M23060 18490
L22820 18490
L22820 17990
L23060 17990
" />
<path d="M23270 18490
L23270 17990
" />
<path d="M23510 18490
L23510 17990
L23800 18490
L23800 17990
" />
<path d="M23960 17990
L24250 17990
" />
<path d="M24110 18490
L24110 17990
" />
<path d="M24630 17990
L24530 17990
L24490 18020
L24460 18040
L24420 18110
L24390 18210
L24390 18400
L24420 18440
L24440 18470
L24490 18490
L24580 18490
L24630 18470
L24650 18440
L24680 18400
L24680 18280
L24650 18230
L24630 18210
L24580 18180
L24490 18180
L24440 18210
L24420 18230
L24390 18280
" />
<path d="M12700 18000
L12940 18000
" />
<path d="M12650 18140
L12820 17640
L12990 18140
" />
<path d="M13250 17640
L13300 17640
L13340 17670
L13370 17690
L13390 17740
L13410 17830
L13410 17950
L13390 18050
L13370 18090
L13340 18120
L13300 18140
L13250 18140
L13200 18120
L13180 18090
L13150 18050
L13130 17950
L13130 17830
L13150 17740
L13180 17690
L13200 17670
L13250 17640
" />
<path d="M13580 17640
L13910 17640
L13700 18140
" />
<path d="M14300 32270
L12300 32270
" />
<path d="M14840 32490
L14840 31990
L15030 31990
L15080 32020
L15110 32040
L15130 32090
L15130 32160
L15110 32210
L15080 32230
L15030 32250
L14840 32250
" />
<path d="M15610 32020
L15560 31990
L15490 31990
L15420 32020
L15370 32060
L15340 32110
L15320 32210
L15320 32280
L15340 32370
L15370 32420
L15420 32470
L15490 32490
L15530 32490
L15610 32470
L15630 32440
L15630 32280
L15530 32280
" />
<path d="M16060 31990
L15960 31990
L15920 32020
L15890 32040
L15840 32110
L15820 32210
L15820 32400
L15840 32440
L15870 32470
L15920 32490
L16010 32490
L16060 32470
L16080 32440
L16110 32400
L16110 32280
L16080 32230
L16060 32210
L16010 32180
L15920 32180
L15870 32210
L15840 32230
L15820 32280
" />
<path d="M16680 31970
L16250 32610
" />
<path d="M16840 31990
L16840 32400
L16870 32440
L16890 32470
L16940 32490
L17030 32490
L17080 32470
L17110 32440
L17130 32400
L17130 31990
" />
<path d="M17340 32350
L17580 32350
" />
<path d="M17300 32490
L17460 31990
L17630 32490
" />
<path d="M18080 32490
L17920 32250
" />
<path d="M17800 32490
L17800 31990
L17990 31990
L18030 32020
L18060 32040
L18080 32090
L18080 32160
L18060 32210
L18030 32230
L17990 32250
L17800 32250
" />
<path d="M18230 31990
L18510 31990
" />
<path d="M18370 32490
L18370 31990
" />
<path d="M18940 32490
L18650 32490
" />
<path d="M18800 32490
L18800 31990
L18750 32060
L18700 32110
L18650 32130
" />
<path d="M19030 32540
L19420 32540
" />
<path d="M19460 31990
L19750 31990
" />
<path d="M19610 32490
L19610 31990
" />
<path d="M19870 31990
L20200 32490
" />
<path d="M20200 31990
L19870 32490
" />
<path d="M20750 31970
L20320 32610
" />
<path d="M20920 32490
L20920 31990
L21110 31990
L21150 32020
L21180 32040
L21200 32090
L21200 32160
L21180 32210
L21150 32230
L21110 32250
L20920 32250
" />
<path d="M21680 32020
L21630 31990
L21560 31990
L21490 32020
L21440 32060
L21420 32110
L21390 32210
L21390 32280
L21420 32370
L21440 32420
L21490 32470
L21560 32490
L21610 32490
L21680 32470
L21700 32440
L21700 32280
L21610 32280
" />
<path d="M21800 32540
L22180 32540
" />
<path d="M22300 32230
L22460 32230
" />
<path d="M22530 32490
L22300 32490
L22300 31990
L22530 31990
" />
<path d="M22750 32490
L22750 31990
" />
<path d="M22990 32490
L22990 31990
L23270 32490
L23270 31990
" />
<path d="M23440 31990
L23730 31990
" />
<path d="M23580 32490
L23580 31990
" />
<path d="M24110 31990
L24010 31990
L23960 32020
L23940 32040
L23890 32110
L23870 32210
L23870 32400
L23890 32440
L23920 32470
L23960 32490
L24060 32490
L24110 32470
L24130 32440
L24150 32400
L24150 32280
L24130 32230
L24110 32210
L24060 32180
L23960 32180
L23920 32210
L23890 32230
L23870 32280
" />
<path d="M12700 32000
L12940 32000
" />
<path d="M12650 32140
L12820 31640
L12990 32140
" />
<path d="M13250 31640
L13300 31640
L13340 31670
L13370 31690
L13390 31740
L13410 31830
L13410 31950
L13390 32050
L13370 32090
L13340 32120
L13300 32140
L13250 32140
L13200 32120
L13180 32090
L13150 32050
L13130 31950
L13130 31830
L13150 31740
L13180 31690
L13200 31670
L13250 31640
" />
<path d="M13700 31860
L13650 31830
L13630 31810
L13600 31760
L13600 31740
L13630 31690
L13650 31670
L13700 31640
L13800 31640
L13840 31670
L13870 31690
L13890 31740
L13890 31760
L13870 31810
L13840 31830
L13800 31860
L13700 31860
L13650 31880
L13630 31900
L13600 31950
L13600 32050
L13630 32090
L13650 32120
L13700 32140
L13800 32140
L13840 32120
L13870 32090
L13890 32050
L13890 31950
L13870 31900
L13840 31880
L13800 31860
" />
<path d="M19300 36270
L19300 38270
" />
<path d="M19050 35450
L19020 35500
L19020 35570
L19050 35640
L19090 35690
L19140 35720
L19240 35740
L19310 35740
L19400 35720
L19450 35690
L19500 35640
L19520 35570
L19520 35530
L19500 35450
L19470 35430
L19310 35430
L19310 35530
" />
<path d="M19520 35220
L19020 35220
L19520 34930
L19020 34930
" />
<path d="M19520 34690
L19020 34690
L19020 34570
L19050 34500
L19090 34450
L19140 34430
L19240 34410
L19310 34410
L19400 34430
L19450 34450
L19500 34500
L19520 34570
L19520 34690
" />
<path d="M19030 37860
L19030 37620
" />
<path d="M19170 37910
L18670 37740
L19170 37570
" />
<path d="M18670 37310
L18670 37270
L18700 37220
L18720 37190
L18770 37170
L18860 37150
L18980 37150
L19080 37170
L19120 37190
L19150 37220
L19170 37270
L19170 37310
L19150 37360
L19120 37380
L19080 37410
L18980 37430
L18860 37430
L18770 37410
L18720 37380
L18700 37360
L18670 37310
" />
<path d="M19170 36910
L19170 36810
L19150 36770
L19120 36740
L19050 36690
L18960 36670
L18770 36670
L18720 36690
L18700 36720
L18670 36770
L18670 36860
L18700 36910
L18720 36930
L18770 36960
L18890 36960
L18930 36930
L18960 36910
L18980 36860
L18980 36770
L18960 36720
L18930 36690
L18890 36670
" />
<path d="M14300 33270
L12300 33270
" />
<path d="M14840 33490
L14840 32990
L15030 32990
L15080 33020
L15110 33040
L15130 33090
L15130 33160
L15110 33210
L15080 33230
L15030 33250
L14840 33250
" />
<path d="M15610 33020
L15560 32990
L15490 32990
L15420 33020
L15370 33060
L15340 33110
L15320 33210
L15320 33280
L15340 33370
L15370 33420
L15420 33470
L15490 33490
L15530 33490
L15610 33470
L15630 33440
L15630 33280
L15530 33280
" />
<path d="M15800 32990
L16130 32990
L15920 33490
" />
<path d="M16680 32970
L16250 33610
" />
<path d="M16840 32990
L16840 33400
L16870 33440
L16890 33470
L16940 33490
L17030 33490
L17080 33470
L17110 33440
L17130 33400
L17130 32990
" />
<path d="M17340 33350
L17580 33350
" />
<path d="M17300 33490
L17460 32990
L17630 33490
" />
<path d="M18080 33490
L17920 33250
" />
<path d="M17800 33490
L17800 32990
L17990 32990
L18030 33020
L18060 33040
L18080 33090
L18080 33160
L18060 33210
L18030 33230
L17990 33250
L17800 33250
" />
<path d="M18230 32990
L18510 32990
" />
<path d="M18370 33490
L18370 32990
" />
<path d="M18940 33490
L18650 33490
" />
<path d="M18800 33490
L18800 32990
L18750 33060
L18700 33110
L18650 33130
" />
<path d="M19030 33540
L19420 33540
" />
<path d="M19820 33490
L19650 33250
" />
<path d="M19530 33490
L19530 32990
L19730 32990
L19770 33020
L19800 33040
L19820 33090
L19820 33160
L19800 33210
L19770 33230
L19730 33250
L19530 33250
" />
<path d="M19990 32990
L20320 33490
" />
<path d="M20320 32990
L19990 33490
" />
<path d="M20870 32970
L20440 33610
" />
<path d="M21030 33490
L21030 32990
L21230 32990
L21270 33020
L21300 33040
L21320 33090
L21320 33160
L21300 33210
L21270 33230
L21230 33250
L21030 33250
" />
<path d="M21800 33020
L21750 32990
L21680 32990
L21610 33020
L21560 33060
L21530 33110
L21510 33210
L21510 33280
L21530 33370
L21560 33420
L21610 33470
L21680 33490
L21730 33490
L21800 33470
L21820 33440
L21820 33280
L21730 33280
" />
<path d="M21920 33540
L22300 33540
" />
<path d="M22420 33230
L22580 33230
" />
<path d="M22650 33490
L22420 33490
L22420 32990
L22650 32990
" />
<path d="M22870 33490
L22870 32990
" />
<path d="M23110 33490
L23110 32990
L23390 33490
L23390 32990
" />
<path d="M23560 32990
L23840 32990
" />
<path d="M23700 33490
L23700 32990
" />
<path d="M23960 32990
L24300 32990
L24080 33490
" />
<path d="M12700 33000
L12940 33000
" />
<path d="M12650 33140
L12820 32640
L12990 33140
" />
<path d="M13410 33140
L13130 33140
" />
<path d="M13270 33140
L13270 32640
L13220 32710
L13180 32760
L13130 32780
" />
<path d="M13720 32640
L13770 32640
L13820 32670
L13840 32690
L13870 32740
L13890 32830
L13890 32950
L13870 33050
L13840 33090
L13820 33120
L13770 33140
L13720 33140
L13680 33120
L13650 33090
L13630 33050
L13600 32950
L13600 32830
L13630 32740
L13650 32690
L13680 32670
L13720 32640
" />
<path d="M14300 14270
L12300 14270
" />
<path d="M14840 14490
L14840 13990
L15030 13990
L15080 14020
L15110 14040
L15130 14090
L15130 14160
L15110 14210
L15080 14230
L15030 14250
L14840 14250
" />
<path d="M15320 14350
L15560 14350
" />
<path d="M15270 14490
L15440 13990
L15610 14490
" />
<path d="M16030 14490
L15750 14490
" />
<path d="M15890 14490
L15890 13990
L15840 14060
L15800 14110
L15750 14130
" />
<path d="M16610 13970
L16180 14610
" />
<path d="M16770 13990
L16770 14400
L16800 14440
L16820 14470
L16870 14490
L16960 14490
L17010 14470
L17030 14440
L17060 14400
L17060 13990
" />
<path d="M17270 14350
L17510 14350
" />
<path d="M17230 14490
L17390 13990
L17560 14490
" />
<path d="M18010 14490
L17840 14250
" />
<path d="M17730 14490
L17730 13990
L17920 13990
L17960 14020
L17990 14040
L18010 14090
L18010 14160
L17990 14210
L17960 14230
L17920 14250
L17730 14250
" />
<path d="M18150 13990
L18440 13990
" />
<path d="M18300 14490
L18300 13990
" />
<path d="M18580 14040
L18610 14020
L18650 13990
L18770 13990
L18820 14020
L18840 14040
L18870 14090
L18870 14130
L18840 14210
L18560 14490
L18870 14490
" />
<path d="M18960 14540
L19340 14540
" />
<path d="M19750 14490
L19580 14250
" />
<path d="M19460 14490
L19460 13990
L19650 13990
L19700 14020
L19730 14040
L19750 14090
L19750 14160
L19730 14210
L19700 14230
L19650 14250
L19460 14250
" />
<path d="M19920 13990
L20250 14490
" />
<path d="M20250 13990
L19920 14490
" />
<path d="M20800 13970
L20370 14610
" />
<path d="M21110 13990
L21110 14350
L21080 14420
L21030 14470
L20960 14490
L20920 14490
" />
<path d="M21270 13990
L21560 13990
" />
<path d="M21420 14490
L21420 13990
" />
<path d="M21700 14350
L21940 14350
" />
<path d="M21650 14490
L21820 13990
L21990 14490
" />
<path d="M22420 14020
L22370 13990
L22300 13990
L22230 14020
L22180 14060
L22150 14110
L22130 14210
L22130 14280
L22150 14370
L22180 14420
L22230 14470
L22300 14490
L22340 14490
L22420 14470
L22440 14440
L22440 14280
L22340 14280
" />
<path d="M22530 14540
L22920 14540
" />
<path d="M23320 14440
L23300 14470
L23230 14490
L23180 14490
L23110 14470
L23060 14420
L23030 14370
L23010 14280
L23010 14210
L23030 14110
L23060 14060
L23110 14020
L23180 13990
L23230 13990
L23300 14020
L23320 14040
" />
<path d="M23530 14490
L23530 13990
" />
<path d="M23820 14490
L23610 14210
" />
<path d="M23820 13990
L23530 14280
" />
<path d="M24390 13970
L23960 14610
" />
<path d="M24560 14490
L24560 13990
L24750 13990
L24800 14020
L24820 14040
L24840 14090
L24840 14160
L24820 14210
L24800 14230
L24750 14250
L24560 14250
" />
<path d="M25030 14350
L25270 14350
" />
<path d="M24990 14490
L25150 13990
L25320 14490
" />
<path d="M25370 14540
L25750 14540
" />
<path d="M25870 14230
L26030 14230
" />
<path d="M26110 14490
L25870 14490
L25870 13990
L26110 13990
" />
<path d="M26320 14490
L26320 13990
" />
<path d="M26560 14490
L26560 13990
L26840 14490
L26840 13990
" />
<path d="M27010 13990
L27300 13990
" />
<path d="M27150 14490
L27150 13990
" />
<path d="M27730 14490
L27440 14490
" />
<path d="M27580 14490
L27580 13990
L27530 14060
L27490 14110
L27440 14130
" />
<path d="M12700 14000
L12940 14000
" />
<path d="M12650 14140
L12820 13640
L12990 14140
" />
<path d="M13410 14140
L13130 14140
" />
<path d="M13270 14140
L13270 13640
L13220 13710
L13180 13760
L13130 13780
" />
<path d="M13890 14140
L13600 14140
" />
<path d="M13750 14140
L13750 13640
L13700 13710
L13650 13760
L13600 13780
" />
<path d="M14300 19270
L12300 19270
" />
<path d="M14840 19490
L14840 18990
L15030 18990
L15080 19020
L15110 19040
L15130 19090
L15130 19160
L15110 19210
L15080 19230
L15030 19250
L14840 19250
" />
<path d="M15320 19350
L15560 19350
" />
<path d="M15270 19490
L15440 18990
L15610 19490
" />
<path d="M15730 18990
L16060 18990
L15840 19490
" />
<path d="M16610 18970
L16180 19610
" />
<path d="M16750 19470
L16820 19490
L16940 19490
L16990 19470
L17010 19440
L17030 19400
L17030 19350
L17010 19300
L16990 19280
L16940 19250
L16840 19230
L16800 19210
L16770 19180
L16750 19130
L16750 19090
L16770 19040
L16800 19020
L16840 18990
L16960 18990
L17030 19020
" />
<path d="M17250 19490
L17250 18990
" />
<path d="M17490 19490
L17490 18990
L17650 19350
L17820 18990
L17820 19490
" />
<path d="M17940 19540
L18320 19540
" />
<path d="M18730 19440
L18700 19470
L18630 19490
L18580 19490
L18510 19470
L18460 19420
L18440 19370
L18420 19280
L18420 19210
L18440 19110
L18460 19060
L18510 19020
L18580 18990
L18630 18990
L18700 19020
L18730 19040
" />
<path d="M19180 19490
L18940 19490
L18940 18990
" />
<path d="M19340 19490
L19340 18990
" />
<path d="M19630 19490
L19420 19210
" />
<path d="M19630 18990
L19340 19280
" />
<path d="M20200 18970
L19770 19610
" />
<path d="M20370 19490
L20370 18990
L20560 18990
L20610 19020
L20630 19040
L20650 19090
L20650 19160
L20630 19210
L20610 19230
L20560 19250
L20370 19250
" />
<path d="M20840 19350
L21080 19350
" />
<path d="M20800 19490
L20960 18990
L21130 19490
" />
<path d="M21180 19540
L21560 19540
" />
<path d="M21680 19230
L21840 19230
" />
<path d="M21920 19490
L21680 19490
L21680 18990
L21920 18990
" />
<path d="M22130 19490
L22130 18990
" />
<path d="M22370 19490
L22370 18990
L22650 19490
L22650 18990
" />
<path d="M22820 18990
L23110 18990
" />
<path d="M22960 19490
L22960 18990
" />
<path d="M23230 18990
L23560 18990
L23340 19490
" />
<path d="M12700 19000
L12940 19000
" />
<path d="M12650 19140
L12820 18640
L12990 19140
" />
<path d="M13410 19140
L13130 19140
" />
<path d="M13270 19140
L13270 18640
L13220 18710
L13180 18760
L13130 18780
" />
<path d="M13600 18690
L13630 18670
L13680 18640
L13800 18640
L13840 18670
L13870 18690
L13890 18740
L13890 18780
L13870 18860
L13580 19140
L13890 19140
" />
<path d="M14300 13270
L12300 13270
" />
<path d="M14840 13490
L14840 12990
L15030 12990
L15080 13020
L15110 13040
L15130 13090
L15130 13160
L15110 13210
L15080 13230
L15030 13250
L14840 13250
" />
<path d="M15320 13350
L15560 13350
" />
<path d="M15270 13490
L15440 12990
L15610 13490
" />
<path d="M15870 12990
L15920 12990
L15960 13020
L15990 13040
L16010 13090
L16030 13180
L16030 13300
L16010 13400
L15990 13440
L15960 13470
L15920 13490
L15870 13490
L15820 13470
L15800 13440
L15770 13400
L15750 13300
L15750 13180
L15770 13090
L15800 13040
L15820 13020
L15870 12990
" />
<path d="M16610 12970
L16180 13610
" />
<path d="M16770 12990
L16770 13400
L16800 13440
L16820 13470
L16870 13490
L16960 13490
L17010 13470
L17030 13440
L17060 13400
L17060 12990
" />
<path d="M17270 13350
L17510 13350
" />
<path d="M17230 13490
L17390 12990
L17560 13490
" />
<path d="M18010 13490
L17840 13250
" />
<path d="M17730 13490
L17730 12990
L17920 12990
L17960 13020
L17990 13040
L18010 13090
L18010 13160
L17990 13210
L17960 13230
L17920 13250
L17730 13250
" />
<path d="M18150 12990
L18440 12990
" />
<path d="M18300 13490
L18300 12990
" />
<path d="M18580 13040
L18610 13020
L18650 12990
L18770 12990
L18820 13020
L18840 13040
L18870 13090
L18870 13130
L18840 13210
L18560 13490
L18870 13490
" />
<path d="M18960 13540
L19340 13540
" />
<path d="M19390 12990
L19680 12990
" />
<path d="M19530 13490
L19530 12990
" />
<path d="M19800 12990
L20130 13490
" />
<path d="M20130 12990
L19800 13490
" />
<path d="M20680 12970
L20250 13610
" />
<path d="M20990 12990
L20990 13350
L20960 13420
L20920 13470
L20840 13490
L20800 13490
" />
<path d="M21150 12990
L21440 12990
" />
<path d="M21300 13490
L21300 12990
" />
<path d="M21580 13350
L21820 13350
" />
<path d="M21530 13490
L21700 12990
L21870 13490
" />
<path d="M22300 13020
L22250 12990
L22180 12990
L22110 13020
L22060 13060
L22030 13110
L22010 13210
L22010 13280
L22030 13370
L22060 13420
L22110 13470
L22180 13490
L22230 13490
L22300 13470
L22320 13440
L22320 13280
L22230 13280
" />
<path d="M22420 13540
L22800 13540
" />
<path d="M22920 13490
L22920 12990
L23080 13350
L23250 12990
L23250 13490
" />
<path d="M23750 13020
L23700 12990
L23630 12990
L23560 13020
L23510 13060
L23490 13110
L23460 13210
L23460 13280
L23490 13370
L23510 13420
L23560 13470
L23630 13490
L23680 13490
L23750 13470
L23770 13440
L23770 13280
L23680 13280
" />
<path d="M24340 12970
L23920 13610
" />
<path d="M24510 13490
L24510 12990
L24700 12990
L24750 13020
L24770 13040
L24800 13090
L24800 13160
L24770 13210
L24750 13230
L24700 13250
L24510 13250
" />
<path d="M24990 13350
L25230 13350
" />
<path d="M24940 13490
L25110 12990
L25270 13490
" />
<path d="M25320 13540
L25700 13540
" />
<path d="M25820 13230
L25990 13230
" />
<path d="M26060 13490
L25820 13490
L25820 12990
L26060 12990
" />
<path d="M26270 13490
L26270 12990
" />
<path d="M26510 13490
L26510 12990
L26800 13490
L26800 12990
" />
<path d="M26960 12990
L27250 12990
" />
<path d="M27110 13490
L27110 12990
" />
<path d="M27510 12990
L27560 12990
L27610 13020
L27630 13040
L27650 13090
L27680 13180
L27680 13300
L27650 13400
L27630 13440
L27610 13470
L27560 13490
L27510 13490
L27460 13470
L27440 13440
L27420 13400
L27390 13300
L27390 13180
L27420 13090
L27440 13040
L27460 13020
L27510 12990
" />
<path d="M12700 13000
L12940 13000
" />
<path d="M12650 13140
L12820 12640
L12990 13140
" />
<path d="M13410 13140
L13130 13140
" />
<path d="M13270 13140
L13270 12640
L13220 12710
L13180 12760
L13130 12780
" />
<path d="M13580 12640
L13890 12640
L13720 12830
L13800 12830
L13840 12860
L13870 12880
L13890 12930
L13890 13050
L13870 13090
L13840 13120
L13800 13140
L13650 13140
L13600 13120
L13580 13090
" />
<path d="M20300 36270
L20300 38270
" />
<path d="M20050 35450
L20020 35500
L20020 35570
L20050 35640
L20090 35690
L20140 35720
L20240 35740
L20310 35740
L20400 35720
L20450 35690
L20500 35640
L20520 35570
L20520 35530
L20500 35450
L20470 35430
L20310 35430
L20310 35530
" />
<path d="M20520 35220
L20020 35220
L20520 34930
L20020 34930
" />
<path d="M20520 34690
L20020 34690
L20020 34570
L20050 34500
L20090 34450
L20140 34430
L20240 34410
L20310 34410
L20400 34430
L20450 34450
L20500 34500
L20520 34570
L20520 34690
" />
<path d="M20030 37860
L20030 37620
" />
<path d="M20170 37910
L19670 37740
L20170 37570
" />
<path d="M20170 37150
L20170 37430
" />
<path d="M20170 37290
L19670 37290
L19740 37340
L19790 37380
L19810 37430
" />
<path d="M19840 36720
L20170 36720
" />
<path d="M19650 36840
L20000 36960
L20000 36650
" />
<path d="M14300 16270
L12300 16270
" />
<path d="M14840 16490
L14840 15990
L15030 15990
L15080 16020
L15110 16040
L15130 16090
L15130 16160
L15110 16210
L15080 16230
L15030 16250
L14840 16250
" />
<path d="M15320 16350
L15560 16350
" />
<path d="M15270 16490
L15440 15990
L15610 16490
" />
<path d="M15730 15990
L16030 15990
L15870 16180
L15940 16180
L15990 16210
L16010 16230
L16030 16280
L16030 16400
L16010 16440
L15990 16470
L15940 16490
L15800 16490
L15750 16470
L15730 16440
" />
<path d="M16610 15970
L16180 16610
" />
<path d="M16770 15990
L16770 16400
L16800 16440
L16820 16470
L16870 16490
L16960 16490
L17010 16470
L17030 16440
L17060 16400
L17060 15990
" />
<path d="M17270 16350
L17510 16350
" />
<path d="M17230 16490
L17390 15990
L17560 16490
" />
<path d="M18010 16490
L17840 16250
" />
<path d="M17730 16490
L17730 15990
L17920 15990
L17960 16020
L17990 16040
L18010 16090
L18010 16160
L17990 16210
L17960 16230
L17920 16250
L17730 16250
" />
<path d="M18150 15990
L18440 15990
" />
<path d="M18300 16490
L18300 15990
" />
<path d="M18580 16040
L18610 16020
L18650 15990
L18770 15990
L18820 16020
L18840 16040
L18870 16090
L18870 16130
L18840 16210
L18560 16490
L18870 16490
" />
<path d="M18960 16540
L19340 16540
" />
<path d="M19750 16440
L19730 16470
L19650 16490
L19610 16490
L19530 16470
L19490 16420
L19460 16370
L19440 16280
L19440 16210
L19460 16110
L19490 16060
L19530 16020
L19610 15990
L19650 15990
L19730 16020
L19750 16040
" />
<path d="M19890 15990
L20180 15990
" />
<path d="M20030 16490
L20030 15990
" />
<path d="M20320 16470
L20390 16490
L20510 16490
L20560 16470
L20580 16440
L20610 16400
L20610 16350
L20580 16300
L20560 16280
L20510 16250
L20420 16230
L20370 16210
L20340 16180
L20320 16130
L20320 16090
L20340 16040
L20370 16020
L20420 15990
L20530 15990
L20610 16020
" />
<path d="M21180 15970
L20750 16610
" />
<path d="M21490 15990
L21490 16350
L21460 16420
L21420 16470
L21340 16490
L21300 16490
" />
<path d="M21650 15990
L21940 15990
" />
<path d="M21800 16490
L21800 15990
" />
<path d="M22080 16350
L22320 16350
" />
<path d="M22030 16490
L22200 15990
L22370 16490
" />
<path d="M22800 16020
L22750 15990
L22680 15990
L22610 16020
L22560 16060
L22530 16110
L22510 16210
L22510 16280
L22530 16370
L22560 16420
L22610 16470
L22680 16490
L22730 16490
L22800 16470
L22820 16440
L22820 16280
L22730 16280
" />
<path d="M22920 16540
L23300 16540
" />
<path d="M23420 16490
L23420 15990
L23530 15990
L23610 16020
L23650 16060
L23680 16110
L23700 16210
L23700 16280
L23680 16370
L23650 16420
L23610 16470
L23530 16490
L23420 16490
" />
<path d="M23920 16490
L23920 15990
" />
<path d="M24510 15970
L24080 16610
" />
<path d="M24680 16490
L24680 15990
L24870 15990
L24920 16020
L24940 16040
L24960 16090
L24960 16160
L24940 16210
L24920 16230
L24870 16250
L24680 16250
" />
<path d="M25150 16350
L25390 16350
" />
<path d="M25110 16490
L25270 15990
L25440 16490
" />
<path d="M25490 16540
L25870 16540
" />
<path d="M25990 16230
L26150 16230
" />
<path d="M26230 16490
L25990 16490
L25990 15990
L26230 15990
" />
<path d="M26440 16490
L26440 15990
" />
<path d="M26680 16490
L26680 15990
L26960 16490
L26960 15990
" />
<path d="M27130 15990
L27420 15990
" />
<path d="M27270 16490
L27270 15990
" />
<path d="M27530 15990
L27840 15990
L27680 16180
L27750 16180
L27800 16210
L27820 16230
L27840 16280
L27840 16400
L27820 16440
L27800 16470
L27750 16490
L27610 16490
L27560 16470
L27530 16440
" />
<path d="M12700 16000
L12940 16000
" />
<path d="M12650 16140
L12820 15640
L12990 16140
" />
<path d="M13410 16140
L13130 16140
" />
<path d="M13270 16140
L13270 15640
L13220 15710
L13180 15760
L13130 15780
" />
<path d="M13870 15640
L13630 15640
L13600 15880
L13630 15860
L13680 15830
L13800 15830
L13840 15860
L13870 15880
L13890 15930
L13890 16050
L13870 16090
L13840 16120
L13800 16140
L13680 16140
L13630 16120
L13600 16090
" />
<path d="M14300 30270
L12300 30270
" />
<path d="M14840 30490
L14840 29990
L15030 29990
L15080 30020
L15110 30040
L15130 30090
L15130 30160
L15110 30210
L15080 30230
L15030 30250
L14840 30250
" />
<path d="M15320 30350
L15560 30350
" />
<path d="M15270 30490
L15440 29990
L15610 30490
" />
<path d="M16030 30490
L15750 30490
" />
<path d="M15890 30490
L15890 29990
L15840 30060
L15800 30110
L15750 30130
" />
<path d="M16270 30490
L16370 30490
L16420 30470
L16440 30440
L16490 30370
L16510 30280
L16510 30090
L16490 30040
L16460 30020
L16420 29990
L16320 29990
L16270 30020
L16250 30040
L16230 30090
L16230 30210
L16250 30250
L16270 30280
L16320 30300
L16420 30300
L16460 30280
L16490 30250
L16510 30210
" />
<path d="M17080 29970
L16650 30610
" />
<path d="M17250 30490
L17250 29990
L17440 29990
L17490 30020
L17510 30040
L17530 30090
L17530 30160
L17510 30210
L17490 30230
L17440 30250
L17250 30250
" />
<path d="M18030 30440
L18010 30470
L17940 30490
L17890 30490
L17820 30470
L17770 30420
L17750 30370
L17730 30280
L17730 30210
L17750 30110
L17770 30060
L17820 30020
L17890 29990
L17940 29990
L18010 30020
L18030 30040
" />
<path d="M18250 30490
L18250 29990
L18420 30350
L18580 29990
L18580 30490
" />
<path d="M18920 29990
L18960 29990
L19010 30020
L19030 30040
L19060 30090
L19080 30180
L19080 30300
L19060 30400
L19030 30440
L19010 30470
L18960 30490
L18920 30490
L18870 30470
L18840 30440
L18820 30400
L18800 30300
L18800 30180
L18820 30090
L18840 30040
L18870 30020
L18920 29990
" />
<path d="M19180 30540
L19560 30540
" />
<path d="M19960 30440
L19940 30470
L19870 30490
L19820 30490
L19750 30470
L19700 30420
L19680 30370
L19650 30280
L19650 30210
L19680 30110
L19700 30060
L19750 30020
L19820 29990
L19870 29990
L19940 30020
L19960 30040
" />
<path d="M20420 30490
L20180 30490
L20180 29990
" />
<path d="M20580 30490
L20580 29990
" />
<path d="M20870 30490
L20650 30210
" />
<path d="M20870 29990
L20580 30280
" />
<path d="M21440 29970
L21010 30610
" />
<path d="M21530 29990
L21820 29990
" />
<path d="M21680 30490
L21680 29990
" />
<path d="M21940 29990
L22060 30490
L22150 30130
L22250 30490
L22370 29990
" />
<path d="M22560 30490
L22560 29990
" />
<path d="M23060 30490
L22770 30490
" />
<path d="M22920 30490
L22920 29990
L22870 30060
L22820 30110
L22770 30130
" />
<path d="M23150 30540
L23530 30540
" />
<path d="M23630 30470
L23700 30490
L23820 30490
L23870 30470
L23890 30440
L23920 30400
L23920 30350
L23890 30300
L23870 30280
L23820 30250
L23730 30230
L23680 30210
L23650 30180
L23630 30130
L23630 30090
L23650 30040
L23680 30020
L23730 29990
L23840 29990
L23920 30020
" />
<path d="M24130 30490
L24130 29990
L24250 29990
L24320 30020
L24370 30060
L24390 30110
L24420 30210
L24420 30280
L24390 30370
L24370 30420
L24320 30470
L24250 30490
L24130 30490
" />
<path d="M24610 30350
L24840 30350
" />
<path d="M24560 30490
L24730 29990
L24890 30490
" />
<path d="M25420 29970
L24990 30610
" />
<path d="M25580 30490
L25580 29990
L25770 29990
L25820 30020
L25840 30040
L25870 30090
L25870 30160
L25840 30210
L25820 30230
L25770 30250
L25580 30250
" />
<path d="M26060 30350
L26300 30350
" />
<path d="M26010 30490
L26180 29990
L26340 30490
" />
<path d="M26390 30540
L26770 30540
" />
<path d="M26890 30230
L27060 30230
" />
<path d="M27130 30490
L26890 30490
L26890 29990
L27130 29990
" />
<path d="M27340 30490
L27340 29990
" />
<path d="M27580 30490
L27580 29990
L27870 30490
L27870 29990
" />
<path d="M28030 29990
L28320 29990
" />
<path d="M28180 30490
L28180 29990
" />
<path d="M28750 30490
L28460 30490
" />
<path d="M28610 30490
L28610 29990
L28560 30060
L28510 30110
L28460 30130
" />
<path d="M28990 30490
L29080 30490
L29130 30470
L29150 30440
L29200 30370
L29230 30280
L29230 30090
L29200 30040
L29180 30020
L29130 29990
L29030 29990
L28990 30020
L28960 30040
L28940 30090
L28940 30210
L28960 30250
L28990 30280
L29030 30300
L29130 30300
L29180 30280
L29200 30250
L29230 30210
" />
<path d="M12700 30000
L12940 30000
" />
<path d="M12650 30140
L12820 29640
L12990 30140
" />
<path d="M13410 30140
L13130 30140
" />
<path d="M13270 30140
L13270 29640
L13220 29710
L13180 29760
L13130 29780
" />
<path d="M13840 29640
L13750 29640
L13700 29670
L13680 29690
L13630 29760
L13600 29860
L13600 30050
L13630 30090
L13650 30120
L13700 30140
L13800 30140
L13840 30120
L13870 30090
L13890 30050
L13890 29930
L13870 29880
L13840 29860
L13800 29830
L13700 29830
L13650 29860
L13630 29880
L13600 29930
" />
<path d="M20300 10270
L20300 8270
" />
<path d="M20020 12240
L20020 11930
L20210 12100
L20210 12030
L20240 11980
L20260 11960
L20310 11930
L20430 11930
L20470 11960
L20500 11980
L20520 12030
L20520 12170
L20500 12220
L20470 12240
" />
<path d="M20470 11720
L20500 11700
L20520 11720
L20500 11740
L20470 11720
L20520 11720
" />
<path d="M20020 11530
L20020 11220
L20210 11390
L20210 11310
L20240 11270
L20260 11240
L20310 11220
L20430 11220
L20470 11240
L20500 11270
L20520 11310
L20520 11460
L20500 11500
L20470 11530
" />
<path d="M20020 11080
L20520 10910
L20020 10740
" />
<path d="M20030 9860
L20030 9620
" />
<path d="M20170 9910
L19670 9740
L20170 9570
" />
<path d="M20170 9150
L20170 9430
" />
<path d="M20170 9290
L19670 9290
L19740 9340
L19790 9380
L19810 9430
" />
<path d="M19670 8980
L19670 8650
L20170 8860
" />
<path d="M14300 29270
L12300 29270
" />
<path d="M14840 29490
L14840 28990
L15030 28990
L15080 29020
L15110 29040
L15130 29090
L15130 29160
L15110 29210
L15080 29230
L15030 29250
L14840 29250
" />
<path d="M15320 29350
L15560 29350
" />
<path d="M15270 29490
L15440 28990
L15610 29490
" />
<path d="M16030 29490
L15750 29490
" />
<path d="M15890 29490
L15890 28990
L15840 29060
L15800 29110
L15750 29130
" />
<path d="M16320 29210
L16270 29180
L16250 29160
L16230 29110
L16230 29090
L16250 29040
L16270 29020
L16320 28990
L16420 28990
L16460 29020
L16490 29040
L16510 29090
L16510 29110
L16490 29160
L16460 29180
L16420 29210
L16320 29210
L16270 29230
L16250 29250
L16230 29300
L16230 29400
L16250 29440
L16270 29470
L16320 29490
L16420 29490
L16460 29470
L16490 29440
L16510 29400
L16510 29300
L16490 29250
L16460 29230
L16420 29210
" />
<path d="M17080 28970
L16650 29610
" />
<path d="M17250 29490
L17250 28990
L17440 28990
L17490 29020
L17510 29040
L17530 29090
L17530 29160
L17510 29210
L17490 29230
L17440 29250
L17250 29250
" />
<path d="M18030 29440
L18010 29470
L17940 29490
L17890 29490
L17820 29470
L17770 29420
L17750 29370
L17730 29280
L17730 29210
L17750 29110
L17770 29060
L17820 29020
L17890 28990
L17940 28990
L18010 29020
L18030 29040
" />
<path d="M18250 29490
L18250 28990
L18420 29350
L18580 28990
L18580 29490
" />
<path d="M18920 28990
L18960 28990
L19010 29020
L19030 29040
L19060 29090
L19080 29180
L19080 29300
L19060 29400
L19030 29440
L19010 29470
L18960 29490
L18920 29490
L18870 29470
L18840 29440
L18820 29400
L18800 29300
L18800 29180
L18820 29090
L18840 29040
L18870 29020
L18920 28990
" />
<path d="M19180 29540
L19560 29540
" />
<path d="M19650 29470
L19730 29490
L19840 29490
L19890 29470
L19920 29440
L19940 29400
L19940 29350
L19920 29300
L19890 29280
L19840 29250
L19750 29230
L19700 29210
L19680 29180
L19650 29130
L19650 29090
L19680 29040
L19700 29020
L19750 28990
L19870 28990
L19940 29020
" />
<path d="M20250 29250
L20250 29490
" />
<path d="M20080 28990
L20250 29250
L20420 28990
" />
<path d="M20580 29490
L20580 28990
L20870 29490
L20870 28990
" />
<path d="M21390 29440
L21370 29470
L21300 29490
L21250 29490
L21180 29470
L21130 29420
L21110 29370
L21080 29280
L21080 29210
L21110 29110
L21130 29060
L21180 29020
L21250 28990
L21300 28990
L21370 29020
L21390 29040
" />
<path d="M21960 28970
L21530 29610
" />
<path d="M22060 28990
L22340 28990
" />
<path d="M22200 29490
L22200 28990
" />
<path d="M22460 28990
L22580 29490
L22680 29130
L22770 29490
L22890 28990
" />
<path d="M23080 29490
L23080 28990
" />
<path d="M23580 29490
L23300 29490
" />
<path d="M23440 29490
L23440 28990
L23390 29060
L23340 29110
L23300 29130
" />
<path d="M23680 29540
L24060 29540
" />
<path d="M24150 29470
L24230 29490
L24340 29490
L24390 29470
L24420 29440
L24440 29400
L24440 29350
L24420 29300
L24390 29280
L24340 29250
L24250 29230
L24200 29210
L24180 29180
L24150 29130
L24150 29090
L24180 29040
L24200 29020
L24250 28990
L24370 28990
L24440 29020
" />
<path d="M24940 29440
L24920 29470
L24840 29490
L24800 29490
L24730 29470
L24680 29420
L24650 29370
L24630 29280
L24630 29210
L24650 29110
L24680 29060
L24730 29020
L24800 28990
L24840 28990
L24920 29020
L24940 29040
" />
<path d="M25150 29490
L25150 28990
" />
<path d="M25440 29490
L25230 29210
" />
<path d="M25440 28990
L25150 29280
" />
<path d="M26010 28970
L25580 29610
" />
<path d="M26180 29490
L26180 28990
L26370 28990
L26420 29020
L26440 29040
L26460 29090
L26460 29160
L26440 29210
L26420 29230
L26370 29250
L26180 29250
" />
<path d="M26650 29350
L26890 29350
" />
<path d="M26610 29490
L26770 28990
L26940 29490
" />
<path d="M26990 29540
L27370 29540
" />
<path d="M27490 29230
L27650 29230
" />
<path d="M27730 29490
L27490 29490
L27490 28990
L27730 28990
" />
<path d="M27940 29490
L27940 28990
" />
<path d="M28180 29490
L28180 28990
L28460 29490
L28460 28990
" />
<path d="M28630 28990
L28920 28990
" />
<path d="M28770 29490
L28770 28990
" />
<path d="M29340 29490
L29060 29490
" />
<path d="M29200 29490
L29200 28990
L29150 29060
L29110 29110
L29060 29130
" />
<path d="M29630 29210
L29580 29180
L29560 29160
L29530 29110
L29530 29090
L29560 29040
L29580 29020
L29630 28990
L29730 28990
L29770 29020
L29800 29040
L29820 29090
L29820 29110
L29800 29160
L29770 29180
L29730 29210
L29630 29210
L29580 29230
L29560 29250
L29530 29300
L29530 29400
L29560 29440
L29580 29470
L29630 29490
L29730 29490
L29770 29470
L29800 29440
L29820 29400
L29820 29300
L29800 29250
L29770 29230
L29730 29210
" />
<path d="M12700 29000
L12940 29000
" />
<path d="M12650 29140
L12820 28640
L12990 29140
" />
<path d="M13410 29140
L13130 29140
" />
<path d="M13270 29140
L13270 28640
L13220 28710
L13180 28760
L13130 28780
" />
<path d="M13700 28860
L13650 28830
L13630 28810
L13600 28760
L13600 28740
L13630 28690
L13650 28670
L13700 28640
L13800 28640
L13840 28670
L13870 28690
L13890 28740
L13890 28760
L13870 28810
L13840 28830
L13800 28860
L13700 28860
L13650 28880
L13630 28900
L13600 28950
L13600 29050
L13630 29090
L13650 29120
L13700 29140
L13800 29140
L13840 29120
L13870 29090
L13890 29050
L13890 28950
L13870 28900
L13840 28880
L13800 28860
" />
<path d="M14300 26270
L12300 26270
" />
<path d="M14840 26490
L14840 25990
L15030 25990
L15080 26020
L15110 26040
L15130 26090
L15130 26160
L15110 26210
L15080 26230
L15030 26250
L14840 26250
" />
<path d="M15320 26350
L15560 26350
" />
<path d="M15270 26490
L15440 25990
L15610 26490
" />
<path d="M16030 26490
L15750 26490
" />
<path d="M15890 26490
L15890 25990
L15840 26060
L15800 26110
L15750 26130
" />
<path d="M16490 25990
L16250 25990
L16230 26230
L16250 26210
L16300 26180
L16420 26180
L16460 26210
L16490 26230
L16510 26280
L16510 26400
L16490 26440
L16460 26470
L16420 26490
L16300 26490
L16250 26470
L16230 26440
" />
<path d="M17080 25970
L16650 26610
" />
<path d="M17230 26470
L17300 26490
L17420 26490
L17460 26470
L17490 26440
L17510 26400
L17510 26350
L17490 26300
L17460 26280
L17420 26250
L17320 26230
L17270 26210
L17250 26180
L17230 26130
L17230 26090
L17250 26040
L17270 26020
L17320 25990
L17440 25990
L17510 26020
" />
<path d="M17730 26490
L17730 25990
L17920 25990
L17960 26020
L17990 26040
L18010 26090
L18010 26160
L17990 26210
L17960 26230
L17920 26250
L17730 26250
" />
<path d="M18230 26490
L18230 25990
" />
<path d="M18730 26490
L18440 26490
" />
<path d="M18580 26490
L18580 25990
L18530 26060
L18490 26110
L18440 26130
" />
<path d="M18820 26540
L19200 26540
" />
<path d="M19320 26490
L19320 25990
L19490 26350
L19650 25990
L19650 26490
" />
<path d="M19990 25990
L20080 25990
L20130 26020
L20180 26060
L20200 26160
L20200 26320
L20180 26420
L20130 26470
L20080 26490
L19990 26490
L19940 26470
L19890 26420
L19870 26320
L19870 26160
L19890 26060
L19940 26020
L19990 25990
" />
<path d="M20390 26470
L20460 26490
L20580 26490
L20630 26470
L20650 26440
L20680 26400
L20680 26350
L20650 26300
L20630 26280
L20580 26250
L20490 26230
L20440 26210
L20420 26180
L20390 26130
L20390 26090
L20420 26040
L20440 26020
L20490 25990
L20610 25990
L20680 26020
" />
<path d="M20890 26490
L20890 25990
" />
<path d="M21490 25970
L21060 26610
" />
<path d="M21650 25990
L21650 26400
L21680 26440
L21700 26470
L21750 26490
L21840 26490
L21890 26470
L21920 26440
L21940 26400
L21940 25990
" />
<path d="M22150 26350
L22390 26350
" />
<path d="M22110 26490
L22270 25990
L22440 26490
" />
<path d="M22890 26490
L22730 26250
" />
<path d="M22610 26490
L22610 25990
L22800 25990
L22840 26020
L22870 26040
L22890 26090
L22890 26160
L22870 26210
L22840 26230
L22800 26250
L22610 26250
" />
<path d="M23030 25990
L23320 25990
" />
<path d="M23180 26490
L23180 25990
" />
<path d="M23440 25990
L23750 25990
L23580 26180
L23650 26180
L23700 26210
L23730 26230
L23750 26280
L23750 26400
L23730 26440
L23700 26470
L23650 26490
L23510 26490
L23460 26470
L23440 26440
" />
<path d="M23840 26540
L24230 26540
" />
<path d="M24630 26490
L24460 26250
" />
<path d="M24340 26490
L24340 25990
L24530 25990
L24580 26020
L24610 26040
L24630 26090
L24630 26160
L24610 26210
L24580 26230
L24530 26250
L24340 26250
" />
<path d="M24770 25990
L25060 25990
" />
<path d="M24920 26490
L24920 25990
" />
<path d="M25200 26470
L25270 26490
L25390 26490
L25440 26470
L25460 26440
L25490 26400
L25490 26350
L25460 26300
L25440 26280
L25390 26250
L25300 26230
L25250 26210
L25230 26180
L25200 26130
L25200 26090
L25230 26040
L25250 26020
L25300 25990
L25420 25990
L25490 26020
" />
<path d="M26060 25970
L25630 26610
" />
<path d="M26230 26490
L26230 25990
L26420 25990
L26460 26020
L26490 26040
L26510 26090
L26510 26160
L26490 26210
L26460 26230
L26420 26250
L26230 26250
" />
<path d="M26700 26350
L26940 26350
" />
<path d="M26650 26490
L26820 25990
L26990 26490
" />
<path d="M27030 26540
L27420 26540
" />
<path d="M27530 26230
L27700 26230
" />
<path d="M27770 26490
L27530 26490
L27530 25990
L27770 25990
" />
<path d="M27990 26490
L27990 25990
" />
<path d="M28230 26490
L28230 25990
L28510 26490
L28510 25990
" />
<path d="M28680 25990
L28960 25990
" />
<path d="M28820 26490
L28820 25990
" />
<path d="M29390 26490
L29110 26490
" />
<path d="M29250 26490
L29250 25990
L29200 26060
L29150 26110
L29110 26130
" />
<path d="M29840 25990
L29610 25990
L29580 26230
L29610 26210
L29650 26180
L29770 26180
L29820 26210
L29840 26230
L29870 26280
L29870 26400
L29840 26440
L29820 26470
L29770 26490
L29650 26490
L29610 26470
L29580 26440
" />
<path d="M12700 26000
L12940 26000
" />
<path d="M12650 26140
L12820 25640
L12990 26140
" />
<path d="M13410 26140
L13130 26140
" />
<path d="M13270 26140
L13270 25640
L13220 25710
L13180 25760
L13130 25780
" />
<path d="M13650 26140
L13750 26140
L13800 26120
L13820 26090
L13870 26020
L13890 25930
L13890 25740
L13870 25690
L13840 25670
L13800 25640
L13700 25640
L13650 25670
L13630 25690
L13600 25740
L13600 25860
L13630 25900
L13650 25930
L13700 25950
L13800 25950
L13840 25930
L13870 25900
L13890 25860
" />
<path d="M21300 36270
L21300 38270
" />
<path d="M21050 35450
L21020 35500
L21020 35570
L21050 35640
L21090 35690
L21140 35720
L21240 35740
L21310 35740
L21400 35720
L21450 35690
L21500 35640
L21520 35570
L21520 35530
L21500 35450
L21470 35430
L21310 35430
L21310 35530
" />
<path d="M21520 35220
L21020 35220
L21520 34930
L21020 34930
" />
<path d="M21520 34690
L21020 34690
L21020 34570
L21050 34500
L21090 34450
L21140 34430
L21240 34410
L21310 34410
L21400 34430
L21450 34450
L21500 34500
L21520 34570
L21520 34690
" />
<path d="M21030 37860
L21030 37620
" />
<path d="M21170 37910
L20670 37740
L21170 37570
" />
<path d="M20720 37430
L20700 37410
L20670 37360
L20670 37240
L20700 37190
L20720 37170
L20770 37150
L20810 37150
L20890 37170
L21170 37460
L21170 37150
" />
<path d="M20670 36840
L20670 36790
L20700 36740
L20720 36720
L20770 36690
L20860 36670
L20980 36670
L21080 36690
L21120 36720
L21150 36740
L21170 36790
L21170 36840
L21150 36880
L21120 36910
L21080 36930
L20980 36960
L20860 36960
L20770 36930
L20720 36910
L20700 36880
L20670 36840
" />
<path d="M14300 27270
L12300 27270
" />
<path d="M14840 27490
L14840 26990
L15030 26990
L15080 27020
L15110 27040
L15130 27090
L15130 27160
L15110 27210
L15080 27230
L15030 27250
L14840 27250
" />
<path d="M15320 27350
L15560 27350
" />
<path d="M15270 27490
L15440 26990
L15610 27490
" />
<path d="M16030 27490
L15750 27490
" />
<path d="M15890 27490
L15890 26990
L15840 27060
L15800 27110
L15750 27130
" />
<path d="M16460 26990
L16370 26990
L16320 27020
L16300 27040
L16250 27110
L16230 27210
L16230 27400
L16250 27440
L16270 27470
L16320 27490
L16420 27490
L16460 27470
L16490 27440
L16510 27400
L16510 27280
L16490 27230
L16460 27210
L16420 27180
L16320 27180
L16270 27210
L16250 27230
L16230 27280
" />
<path d="M17080 26970
L16650 27610
" />
<path d="M17230 27470
L17300 27490
L17420 27490
L17460 27470
L17490 27440
L17510 27400
L17510 27350
L17490 27300
L17460 27280
L17420 27250
L17320 27230
L17270 27210
L17250 27180
L17230 27130
L17230 27090
L17250 27040
L17270 27020
L17320 26990
L17440 26990
L17510 27020
" />
<path d="M17730 27490
L17730 26990
L17920 26990
L17960 27020
L17990 27040
L18010 27090
L18010 27160
L17990 27210
L17960 27230
L17920 27250
L17730 27250
" />
<path d="M18230 27490
L18230 26990
" />
<path d="M18730 27490
L18440 27490
" />
<path d="M18580 27490
L18580 26990
L18530 27060
L18490 27110
L18440 27130
" />
<path d="M18820 27540
L19200 27540
" />
<path d="M19320 27490
L19320 26990
L19490 27350
L19650 26990
L19650 27490
" />
<path d="M19890 27490
L19890 26990
" />
<path d="M20110 27470
L20180 27490
L20300 27490
L20340 27470
L20370 27440
L20390 27400
L20390 27350
L20370 27300
L20340 27280
L20300 27250
L20200 27230
L20150 27210
L20130 27180
L20110 27130
L20110 27090
L20130 27040
L20150 27020
L20200 26990
L20320 26990
L20390 27020
" />
<path d="M20700 26990
L20800 26990
L20840 27020
L20890 27060
L20920 27160
L20920 27320
L20890 27420
L20840 27470
L20800 27490
L20700 27490
L20650 27470
L20610 27420
L20580 27320
L20580 27160
L20610 27060
L20650 27020
L20700 26990
" />
<path d="M21490 26970
L21060 27610
" />
<path d="M21650 26990
L21650 27400
L21680 27440
L21700 27470
L21750 27490
L21840 27490
L21890 27470
L21920 27440
L21940 27400
L21940 26990
" />
<path d="M22150 27350
L22390 27350
" />
<path d="M22110 27490
L22270 26990
L22440 27490
" />
<path d="M22890 27490
L22730 27250
" />
<path d="M22610 27490
L22610 26990
L22800 26990
L22840 27020
L22870 27040
L22890 27090
L22890 27160
L22870 27210
L22840 27230
L22800 27250
L22610 27250
" />
<path d="M23030 26990
L23320 26990
" />
<path d="M23180 27490
L23180 26990
" />
<path d="M23440 26990
L23750 26990
L23580 27180
L23650 27180
L23700 27210
L23730 27230
L23750 27280
L23750 27400
L23730 27440
L23700 27470
L23650 27490
L23510 27490
L23460 27470
L23440 27440
" />
<path d="M23840 27540
L24230 27540
" />
<path d="M24630 27440
L24610 27470
L24530 27490
L24490 27490
L24420 27470
L24370 27420
L24340 27370
L24320 27280
L24320 27210
L24340 27110
L24370 27060
L24420 27020
L24490 26990
L24530 26990
L24610 27020
L24630 27040
" />
<path d="M24770 26990
L25060 26990
" />
<path d="M24920 27490
L24920 26990
" />
<path d="M25200 27470
L25270 27490
L25390 27490
L25440 27470
L25460 27440
L25490 27400
L25490 27350
L25460 27300
L25440 27280
L25390 27250
L25300 27230
L25250 27210
L25230 27180
L25200 27130
L25200 27090
L25230 27040
L25250 27020
L25300 26990
L25420 26990
L25490 27020
" />
<path d="M26060 26970
L25630 27610
" />
<path d="M26230 27490
L26230 26990
L26420 26990
L26460 27020
L26490 27040
L26510 27090
L26510 27160
L26490 27210
L26460 27230
L26420 27250
L26230 27250
" />
<path d="M26700 27350
L26940 27350
" />
<path d="M26650 27490
L26820 26990
L26990 27490
" />
<path d="M27030 27540
L27420 27540
" />
<path d="M27530 27230
L27700 27230
" />
<path d="M27770 27490
L27530 27490
L27530 26990
L27770 26990
" />
<path d="M27990 27490
L27990 26990
" />
<path d="M28230 27490
L28230 26990
L28510 27490
L28510 26990
" />
<path d="M28680 26990
L28960 26990
" />
<path d="M28820 27490
L28820 26990
" />
<path d="M29390 27490
L29110 27490
" />
<path d="M29250 27490
L29250 26990
L29200 27060
L29150 27110
L29110 27130
" />
<path d="M29820 26990
L29730 26990
L29680 27020
L29650 27040
L29610 27110
L29580 27210
L29580 27400
L29610 27440
L29630 27470
L29680 27490
L29770 27490
L29820 27470
L29840 27440
L29870 27400
L29870 27280
L29840 27230
L29820 27210
L29770 27180
L29680 27180
L29630 27210
L29610 27230
L29580 27280
" />
<path d="M12700 27000
L12940 27000
" />
<path d="M12650 27140
L12820 26640
L12990 27140
" />
<path d="M13130 26690
L13150 26670
L13200 26640
L13320 26640
L13370 26670
L13390 26690
L13410 26740
L13410 26780
L13390 26860
L13100 27140
L13410 27140
" />
<path d="M13890 27140
L13600 27140
" />
<path d="M13750 27140
L13750 26640
L13700 26710
L13650 26760
L13600 26780
" />
<path d="M14300 15270
L12300 15270
" />
<path d="M14840 15490
L14840 14990
L15030 14990
L15080 15020
L15110 15040
L15130 15090
L15130 15160
L15110 15210
L15080 15230
L15030 15250
L14840 15250
" />
<path d="M15320 15350
L15560 15350
" />
<path d="M15270 15490
L15440 14990
L15610 15490
" />
<path d="M15750 15040
L15770 15020
L15820 14990
L15940 14990
L15990 15020
L16010 15040
L16030 15090
L16030 15130
L16010 15210
L15730 15490
L16030 15490
" />
<path d="M16610 14970
L16180 15610
" />
<path d="M16770 14990
L16770 15400
L16800 15440
L16820 15470
L16870 15490
L16960 15490
L17010 15470
L17030 15440
L17060 15400
L17060 14990
" />
<path d="M17270 15350
L17510 15350
" />
<path d="M17230 15490
L17390 14990
L17560 15490
" />
<path d="M18010 15490
L17840 15250
" />
<path d="M17730 15490
L17730 14990
L17920 14990
L17960 15020
L17990 15040
L18010 15090
L18010 15160
L17990 15210
L17960 15230
L17920 15250
L17730 15250
" />
<path d="M18150 14990
L18440 14990
" />
<path d="M18300 15490
L18300 14990
" />
<path d="M18580 15040
L18610 15020
L18650 14990
L18770 14990
L18820 15020
L18840 15040
L18870 15090
L18870 15130
L18840 15210
L18560 15490
L18870 15490
" />
<path d="M18960 15540
L19340 15540
" />
<path d="M19750 15490
L19580 15250
" />
<path d="M19460 15490
L19460 14990
L19650 14990
L19700 15020
L19730 15040
L19750 15090
L19750 15160
L19730 15210
L19700 15230
L19650 15250
L19460 15250
" />
<path d="M19890 14990
L20180 14990
" />
<path d="M20030 15490
L20030 14990
" />
<path d="M20320 15470
L20390 15490
L20510 15490
L20560 15470
L20580 15440
L20610 15400
L20610 15350
L20580 15300
L20560 15280
L20510 15250
L20420 15230
L20370 15210
L20340 15180
L20320 15130
L20320 15090
L20340 15040
L20370 15020
L20420 14990
L20530 14990
L20610 15020
" />
<path d="M21180 14970
L20750 15610
" />
<path d="M21490 14990
L21490 15350
L21460 15420
L21420 15470
L21340 15490
L21300 15490
" />
<path d="M21650 14990
L21940 14990
" />
<path d="M21800 15490
L21800 14990
" />
<path d="M22080 15350
L22320 15350
" />
<path d="M22030 15490
L22200 14990
L22370 15490
" />
<path d="M22800 15020
L22750 14990
L22680 14990
L22610 15020
L22560 15060
L22530 15110
L22510 15210
L22510 15280
L22530 15370
L22560 15420
L22610 15470
L22680 15490
L22730 15490
L22800 15470
L22820 15440
L22820 15280
L22730 15280
" />
<path d="M22920 15540
L23300 15540
" />
<path d="M23420 15490
L23420 14990
L23530 14990
L23610 15020
L23650 15060
L23680 15110
L23700 15210
L23700 15280
L23680 15370
L23650 15420
L23610 15470
L23530 15490
L23420 15490
" />
<path d="M24010 14990
L24110 14990
L24150 15020
L24200 15060
L24230 15160
L24230 15320
L24200 15420
L24150 15470
L24110 15490
L24010 15490
L23960 15470
L23920 15420
L23890 15320
L23890 15160
L23920 15060
L23960 15020
L24010 14990
" />
<path d="M24800 14970
L24370 15610
" />
<path d="M24960 15490
L24960 14990
L25150 14990
L25200 15020
L25230 15040
L25250 15090
L25250 15160
L25230 15210
L25200 15230
L25150 15250
L24960 15250
" />
<path d="M25440 15350
L25680 15350
" />
<path d="M25390 15490
L25560 14990
L25730 15490
" />
<path d="M25770 15540
L26150 15540
" />
<path d="M26270 15230
L26440 15230
" />
<path d="M26510 15490
L26270 15490
L26270 14990
L26510 14990
" />
<path d="M26730 15490
L26730 14990
" />
<path d="M26960 15490
L26960 14990
L27250 15490
L27250 14990
" />
<path d="M27420 14990
L27700 14990
" />
<path d="M27560 15490
L27560 14990
" />
<path d="M27840 15040
L27870 15020
L27920 14990
L28030 14990
L28080 15020
L28110 15040
L28130 15090
L28130 15130
L28110 15210
L27820 15490
L28130 15490
" />
<path d="M12700 15000
L12940 15000
" />
<path d="M12650 15140
L12820 14640
L12990 15140
" />
<path d="M13130 14690
L13150 14670
L13200 14640
L13320 14640
L13370 14670
L13390 14690
L13410 14740
L13410 14780
L13390 14860
L13100 15140
L13410 15140
" />
<path d="M13600 14690
L13630 14670
L13680 14640
L13800 14640
L13840 14670
L13870 14690
L13890 14740
L13890 14780
L13870 14860
L13580 15140
L13890 15140
" />
<path d="M14300 25270
L12300 25270
" />
<path d="M14840 25490
L14840 24990
L15030 24990
L15080 25020
L15110 25040
L15130 25090
L15130 25160
L15110 25210
L15080 25230
L15030 25250
L14840 25250
" />
<path d="M15320 25350
L15560 25350
" />
<path d="M15270 25490
L15440 24990
L15610 25490
" />
<path d="M16030 25490
L15750 25490
" />
<path d="M15890 25490
L15890 24990
L15840 25060
L15800 25110
L15750 25130
" />
<path d="M16460 25160
L16460 25490
" />
<path d="M16340 24970
L16230 25320
L16530 25320
" />
<path d="M17080 24970
L16650 25610
" />
<path d="M17230 25470
L17300 25490
L17420 25490
L17460 25470
L17490 25440
L17510 25400
L17510 25350
L17490 25300
L17460 25280
L17420 25250
L17320 25230
L17270 25210
L17250 25180
L17230 25130
L17230 25090
L17250 25040
L17270 25020
L17320 24990
L17440 24990
L17510 25020
" />
<path d="M17730 25490
L17730 24990
L17920 24990
L17960 25020
L17990 25040
L18010 25090
L18010 25160
L17990 25210
L17960 25230
L17920 25250
L17730 25250
" />
<path d="M18230 25490
L18230 24990
" />
<path d="M18730 25490
L18440 25490
" />
<path d="M18580 25490
L18580 24990
L18530 25060
L18490 25110
L18440 25130
" />
<path d="M18820 25540
L19200 25540
" />
<path d="M19610 25440
L19580 25470
L19510 25490
L19460 25490
L19390 25470
L19340 25420
L19320 25370
L19300 25280
L19300 25210
L19320 25110
L19340 25060
L19390 25020
L19460 24990
L19510 24990
L19580 25020
L19610 25040
" />
<path d="M20060 25490
L19820 25490
L19820 24990
" />
<path d="M20230 25490
L20230 24990
" />
<path d="M20510 25490
L20300 25210
" />
<path d="M20510 24990
L20230 25280
" />
<path d="M21080 24970
L20650 25610
" />
<path d="M21250 24990
L21250 25400
L21270 25440
L21300 25470
L21340 25490
L21440 25490
L21490 25470
L21510 25440
L21530 25400
L21530 24990
" />
<path d="M21750 25350
L21990 25350
" />
<path d="M21700 25490
L21870 24990
L22030 25490
" />
<path d="M22490 25490
L22320 25250
" />
<path d="M22200 25490
L22200 24990
L22390 24990
L22440 25020
L22460 25040
L22490 25090
L22490 25160
L22460 25210
L22440 25230
L22390 25250
L22200 25250
" />
<path d="M22630 24990
L22920 24990
" />
<path d="M22770 25490
L22770 24990
" />
<path d="M23030 24990
L23340 24990
L23180 25180
L23250 25180
L23300 25210
L23320 25230
L23340 25280
L23340 25400
L23320 25440
L23300 25470
L23250 25490
L23110 25490
L23060 25470
L23030 25440
" />
<path d="M23440 25540
L23820 25540
" />
<path d="M24230 25490
L24060 25250
" />
<path d="M23940 25490
L23940 24990
L24130 24990
L24180 25020
L24200 25040
L24230 25090
L24230 25160
L24200 25210
L24180 25230
L24130 25250
L23940 25250
" />
<path d="M24390 24990
L24730 25490
" />
<path d="M24730 24990
L24390 25490
" />
<path d="M25270 24970
L24840 25610
" />
<path d="M25440 25490
L25440 24990
L25630 24990
L25680 25020
L25700 25040
L25730 25090
L25730 25160
L25700 25210
L25680 25230
L25630 25250
L25440 25250
" />
<path d="M25920 25350
L26150 25350
" />
<path d="M25870 25490
L26030 24990
L26200 25490
" />
<path d="M26250 25540
L26630 25540
" />
<path d="M26750 25230
L26920 25230
" />
<path d="M26990 25490
L26750 25490
L26750 24990
L26990 24990
" />
<path d="M27200 25490
L27200 24990
" />
<path d="M27440 25490
L27440 24990
L27730 25490
L27730 24990
" />
<path d="M27890 24990
L28180 24990
" />
<path d="M28030 25490
L28030 24990
" />
<path d="M28610 25490
L28320 25490
" />
<path d="M28460 25490
L28460 24990
L28420 25060
L28370 25110
L28320 25130
" />
<path d="M29030 25160
L29030 25490
" />
<path d="M28920 24970
L28800 25320
L29110 25320
" />
<path d="M12700 25000
L12940 25000
" />
<path d="M12650 25140
L12820 24640
L12990 25140
" />
<path d="M13130 24690
L13150 24670
L13200 24640
L13320 24640
L13370 24670
L13390 24690
L13410 24740
L13410 24780
L13390 24860
L13100 25140
L13410 25140
" />
<path d="M13580 24640
L13890 24640
L13720 24830
L13800 24830
L13840 24860
L13870 24880
L13890 24930
L13890 25050
L13870 25090
L13840 25120
L13800 25140
L13650 25140
L13600 25120
L13580 25090
" />
<path d="M14300 24270
L12300 24270
" />
<path d="M14840 24490
L14840 23990
L15030 23990
L15080 24020
L15110 24040
L15130 24090
L15130 24160
L15110 24210
L15080 24230
L15030 24250
L14840 24250
" />
<path d="M15320 24350
L15560 24350
" />
<path d="M15270 24490
L15440 23990
L15610 24490
" />
<path d="M16030 24490
L15750 24490
" />
<path d="M15890 24490
L15890 23990
L15840 24060
L15800 24110
L15750 24130
" />
<path d="M16200 23990
L16510 23990
L16340 24180
L16420 24180
L16460 24210
L16490 24230
L16510 24280
L16510 24400
L16490 24440
L16460 24470
L16420 24490
L16270 24490
L16230 24470
L16200 24440
" />
<path d="M17080 23970
L16650 24610
" />
<path d="M17230 24470
L17300 24490
L17420 24490
L17460 24470
L17490 24440
L17510 24400
L17510 24350
L17490 24300
L17460 24280
L17420 24250
L17320 24230
L17270 24210
L17250 24180
L17230 24130
L17230 24090
L17250 24040
L17270 24020
L17320 23990
L17440 23990
L17510 24020
" />
<path d="M17730 24490
L17730 23990
L17920 23990
L17960 24020
L17990 24040
L18010 24090
L18010 24160
L17990 24210
L17960 24230
L17920 24250
L17730 24250
" />
<path d="M18230 24490
L18230 23990
" />
<path d="M18730 24490
L18440 24490
" />
<path d="M18580 24490
L18580 23990
L18530 24060
L18490 24110
L18440 24130
" />
<path d="M18820 24540
L19200 24540
" />
<path d="M19610 24440
L19580 24470
L19510 24490
L19460 24490
L19390 24470
L19340 24420
L19320 24370
L19300 24280
L19300 24210
L19320 24110
L19340 24060
L19390 24020
L19460 23990
L19510 23990
L19580 24020
L19610 24040
" />
<path d="M19800 24470
L19870 24490
L19990 24490
L20030 24470
L20060 24440
L20080 24400
L20080 24350
L20060 24300
L20030 24280
L19990 24250
L19890 24230
L19840 24210
L19820 24180
L19800 24130
L19800 24090
L19820 24040
L19840 24020
L19890 23990
L20010 23990
L20080 24020
" />
<path d="M20650 23970
L20230 24610
" />
<path d="M20820 23990
L20820 24400
L20840 24440
L20870 24470
L20920 24490
L21010 24490
L21060 24470
L21080 24440
L21110 24400
L21110 23990
" />
<path d="M21320 24350
L21560 24350
" />
<path d="M21270 24490
L21440 23990
L21610 24490
" />
<path d="M22060 24490
L21890 24250
" />
<path d="M21770 24490
L21770 23990
L21960 23990
L22010 24020
L22030 24040
L22060 24090
L22060 24160
L22030 24210
L22010 24230
L21960 24250
L21770 24250
" />
<path d="M22200 23990
L22490 23990
" />
<path d="M22340 24490
L22340 23990
" />
<path d="M22610 23990
L22920 23990
L22750 24180
L22820 24180
L22870 24210
L22890 24230
L22920 24280
L22920 24400
L22890 24440
L22870 24470
L22820 24490
L22680 24490
L22630 24470
L22610 24440
" />
<path d="M23010 24540
L23390 24540
" />
<path d="M23440 23990
L23730 23990
" />
<path d="M23580 24490
L23580 23990
" />
<path d="M23840 23990
L24180 24490
" />
<path d="M24180 23990
L23840 24490
" />
<path d="M24730 23970
L24300 24610
" />
<path d="M24890 24490
L24890 23990
L25080 23990
L25130 24020
L25150 24040
L25180 24090
L25180 24160
L25150 24210
L25130 24230
L25080 24250
L24890 24250
" />
<path d="M25370 24350
L25610 24350
" />
<path d="M25320 24490
L25490 23990
L25650 24490
" />
<path d="M25700 24540
L26080 24540
" />
<path d="M26200 24230
L26370 24230
" />
<path d="M26440 24490
L26200 24490
L26200 23990
L26440 23990
" />
<path d="M26650 24490
L26650 23990
" />
<path d="M26890 24490
L26890 23990
L27180 24490
L27180 23990
" />
<path d="M27340 23990
L27630 23990
" />
<path d="M27490 24490
L27490 23990
" />
<path d="M28060 24490
L27770 24490
" />
<path d="M27920 24490
L27920 23990
L27870 24060
L27820 24110
L27770 24130
" />
<path d="M28230 23990
L28530 23990
L28370 24180
L28440 24180
L28490 24210
L28510 24230
L28530 24280
L28530 24400
L28510 24440
L28490 24470
L28440 24490
L28300 24490
L28250 24470
L28230 24440
" />
<path d="M12700 24000
L12940 24000
" />
<path d="M12650 24140
L12820 23640
L12990 24140
" />
<path d="M13130 23690
L13150 23670
L13200 23640
L13320 23640
L13370 23670
L13390 23690
L13410 23740
L13410 23780
L13390 23860
L13100 24140
L13410 24140
" />
<path d="M13840 23810
L13840 24140
" />
<path d="M13720 23620
L13600 23970
L13910 23970
" />
<path d="M22300 36270
L22300 38270
" />
<path d="M22050 35450
L22020 35500
L22020 35570
L22050 35640
L22090 35690
L22140 35720
L22240 35740
L22310 35740
L22400 35720
L22450 35690
L22500 35640
L22520 35570
L22520 35530
L22500 35450
L22470 35430
L22310 35430
L22310 35530
" />
<path d="M22520 35220
L22020 35220
L22520 34930
L22020 34930
" />
<path d="M22520 34690
L22020 34690
L22020 34570
L22050 34500
L22090 34450
L22140 34430
L22240 34410
L22310 34410
L22400 34430
L22450 34450
L22500 34500
L22520 34570
L22520 34690
" />
<path d="M22030 37860
L22030 37620
" />
<path d="M22170 37910
L21670 37740
L22170 37570
" />
<path d="M21720 37430
L21700 37410
L21670 37360
L21670 37240
L21700 37190
L21720 37170
L21770 37150
L21810 37150
L21890 37170
L22170 37460
L22170 37150
" />
<path d="M21670 36690
L21670 36930
L21910 36960
L21890 36930
L21860 36880
L21860 36770
L21890 36720
L21910 36690
L21960 36670
L22080 36670
L22120 36690
L22150 36720
L22170 36770
L22170 36880
L22150 36930
L22120 36960
" />
<path d="M14300 21270
L12300 21270
" />
<path d="M14840 21490
L14840 20990
L15030 20990
L15080 21020
L15110 21040
L15130 21090
L15130 21160
L15110 21210
L15080 21230
L15030 21250
L14840 21250
" />
<path d="M15320 21350
L15560 21350
" />
<path d="M15270 21490
L15440 20990
L15610 21490
" />
<path d="M16030 21490
L15750 21490
" />
<path d="M15890 21490
L15890 20990
L15840 21060
L15800 21110
L15750 21130
" />
<path d="M16340 20990
L16390 20990
L16440 21020
L16460 21040
L16490 21090
L16510 21180
L16510 21300
L16490 21400
L16460 21440
L16440 21470
L16390 21490
L16340 21490
L16300 21470
L16270 21440
L16250 21400
L16230 21300
L16230 21180
L16250 21090
L16270 21040
L16300 21020
L16340 20990
" />
<path d="M17080 20970
L16650 21610
" />
<path d="M17230 21470
L17300 21490
L17420 21490
L17460 21470
L17490 21440
L17510 21400
L17510 21350
L17490 21300
L17460 21280
L17420 21250
L17320 21230
L17270 21210
L17250 21180
L17230 21130
L17230 21090
L17250 21040
L17270 21020
L17320 20990
L17440 20990
L17510 21020
" />
<path d="M17730 21490
L17730 20990
" />
<path d="M17960 21490
L17960 20990
L18130 21350
L18300 20990
L18300 21490
" />
<path d="M18420 21540
L18800 21540
" />
<path d="M18920 21490
L18920 20990
L19030 20990
L19110 21020
L19150 21060
L19180 21110
L19200 21210
L19200 21280
L19180 21370
L19150 21420
L19110 21470
L19030 21490
L18920 21490
" />
<path d="M19420 21230
L19580 21230
" />
<path d="M19650 21490
L19420 21490
L19420 20990
L19650 20990
" />
<path d="M19800 20990
L20080 20990
" />
<path d="M19940 21490
L19940 20990
" />
<path d="M20610 20970
L20180 21610
" />
<path d="M20770 21490
L20770 20990
L20960 20990
L21010 21020
L21030 21040
L21060 21090
L21060 21160
L21030 21210
L21010 21230
L20960 21250
L20770 21250
" />
<path d="M21250 21350
L21490 21350
" />
<path d="M21200 21490
L21370 20990
L21530 21490
" />
<path d="M21580 21540
L21960 21540
" />
<path d="M22080 21230
L22250 21230
" />
<path d="M22320 21490
L22080 21490
L22080 20990
L22320 20990
" />
<path d="M22530 21490
L22530 20990
" />
<path d="M22770 21490
L22770 20990
L23060 21490
L23060 20990
" />
<path d="M23230 20990
L23510 20990
" />
<path d="M23370 21490
L23370 20990
" />
<path d="M23940 21490
L23650 21490
" />
<path d="M23800 21490
L23800 20990
L23750 21060
L23700 21110
L23650 21130
" />
<path d="M24250 20990
L24300 20990
L24340 21020
L24370 21040
L24390 21090
L24420 21180
L24420 21300
L24390 21400
L24370 21440
L24340 21470
L24300 21490
L24250 21490
L24200 21470
L24180 21440
L24150 21400
L24130 21300
L24130 21180
L24150 21090
L24180 21040
L24200 21020
L24250 20990
" />
<path d="M12700 21000
L12940 21000
" />
<path d="M12650 21140
L12820 20640
L12990 21140
" />
<path d="M13130 20690
L13150 20670
L13200 20640
L13320 20640
L13370 20670
L13390 20690
L13410 20740
L13410 20780
L13390 20860
L13100 21140
L13410 21140
" />
<path d="M13840 20640
L13750 20640
L13700 20670
L13680 20690
L13630 20760
L13600 20860
L13600 21050
L13630 21090
L13650 21120
L13700 21140
L13800 21140
L13840 21120
L13870 21090
L13890 21050
L13890 20930
L13870 20880
L13840 20860
L13800 20830
L13700 20830
L13650 20860
L13630 20880
L13600 20930
" />
<path d="M23300 36270
L23300 38270
" />
<path d="M23050 35450
L23020 35500
L23020 35570
L23050 35640
L23090 35690
L23140 35720
L23240 35740
L23310 35740
L23400 35720
L23450 35690
L23500 35640
L23520 35570
L23520 35530
L23500 35450
L23470 35430
L23310 35430
L23310 35530
" />
<path d="M23520 35220
L23020 35220
L23520 34930
L23020 34930
" />
<path d="M23520 34690
L23020 34690
L23020 34570
L23050 34500
L23090 34450
L23140 34430
L23240 34410
L23310 34410
L23400 34430
L23450 34450
L23500 34500
L23520 34570
L23520 34690
" />
<path d="M23170 37630
L22670 37630
L22670 37520
L22700 37440
L22740 37400
L22790 37370
L22890 37350
L22960 37350
L23050 37370
L23100 37400
L23150 37440
L23170 37520
L23170 37630
" />
<path d="M23170 36870
L23170 37160
" />
<path d="M23170 37020
L22670 37020
L22740 37060
L22790 37110
L22810 37160
" />
<path d="M24300 36270
L24300 38270
" />
<path d="M24050 35450
L24020 35500
L24020 35570
L24050 35640
L24090 35690
L24140 35720
L24240 35740
L24310 35740
L24400 35720
L24450 35690
L24500 35640
L24520 35570
L24520 35530
L24500 35450
L24470 35430
L24310 35430
L24310 35530
" />
<path d="M24520 35220
L24020 35220
L24520 34930
L24020 34930
" />
<path d="M24520 34690
L24020 34690
L24020 34570
L24050 34500
L24090 34450
L24140 34430
L24240 34410
L24310 34410
L24400 34430
L24450 34450
L24500 34500
L24520 34570
L24520 34690
" />
<path d="M24170 37630
L23670 37630
L23670 37520
L23700 37440
L23740 37400
L23790 37370
L23890 37350
L23960 37350
L24050 37370
L24100 37400
L24150 37440
L24170 37520
L24170 37630
" />
<path d="M23720 37160
L23700 37130
L23670 37090
L23670 36970
L23700 36920
L23720 36900
L23770 36870
L23810 36870
L23890 36900
L24170 37180
L24170 36870
" />
<path d="M25300 36270
L25300 38270
" />
<path d="M25050 35450
L25020 35500
L25020 35570
L25050 35640
L25090 35690
L25140 35720
L25240 35740
L25310 35740
L25400 35720
L25450 35690
L25500 35640
L25520 35570
L25520 35530
L25500 35450
L25470 35430
L25310 35430
L25310 35530
" />
<path d="M25520 35220
L25020 35220
L25520 34930
L25020 34930
" />
<path d="M25520 34690
L25020 34690
L25020 34570
L25050 34500
L25090 34450
L25140 34430
L25240 34410
L25310 34410
L25400 34430
L25450 34450
L25500 34500
L25520 34570
L25520 34690
" />
<path d="M25170 37630
L24670 37630
L24670 37520
L24700 37440
L24740 37400
L24790 37370
L24890 37350
L24960 37350
L25050 37370
L25100 37400
L25150 37440
L25170 37520
L25170 37630
" />
<path d="M24670 37180
L24670 36870
L24860 37040
L24860 36970
L24890 36920
L24910 36900
L24960 36870
L25080 36870
L25120 36900
L25150 36920
L25170 36970
L25170 37110
L25150 37160
L25120 37180
" />
<path d="M26300 36270
L26300 38270
" />
<path d="M26050 35450
L26020 35500
L26020 35570
L26050 35640
L26090 35690
L26140 35720
L26240 35740
L26310 35740
L26400 35720
L26450 35690
L26500 35640
L26520 35570
L26520 35530
L26500 35450
L26470 35430
L26310 35430
L26310 35530
" />
<path d="M26520 35220
L26020 35220
L26520 34930
L26020 34930
" />
<path d="M26520 34690
L26020 34690
L26020 34570
L26050 34500
L26090 34450
L26140 34430
L26240 34410
L26310 34410
L26400 34430
L26450 34450
L26500 34500
L26520 34570
L26520 34690
" />
<path d="M26170 37630
L25670 37630
L25670 37520
L25700 37440
L25740 37400
L25790 37370
L25890 37350
L25960 37350
L26050 37370
L26100 37400
L26150 37440
L26170 37520
L26170 37630
" />
<path d="M25840 36920
L26170 36920
" />
<path d="M25650 37040
L26000 37160
L26000 36850
" />
<path d="M30300 270
L31300 270
" />
<path d="M27750 0
L27510 0
L27480 230
L27510 210
L27560 180
L27670 180
L27720 210
L27750 230
L27770 280
L27770 400
L27750 440
L27720 470
L27670 490
L27560 490
L27510 470
L27480 440
" />
<path d="M27910 0
L28080 490
L28250 0
" />
<path d="M28290 540
L28670 540
" />
<path d="M28870 490
L28820 470
L28790 440
L28770 400
L28770 250
L28790 210
L28820 180
L28870 160
L28940 160
L28980 180
L29010 210
L29030 250
L29030 400
L29010 440
L28980 470
L28940 490
L28870 490
" />
<path d="M29460 160
L29460 490
" />
<path d="M29250 160
L29250 420
L29270 470
L29320 490
L29390 490
L29440 470
L29460 440
" />
<path d="M29630 160
L29820 160
" />
<path d="M29700 0
L29700 420
L29720 470
L29770 490
L29820 490
" />
<path d="M30410 -350
L30410 50
L30440 90
L30460 120
L30510 140
L30600 140
L30650 120
L30680 90
L30700 50
L30700 -350
" />
<path d="M31200 140
L30910 140
" />
<path d="M31060 140
L31060 -350
L31010 -280
L30960 -230
L30910 -210
" />
<path d="M30300 1270
L31300 1270
" />
<path d="M28980 990
L28980 1400
L29010 1440
L29030 1470
L29080 1490
L29170 1490
L29220 1470
L29250 1440
L29270 1400
L29270 990
" />
<path d="M29480 1040
L29510 1020
L29560 990
L29670 990
L29720 1020
L29750 1040
L29770 1090
L29770 1130
L29750 1210
L29460 1490
L29770 1490
" />
<path d="M30410 640
L30410 1050
L30440 1090
L30460 1120
L30510 1140
L30600 1140
L30650 1120
L30680 1090
L30700 1050
L30700 640
" />
<path d="M30910 690
L30940 670
L30990 640
L31100 640
L31150 670
L31180 690
L31200 740
L31200 780
L31180 860
L30890 1140
L31200 1140
" />
<path d="M30300 2270
L31300 2270
" />
<path d="M28980 1990
L28980 2400
L29010 2440
L29030 2470
L29080 2490
L29170 2490
L29220 2470
L29250 2440
L29270 2400
L29270 1990
" />
<path d="M29460 1990
L29770 1990
L29600 2180
L29670 2180
L29720 2210
L29750 2230
L29770 2280
L29770 2400
L29750 2440
L29720 2470
L29670 2490
L29530 2490
L29480 2470
L29460 2440
" />
<path d="M30410 1640
L30410 2050
L30440 2090
L30460 2120
L30510 2140
L30600 2140
L30650 2120
L30680 2090
L30700 2050
L30700 1640
" />
<path d="M30890 1640
L31200 1640
L31030 1830
L31100 1830
L31150 1860
L31180 1880
L31200 1930
L31200 2050
L31180 2090
L31150 2120
L31100 2140
L30960 2140
L30910 2120
L30890 2090
" />
<path d="M30300 3270
L31300 3270
" />
<path d="M27200 2990
L27200 3400
L27220 3440
L27250 3470
L27290 3490
L27390 3490
L27440 3470
L27460 3440
L27480 3400
L27480 2990
" />
<path d="M27940 3160
L27940 3490
" />
<path d="M27820 2970
L27700 3320
L28010 3320
" />
<path d="M28080 3540
L28460 3540
" />
<path d="M28840 3020
L28790 2990
L28720 2990
L28650 3020
L28600 3060
L28580 3110
L28560 3210
L28560 3280
L28580 3370
L28600 3420
L28650 3470
L28720 3490
L28770 3490
L28840 3470
L28870 3440
L28870 3280
L28770 3280
" />
<path d="M29080 3160
L29080 3490
" />
<path d="M29080 3210
L29100 3180
L29150 3160
L29220 3160
L29270 3180
L29290 3230
L29290 3490
" />
<path d="M29750 3490
L29750 2990
" />
<path d="M29750 3470
L29700 3490
L29600 3490
L29560 3470
L29530 3440
L29510 3400
L29510 3250
L29530 3210
L29560 3180
L29600 3160
L29700 3160
L29750 3180
" />
<path d="M30410 2640
L30410 3050
L30440 3090
L30460 3120
L30510 3140
L30600 3140
L30650 3120
L30680 3090
L30700 3050
L30700 2640
" />
<path d="M31150 2810
L31150 3140
" />
<path d="M31030 2620
L30910 2970
L31220 2970
" />
<path d="M36800 13270
L37800 13270
" />
<path d="M35560 13230
L35720 13230
" />
<path d="M35790 13490
L35560 13490
L35560 12990
L35790 12990
" />
<path d="M36270 13490
L35980 13490
" />
<path d="M36130 13490
L36130 12990
L36080 13060
L36030 13110
L35980 13130
" />
<path d="M36950 12880
L37120 12880
" />
<path d="M37190 13140
L36950 13140
L36950 12640
L37190 12640
" />
<path d="M37660 13140
L37380 13140
" />
<path d="M37520 13140
L37520 12640
L37470 12710
L37430 12760
L37380 12780
" />
<path d="M36800 14270
L37800 14270
" />
<path d="M35560 14230
L35720 14230
" />
<path d="M35790 14490
L35560 14490
L35560 13990
L35790 13990
" />
<path d="M35980 14040
L36010 14020
L36060 13990
L36170 13990
L36220 14020
L36250 14040
L36270 14090
L36270 14130
L36250 14210
L35960 14490
L36270 14490
" />
<path d="M36950 13880
L37120 13880
" />
<path d="M37190 14140
L36950 14140
L36950 13640
L37190 13640
" />
<path d="M37380 13690
L37400 13670
L37450 13640
L37570 13640
L37620 13670
L37640 13690
L37660 13740
L37660 13780
L37640 13860
L37350 14140
L37660 14140
" />
<path d="M36800 15270
L37800 15270
" />
<path d="M35560 15230
L35720 15230
" />
<path d="M35790 15490
L35560 15490
L35560 14990
L35790 14990
" />
<path d="M35960 14990
L36270 14990
L36100 15180
L36170 15180
L36220 15210
L36250 15230
L36270 15280
L36270 15400
L36250 15440
L36220 15470
L36170 15490
L36030 15490
L35980 15470
L35960 15440
" />
<path d="M36950 14880
L37120 14880
" />
<path d="M37190 15140
L36950 15140
L36950 14640
L37190 14640
" />
<path d="M37350 14640
L37660 14640
L37500 14830
L37570 14830
L37620 14860
L37640 14880
L37660 14930
L37660 15050
L37640 15090
L37620 15120
L37570 15140
L37430 15140
L37380 15120
L37350 15090
" />
<path d="M36800 16270
L37800 16270
" />
<path d="M35560 16230
L35720 16230
" />
<path d="M35790 16490
L35560 16490
L35560 15990
L35790 15990
" />
<path d="M36220 16160
L36220 16490
" />
<path d="M36100 15970
L35980 16320
L36290 16320
" />
<path d="M36950 15880
L37120 15880
" />
<path d="M37190 16140
L36950 16140
L36950 15640
L37190 15640
" />
<path d="M37620 15810
L37620 16140
" />
<path d="M37500 15620
L37380 15970
L37690 15970
" />
<path d="M36800 17270
L37800 17270
" />
<path d="M35560 17230
L35720 17230
" />
<path d="M35790 17490
L35560 17490
L35560 16990
L35790 16990
" />
<path d="M36250 16990
L36010 16990
L35980 17230
L36010 17210
L36060 17180
L36170 17180
L36220 17210
L36250 17230
L36270 17280
L36270 17400
L36250 17440
L36220 17470
L36170 17490
L36060 17490
L36010 17470
L35980 17440
" />
<path d="M36950 16880
L37120 16880
" />
<path d="M37190 17140
L36950 17140
L36950 16640
L37190 16640
" />
<path d="M37640 16640
L37400 16640
L37380 16880
L37400 16860
L37450 16830
L37570 16830
L37620 16860
L37640 16880
L37660 16930
L37660 17050
L37640 17090
L37620 17120
L37570 17140
L37450 17140
L37400 17120
L37380 17090
" />
<path d="M36800 18270
L37800 18270
" />
<path d="M35560 18230
L35720 18230
" />
<path d="M35790 18490
L35560 18490
L35560 17990
L35790 17990
" />
<path d="M36220 17990
L36130 17990
L36080 18020
L36060 18040
L36010 18110
L35980 18210
L35980 18400
L36010 18440
L36030 18470
L36080 18490
L36170 18490
L36220 18470
L36250 18440
L36270 18400
L36270 18280
L36250 18230
L36220 18210
L36170 18180
L36080 18180
L36030 18210
L36010 18230
L35980 18280
" />
<path d="M36950 17880
L37120 17880
" />
<path d="M37190 18140
L36950 18140
L36950 17640
L37190 17640
" />
<path d="M37620 17640
L37520 17640
L37470 17670
L37450 17690
L37400 17760
L37380 17860
L37380 18050
L37400 18090
L37430 18120
L37470 18140
L37570 18140
L37620 18120
L37640 18090
L37660 18050
L37660 17930
L37640 17880
L37620 17860
L37570 17830
L37470 17830
L37430 17860
L37400 17880
L37380 17930
" />
<path d="M36800 19270
L37800 19270
" />
<path d="M35560 19230
L35720 19230
" />
<path d="M35790 19490
L35560 19490
L35560 18990
L35790 18990
" />
<path d="M35960 18990
L36290 18990
L36080 19490
" />
<path d="M36950 18880
L37120 18880
" />
<path d="M37190 19140
L36950 19140
L36950 18640
L37190 18640
" />
<path d="M37350 18640
L37690 18640
L37470 19140
" />
<path d="M36800 20270
L37800 20270
" />
<path d="M35560 20230
L35720 20230
" />
<path d="M35790 20490
L35560 20490
L35560 19990
L35790 19990
" />
<path d="M36080 20210
L36030 20180
L36010 20160
L35980 20110
L35980 20090
L36010 20040
L36030 20020
L36080 19990
L36170 19990
L36220 20020
L36250 20040
L36270 20090
L36270 20110
L36250 20160
L36220 20180
L36170 20210
L36080 20210
L36030 20230
L36010 20250
L35980 20300
L35980 20400
L36010 20440
L36030 20470
L36080 20490
L36170 20490
L36220 20470
L36250 20440
L36270 20400
L36270 20300
L36250 20250
L36220 20230
L36170 20210
" />
<path d="M36950 19880
L37120 19880
" />
<path d="M37190 20140
L36950 20140
L36950 19640
L37190 19640
" />
<path d="M37470 19860
L37430 19830
L37400 19810
L37380 19760
L37380 19740
L37400 19690
L37430 19670
L37470 19640
L37570 19640
L37620 19670
L37640 19690
L37660 19740
L37660 19760
L37640 19810
L37620 19830
L37570 19860
L37470 19860
L37430 19880
L37400 19900
L37380 19950
L37380 20050
L37400 20090
L37430 20120
L37470 20140
L37570 20140
L37620 20120
L37640 20090
L37660 20050
L37660 19950
L37640 19900
L37620 19880
L37570 19860
" />
<path d="M1000 4510
L1090 4510
L1140 4540
L1190 4580
L1210 4680
L1210 4840
L1190 4940
L1140 4990
L1090 5010
L1000 5010
L950 4990
L900 4940
L880 4840
L880 4680
L900 4580
L950 4540
L1000 4510
" />
<path d="M1430 5010
L1430 4680
" />
<path d="M1430 4770
L1450 4730
L1470 4700
L1520 4680
L1570 4680
" />
<path d="M1950 5010
L1950 4750
L1930 4700
L1880 4680
L1780 4680
L1740 4700
" />
<path d="M1950 4990
L1900 5010
L1780 5010
L1740 4990
L1710 4940
L1710 4890
L1740 4840
L1780 4820
L1900 4820
L1950 4800
" />
<path d="M2190 4680
L2190 5010
" />
<path d="M2190 4730
L2210 4700
L2260 4680
L2330 4680
L2380 4700
L2400 4750
L2400 5010
" />
<path d="M2850 4680
L2850 5080
L2830 5130
L2810 5150
L2760 5180
L2690 5180
L2640 5150
" />
<path d="M2850 4990
L2810 5010
L2710 5010
L2660 4990
L2640 4960
L2620 4920
L2620 4770
L2640 4730
L2660 4700
L2710 4680
L2810 4680
L2850 4700
" />
<path d="M3280 4990
L3240 5010
L3140 5010
L3090 4990
L3070 4940
L3070 4750
L3090 4700
L3140 4680
L3240 4680
L3280 4700
L3310 4750
L3310 4800
L3070 4840
" />
<path d="M3520 5010
L3520 4510
L3710 4510
L3760 4540
L3780 4560
L3810 4610
L3810 4680
L3780 4730
L3760 4750
L3710 4770
L3520 4770
" />
<path d="M4020 5010
L4020 4680
" />
<path d="M4020 4510
L4000 4540
L4020 4560
L4050 4540
L4020 4510
L4020 4560
" />
<path d="M4210 4510
L4550 4510
L4210 5010
L4550 5010
" />
<path d="M4930 4990
L4880 5010
L4780 5010
L4740 4990
L4710 4940
L4710 4750
L4740 4700
L4780 4680
L4880 4680
L4930 4700
L4950 4750
L4950 4800
L4710 4840
" />
<path d="M5160 5010
L5160 4680
" />
<path d="M5160 4770
L5190 4730
L5210 4700
L5260 4680
L5310 4680
" />
<path d="M5540 5010
L5500 4990
L5470 4960
L5450 4920
L5450 4770
L5470 4730
L5500 4700
L5540 4680
L5620 4680
L5660 4700
L5690 4730
L5710 4770
L5710 4920
L5690 4960
L5660 4990
L5620 5010
L5540 5010
" />
<path d="M1720 6010
L1720 6420
L1750 6460
L1770 6490
L1820 6510
L1910 6510
L1960 6490
L1990 6460
L2010 6420
L2010 6010
" />
<path d="M2320 6460
L2340 6490
L2320 6510
L2300 6490
L2320 6460
L2320 6510
" />
<path d="M2220 6040
L2270 6010
L2390 6010
L2440 6040
L2460 6080
L2460 6130
L2440 6180
L2410 6200
L2370 6230
L2340 6250
L2320 6300
L2320 6320
" />
<path d="M2650 6370
L2890 6370
" />
<path d="M2600 6510
L2770 6010
L2940 6510
" />
<path d="M20130 26010
L20130 25510
L20320 25510
L20370 25540
L20390 25560
L20410 25610
L20410 25680
L20390 25730
L20370 25750
L20320 25770
L20130 25770
" />
<path d="M20630 26010
L20630 25680
" />
<path d="M20630 25510
L20600 25540
L20630 25560
L20650 25540
L20630 25510
L20630 25560
" />
<path d="M21030 25750
L21100 25770
L21130 25800
L21150 25840
L21150 25920
L21130 25960
L21100 25990
L21060 26010
L20870 26010
L20870 25510
L21030 25510
L21080 25540
L21100 25560
L21130 25610
L21130 25650
L21100 25700
L21080 25730
L21030 25750
L20870 25750
" />
<path d="M21440 26010
L21390 25990
L21370 25960
L21340 25920
L21340 25770
L21370 25730
L21390 25700
L21440 25680
L21510 25680
L21560 25700
L21580 25730
L21600 25770
L21600 25920
L21580 25960
L21560 25990
L21510 26010
L21440 26010
" />
<path d="M22030 26010
L22030 25750
L22010 25700
L21960 25680
L21870 25680
L21820 25700
" />
<path d="M22030 25990
L21990 26010
L21870 26010
L21820 25990
L21800 25940
L21800 25890
L21820 25840
L21870 25820
L21990 25820
L22030 25800
" />
<path d="M22270 26010
L22270 25680
" />
<path d="M22270 25770
L22300 25730
L22320 25700
L22370 25680
L22410 25680
" />
<path d="M22800 26010
L22800 25510
" />
<path d="M22800 25990
L22750 26010
L22650 26010
L22600 25990
L22580 25960
L22560 25920
L22560 25770
L22580 25730
L22600 25700
L22650 25680
L22750 25680
L22800 25700
" />
<path d="M23010 25990
L23060 26010
L23150 26010
L23200 25990
L23220 25940
L23220 25920
L23200 25870
L23150 25840
L23080 25840
L23030 25820
L23010 25770
L23010 25750
L23030 25700
L23080 25680
L23150 25680
L23200 25700
" />
<path d="M23440 25960
L23460 25990
L23440 26010
L23410 25990
L23440 25960
L23440 26010
" />
<path d="M23440 25700
L23460 25730
L23440 25750
L23410 25730
L23440 25700
L23440 25750
" />
<path d="M23770 25510
L23870 25510
L23910 25540
L23960 25580
L23990 25680
L23990 25840
L23960 25940
L23910 25990
L23870 26010
L23770 26010
L23720 25990
L23680 25940
L23650 25840
L23650 25680
L23680 25580
L23720 25540
L23770 25510
" />
<path d="M24200 26010
L24200 25680
" />
<path d="M24200 25770
L24220 25730
L24250 25700
L24300 25680
L24340 25680
" />
<path d="M24720 26010
L24720 25750
L24700 25700
L24650 25680
L24560 25680
L24510 25700
" />
<path d="M24720 25990
L24680 26010
L24560 26010
L24510 25990
L24490 25940
L24490 25890
L24510 25840
L24560 25820
L24680 25820
L24720 25800
" />
<path d="M24960 25680
L24960 26010
" />
<path d="M24960 25730
L24990 25700
L25030 25680
L25100 25680
L25150 25700
L25180 25750
L25180 26010
" />
<path d="M25630 25680
L25630 26080
L25600 26130
L25580 26150
L25530 26180
L25460 26180
L25410 26150
" />
<path d="M25630 25990
L25580 26010
L25490 26010
L25440 25990
L25410 25960
L25390 25920
L25390 25770
L25410 25730
L25440 25700
L25490 25680
L25580 25680
L25630 25700
" />
<path d="M26060 25990
L26010 26010
L25910 26010
L25870 25990
L25840 25940
L25840 25750
L25870 25700
L25910 25680
L26010 25680
L26060 25700
L26080 25750
L26080 25800
L25840 25840
" />
<path d="M26300 26010
L26300 25510
L26490 25510
L26530 25540
L26560 25560
L26580 25610
L26580 25680
L26560 25730
L26530 25750
L26490 25770
L26300 25770
" />
<path d="M26800 26010
L26800 25680
" />
<path d="M26800 25510
L26770 25540
L26800 25560
L26820 25540
L26800 25510
L26800 25560
" />
<path d="M26990 25510
L27320 25510
L26990 26010
L27320 26010
" />
<path d="M27700 25990
L27650 26010
L27560 26010
L27510 25990
L27490 25940
L27490 25750
L27510 25700
L27560 25680
L27650 25680
L27700 25700
L27720 25750
L27720 25800
L27490 25840
" />
<path d="M27940 26010
L27940 25680
" />
<path d="M27940 25770
L27960 25730
L27990 25700
L28030 25680
L28080 25680
" />
<path d="M28320 26010
L28270 25990
L28250 25960
L28220 25920
L28220 25770
L28250 25730
L28270 25700
L28320 25680
L28390 25680
L28440 25700
L28460 25730
L28490 25770
L28490 25920
L28460 25960
L28440 25990
L28390 26010
L28320 26010
" />
</g> 
</svg>
