<?xml version="1.0" standalone="no"?>
 <!DOCTYPE svg PUBLIC "-//W3C//DTD SVG 1.1//EN" 
 "http://www.w3.org/Graphics/SVG/1.1/DTD/svg11.dtd"> 
<svg xmlns="http://www.w3.org/2000/svg" version="1.1" 
    width="28.4861cm" height="16.1798cm" viewBox="0 0 112150 63700 ">
<title>SVG Picture created as PS2BaseMount-Edge_Cuts.svg date 2020/07/14 09:49:23 </title>
  <desc>Picture generated by PCBNEW </desc>
<g style="fill:#000000; fill-opacity:1;stroke:#000000; stroke-opacity:1;
stroke-linecap:round; stroke-linejoin:round; "
 transform="translate(0 0) scale(1 1)">
</g>
<g style="fill:#000000; fill-opacity:0.0; 
stroke:#000000; stroke-width:-0.000393701; stroke-opacity:1; 
stroke-linecap:round; stroke-linejoin:round;">
</g>
<g style="fill:#C2C200; fill-opacity:0.0; 
stroke:#C2C200; stroke-width:-0.000393701; stroke-opacity:1; 
stroke-linecap:round; stroke-linejoin:round;">
</g>
<g style="fill:#C2C200; fill-opacity:0.0; 
stroke:#C2C200; stroke-width:59.0551; stroke-opacity:1; 
stroke-linecap:round; stroke-linejoin:round;">
<path d="M92059 12814
L91764 13109
" />
<path d="M48752 2086
L48359 1692
" />
<path d="M63713 2086
L64107 1692
" />
<path d="M48752 2873
L49146 3267
" />
<path d="M63319 3267
L63713 2873
" />
<path d="M64107 1692
L91666 1692
" />
<path d="M63713 2873
L63713 2086
" />
<path d="M49146 3267
L63319 3267
" />
<path d="M48752 2086
L48752 2873
" />
<path d="M88122 19409
L87729 19015
" />
<path d="M92059 19409
L88122 19409
" />
<path d="M87729 13897
L87729 19015
" />
<path d="M88516 13109
L87729 13897
" />
<path d="M91764 13109
L88516 13109
" />
<path d="M109382 19409
L109776 19802
" />
<path d="M109382 53267
L109776 52873
" />
<path d="M91666 59172
L92059 58779
" />
<path d="M91666 59172
L20406 59172
" />
<path d="M20012 58779
L20406 59172
" />
<path d="M2296 52873
L2689 53267
" />
<path d="M2296 19802
L2689 19409
" />
<path d="M19225 2086
L19618 1692
" />
<path d="M91666 1692
L92059 2086
" />
<path d="M92059 57204
L95996 53267
" />
<path d="M20012 57204
L16075 53267
" />
<path d="M92059 57204
L92059 58779
" />
<path d="M109382 53267
L95996 53267
" />
<path d="M109776 19802
L109776 52873
" />
<path d="M92059 19409
L109382 19409
" />
<path d="M92059 2086
L92059 12814
" />
<path d="M19618 1692
L48359 1692
" />
<path d="M19225 19409
L19225 2086
" />
<path d="M2689 19409
L19225 19409
" />
<path d="M2296 52873
L2296 19802
" />
<path d="M16075 53267
L2689 53267
" />
<path d="M20012 58779
L20012 57204
" />
<g >
</g>
<g >
</g>
<g >
</g>
<g >
</g>
<g >
</g>
<g >
</g>
<g >
</g>
<g >
</g>
<g >
</g>
<g >
</g>
<g >
</g>
<g >
</g>
<g >
</g>
<g >
</g>
<g >
</g>
<g >
</g>
<g >
</g>
<g >
</g>
<g >
</g>
<g >
</g>
<g >
</g>
<g >
</g>
<g >
</g>
<g >
</g>
<g >
</g>
<g >
</g>
<g >
</g>
<g >
</g>
<g >
</g>
<g >
</g>
<g >
</g>
<g >
</g>
<g >
</g>
<g >
</g>
<g >
</g>
<g >
</g>
<g >
</g>
<g >
</g>
<g >
</g>
<g >
</g>
<g >
</g>
<g >
</g>
<g >
</g>
<g >
</g>
<g >
</g>
<g >
</g>
<g >
</g>
<g >
</g>
<g >
</g>
<g >
</g>
<g >
</g>
<g >
</g>
<g >
</g>
<g >
</g>
<g >
</g>
<g >
</g>
<g >
</g>
<g >
</g>
<g >
</g>
<g >
</g>
<g >
</g>
<g >
</g>
<g >
</g>
<g >
</g>
<g >
</g>
<g >
</g>
<g >
</g>
<g >
</g>
<g >
</g>
<g >
</g>
<g >
</g>
<g >
</g>
<g >
</g>
<g >
</g>
<g >
</g>
<g >
</g>
<g >
</g>
<g >
</g>
<g >
</g>
<g >
</g>
<g >
</g>
<g >
</g>
<g >
</g>
<g >
</g>
<g >
</g>
<g >
</g>
<g >
</g>
<g >
</g>
<g >
</g>
<g >
</g>
<g >
</g>
<g >
</g>
<g >
</g>
<g >
</g>
<g >
</g>
<g >
</g>
</g> 
</svg>
