M48
; DRILL file {KiCad (5.1.5-0-10_14)} date Friday, 17 April 2020 at 04:39:11 pm
; FORMAT={-:-/ absolute / metric / decimal}
; #@! TF.CreationDate,2020-04-17T16:39:11+12:00
; #@! TF.GenerationSoftware,Kicad,Pcbnew,(5.1.5-0-10_14)
; #@! TF.FileFunction,Plated,1,2,PTH
FMAT,2
METRIC
T1C0.400
T2C0.600
T3C0.750
T4C0.760
T5C0.762
T6C0.800
T7C0.900
T8C1.000
T9C1.200
T10C2.000
T11C3.200
T12C4.000
T13C6.000
%
G90
G05
T1
X19.3Y-108.8
X26.0Y-145.0
X27.0Y-84.0
X28.0Y-106.0
X33.75Y-97.25
X38.75Y-141.0
X39.05Y-116.15
X44.75Y-141.0
X45.75Y-101.0
X46.25Y-109.55
X49.0Y-84.0
X50.25Y-141.25
X51.75Y-95.25
X53.5Y-85.25
X64.25Y-102.85
X66.0Y-55.0
X66.7Y-110.4
X66.8Y-48.2
X67.05Y-83.85
X67.15Y-91.45
X68.2Y-149.95
X71.0Y-33.0
X71.55Y-161.65
X71.6Y-68.1
X72.0Y-55.0
X72.5Y-48.45
X76.85Y-171.35
X77.25Y-40.75
X77.35Y-63.3
X77.65Y-103.6
X80.0Y-79.25
X80.35Y-138.95
X81.5Y-48.2
X83.5Y-54.75
X85.0Y-51.0
X85.0Y-58.0
X87.4Y-61.9
X87.954Y-153.91
X89.0Y-41.0
X89.95Y-103.0
X91.75Y-73.5
X93.0Y-54.75
X95.0Y-138.65
X95.45Y-48.3
X95.45Y-163.65
X95.9Y-86.05
X96.05Y-148.85
X98.95Y-168.2
X103.25Y-55.0
X103.8Y-48.2
X104.0Y-64.75
X107.0Y-79.0
X109.75Y-69.0
X113.0Y-65.0
X113.25Y-111.75
X117.25Y-119.75
X117.65Y-51.15
X119.25Y-105.5
X121.0Y-36.0
X123.0Y-69.0
X123.8Y-61.7
X124.0Y-162.0
X124.5Y-142.0
X124.55Y-48.5
X126.0Y-58.0
X126.25Y-136.0
X128.4Y-110.45
X128.4Y-128.45
X129.5Y-55.0
X132.554Y-144.91
X133.804Y-85.41
X133.804Y-142.41
X135.054Y-138.91
X136.054Y-86.91
X136.054Y-136.41
X137.4Y-61.8
X138.554Y-131.91
X139.804Y-128.91
X141.054Y-126.346
X142.154Y-42.51
X142.304Y-124.41
X143.554Y-121.41
X146.8Y-48.3
X148.5Y-55.0
X149.5Y-46.75
X150.0Y-79.0
X150.5Y-69.0
X151.0Y-99.0
X152.0Y-121.0
X152.25Y-47.6
X152.25Y-61.7
X153.0Y-146.0
X155.0Y-161.0
X156.5Y-65.5
X158.9Y-64.65
X159.25Y-30.5
X160.0Y-50.25
X160.75Y-55.75
X161.75Y-69.0
X163.0Y-30.5
X163.75Y-75.75
X164.5Y-51.5
X165.0Y-65.0
X165.0Y-89.0
X167.0Y-52.75
X168.0Y-65.0
X169.453Y-74.547
X170.0Y-59.0
X170.15Y-54.714
X170.5Y-72.0
X170.9Y-38.95
X171.0Y-53.75
X171.75Y-50.75
X175.25Y-76.75
X177.0Y-57.25
X178.0Y-72.0
X178.0Y-144.0
X178.75Y-36.8
X178.75Y-67.25
X179.0Y-122.0
X180.0Y-161.0
X180.5Y-60.0
X181.0Y-75.0
X184.75Y-58.75
X185.0Y-73.5
X187.4Y-45.6
X189.0Y-59.0
X189.0Y-87.0
X197.0Y-69.0
X197.0Y-124.0
X202.0Y-60.0
X203.0Y-103.0
X205.0Y-162.0
X208.0Y-84.0
X211.0Y-32.0
X220.0Y-148.0
X221.0Y-60.0
X223.0Y-70.0
X224.0Y-140.0
X225.0Y-87.0
X228.65Y-42.0
X228.95Y-63.05
X231.0Y-44.35
X234.35Y-57.4
X245.0Y-150.0
X251.5Y-86.0
X255.25Y-103.25
X269.0Y-83.0
X273.25Y-100.0
X279.0Y-106.0
T2
X62.454Y-52.51
X62.454Y-53.76
X62.454Y-55.01
X62.454Y-56.26
X62.454Y-57.51
X230.0Y-49.25
X230.0Y-50.5
X230.0Y-51.75
X230.0Y-53.0
X230.0Y-54.25
X62.8Y-47.0
X62.8Y-48.5
X221.6Y-42.6
X221.6Y-44.1
X240.004Y-171.585
X240.004Y-173.585
X222.2Y-47.45
X222.2Y-48.95
X62.554Y-62.26
X62.554Y-63.51
X62.554Y-64.76
X237.25Y-53.0
X237.25Y-54.25
X237.25Y-55.5
X62.8Y-40.45
X62.8Y-41.95
X238.25Y-84.75
X238.25Y-86.25
T3
X63.025Y-69.185
X63.025Y-70.455
X63.025Y-71.725
T4
X80.144Y-130.676
X81.415Y-132.516
X82.012Y-130.676
X85.148Y-132.516
X87.015Y-132.516
X100.554Y-111.849
X100.554Y-114.389
X100.554Y-116.929
X100.554Y-119.469
X103.094Y-113.119
X103.094Y-115.659
X103.094Y-118.199
X103.094Y-120.739
T5
X61.7Y-109.6
X61.7Y-119.9
X74.8Y-109.6
X74.8Y-119.9
X245.954Y-115.91
X250.954Y-115.91
X48.054Y-115.0
X53.054Y-115.0
T6
X28.934Y-119.91
X28.934Y-122.45
X28.934Y-124.99
X28.934Y-127.53
X28.934Y-130.07
X28.934Y-132.61
X28.934Y-135.15
X36.554Y-119.91
X36.554Y-122.45
X36.554Y-124.99
X36.554Y-127.53
X36.554Y-130.07
X36.554Y-132.61
X36.554Y-135.15
X118.445Y-133.657
X118.445Y-136.058
X118.445Y-138.457
X118.445Y-140.857
X118.445Y-143.257
X118.445Y-145.657
X120.346Y-134.857
X120.346Y-137.257
X120.346Y-139.657
X120.346Y-142.058
X120.346Y-144.457
X120.346Y-146.857
X132.554Y-38.91
X133.754Y-37.01
X134.954Y-38.91
X136.154Y-37.01
X137.354Y-38.91
X138.554Y-37.01
X139.754Y-38.91
X140.954Y-37.01
X142.154Y-38.91
X143.354Y-37.01
X144.554Y-38.91
X145.754Y-37.01
T7
X42.014Y-146.71
X44.554Y-146.71
X52.014Y-146.71
X54.554Y-146.71
X47.014Y-146.71
X49.554Y-146.71
T8
X244.954Y-127.61
X244.954Y-130.15
X244.954Y-132.69
X244.954Y-135.23
X244.954Y-137.77
X244.954Y-140.31
X156.194Y-30.201
X157.314Y-41.001
X159.444Y-41.001
X161.574Y-41.001
X163.704Y-41.001
X165.834Y-41.001
X166.694Y-30.201
X21.554Y-119.91
X21.554Y-122.45
X21.554Y-124.99
X21.554Y-127.53
X21.554Y-130.07
X21.554Y-132.61
X223.559Y-38.908
X226.059Y-38.908
X228.059Y-38.908
X230.559Y-38.908
X233.845Y-138.417
X233.845Y-142.417
X233.845Y-146.417
X233.845Y-150.417
X233.845Y-154.417
X233.845Y-158.417
X233.845Y-162.417
X233.845Y-166.417
X233.845Y-170.417
X61.572Y-134.973
X61.572Y-137.513
X61.572Y-140.053
X61.572Y-142.593
X61.572Y-157.833
X61.572Y-160.373
X61.572Y-162.913
X61.572Y-165.453
X102.212Y-160.373
X102.212Y-162.913
X102.212Y-165.453
X104.752Y-137.513
X104.752Y-155.293
X104.752Y-157.833
X101.392Y-101.245
X102.537Y-103.225
X103.682Y-101.245
X104.827Y-103.225
X105.972Y-101.245
X107.117Y-103.225
X95.559Y-38.908
X98.059Y-38.908
X100.059Y-38.908
X102.559Y-38.908
X234.847Y-63.693
X234.847Y-66.193
X234.847Y-68.193
X234.847Y-70.693
X194.7Y-36.35
X194.7Y-38.95
X194.7Y-41.45
X194.7Y-49.45
X194.7Y-51.95
X212.8Y-36.35
X212.8Y-38.95
X212.8Y-49.45
X212.8Y-51.95
X124.096Y-93.498
X124.096Y-96.037
X124.096Y-98.578
X124.096Y-101.117
X126.635Y-94.767
X126.635Y-97.307
X126.635Y-99.847
X126.635Y-102.387
X231.545Y-93.417
X231.545Y-95.787
X231.545Y-101.417
X231.545Y-103.767
X231.545Y-106.218
X231.545Y-112.017
X231.545Y-114.218
X231.545Y-116.617
X233.845Y-105.417
T9
X54.75Y-126.42
X54.75Y-128.96
X54.75Y-131.5
X83.554Y-110.91
X62.475Y-89.85
T11
X72.172Y-60.745
T12
X63.072Y-171.343
X103.072Y-129.343
X213.172Y-60.245
T13
X262.054Y-93.0
T7
G00X221.359Y-36.958
M15
G01X221.359Y-35.358
M16
G05
G00X232.759Y-36.958
M15
G01X232.759Y-35.358
M16
G05
G00X93.359Y-36.958
M15
G01X93.359Y-35.358
M16
G05
G00X104.759Y-36.958
M15
G01X104.759Y-35.358
M16
G05
G00X236.797Y-61.493
M15
G01X238.397Y-61.493
M16
G05
G00X236.797Y-72.893
M15
G01X238.397Y-72.893
M16
G05
G00X175.016Y-34.858
M15
G01X175.016Y-35.458
M16
G05
G00X175.816Y-42.058
M15
G01X175.216Y-42.058
M16
G05
G00X180.116Y-30.758
M15
G01X179.516Y-30.758
M16
G05
G00X182.416Y-37.358
M15
G01X182.416Y-37.958
M16
G05
G00X185.016Y-38.358
M15
G01X185.016Y-38.958
M16
G05
T8
G00X114.995Y-131.407
M15
G01X115.695Y-131.407
M16
G05
G00X114.995Y-149.757
M15
G01X115.695Y-149.757
M16
G05
G00X120.995Y-131.407
M15
G01X121.695Y-131.407
M16
G05
G00X120.995Y-149.757
M15
G01X121.695Y-149.757
M16
G05
G00X129.654Y-33.56
M15
G01X129.654Y-34.26
M16
G05
G00X129.654Y-39.56
M15
G01X129.654Y-40.26
M16
G05
G00X148.004Y-33.56
M15
G01X148.004Y-34.26
M16
G05
G00X148.004Y-39.56
M15
G01X148.004Y-40.26
M16
G05
T10
G00X251.304Y-156.6
M15
G01X256.304Y-156.6
M16
G05
G00X261.054Y-156.6
M15
G01X266.054Y-156.6
M16
G05
G00X270.804Y-156.6
M15
G01X275.804Y-156.6
M16
G05
G00X24.25Y-156.6
M15
G01X29.25Y-156.6
M16
G05
G00X34.0Y-156.6
M15
G01X39.0Y-156.6
M16
G05
G00X43.75Y-156.6
M15
G01X48.75Y-156.6
M16
G05
T0
M30
