M48
; DRILL file {KiCad (5.1.5-0-10_14)} date Thursday, 09 July 2020 at 12:55:19 pm
; FORMAT={-:-/ absolute / metric / decimal}
; #@! TF.CreationDate,2020-07-09T12:55:19+12:00
; #@! TF.GenerationSoftware,Kicad,Pcbnew,(5.1.5-0-10_14)
FMAT,2
METRIC
T1C0.400
T2C0.600
T3C0.750
T4C0.760
T5C0.762
T6C0.800
T7C0.900
T8C1.000
T9C1.200
T10C1.500
T11C2.000
T12C3.200
T13C3.500
T14C4.000
T15C6.000
T16C0.700
T17C3.200
%
G90
G05
T1
X19.3Y-108.8
X26.0Y-127.4
X26.0Y-145.0
X27.0Y-84.0
X32.2Y-122.4
X33.4Y-119.8
X33.4Y-131.2
X33.75Y-97.25
X34.0Y-125.4
X34.4Y-116.6
X38.75Y-141.0
X39.8Y-116.4
X45.75Y-101.0
X46.8Y-140.6
X49.0Y-84.0
X51.75Y-95.25
X52.6Y-140.6
X53.5Y-85.25
X59.4Y-124.6
X64.0Y-33.6
X64.6Y-67.8
X65.6Y-99.0
X66.0Y-55.0
X66.8Y-48.2
X67.05Y-83.85
X67.15Y-91.45
X68.2Y-149.95
X69.0Y-95.4
X70.0Y-93.6
X70.8Y-82.4
X71.0Y-50.0
X71.0Y-72.8
X71.2Y-39.6
X72.8Y-68.2
X72.8Y-75.2
X73.2Y-86.2
X73.4Y-44.2
X76.0Y-30.8
X76.6Y-67.8
X76.85Y-171.35
X77.2Y-118.0
X77.25Y-40.75
X77.35Y-63.3
X80.0Y-79.25
X80.35Y-138.95
X81.5Y-48.2
X86.0Y-114.6
X93.0Y-54.75
X95.0Y-138.65
X95.45Y-48.3
X95.45Y-163.65
X96.05Y-148.85
X98.95Y-168.2
X100.2Y-35.4
X102.6Y-95.6
X102.6Y-98.6
X103.25Y-55.0
X103.8Y-48.2
X104.0Y-64.75
X104.0Y-76.0
X107.0Y-79.0
X110.2Y-91.8
X111.4Y-89.2
X114.0Y-84.2
X114.2Y-167.4
X115.0Y-86.0
X117.0Y-33.0
X123.0Y-69.0
X123.8Y-61.7
X124.0Y-162.0
X124.55Y-48.5
X126.0Y-58.0
X129.5Y-55.0
X136.0Y-36.675
X137.4Y-61.8
X144.6Y-65.2
X144.6Y-76.0
X144.6Y-120.0
X144.6Y-144.0
X147.8Y-69.0
X148.0Y-61.6
X148.4Y-40.8
X148.5Y-55.0
X148.6Y-36.8
X148.6Y-45.0
X154.4Y-39.8
X155.0Y-161.0
X156.5Y-65.5
X156.5Y-93.072
X158.2Y-50.4
X158.9Y-64.65
X160.75Y-55.75
X161.75Y-69.0
X163.75Y-75.75
X165.0Y-65.0
X165.0Y-89.0
X166.2Y-58.6
X166.963Y-62.787
X167.0Y-52.75
X168.0Y-65.0
X169.453Y-74.547
X170.0Y-59.0
X170.15Y-54.714
X170.5Y-72.0
X171.0Y-53.75
X171.0Y-93.2
X175.25Y-76.75
X177.0Y-57.25
X178.0Y-72.0
X178.0Y-144.0
X178.75Y-67.25
X179.0Y-122.0
X180.0Y-161.0
X181.0Y-75.0
X182.6Y-165.8
X185.0Y-73.5
X185.4Y-167.4
X188.0Y-58.8
X189.0Y-87.0
X189.8Y-60.4
X190.0Y-52.8
X192.0Y-36.6
X195.2Y-62.6
X197.0Y-69.0
X198.8Y-36.8
X200.2Y-165.6
X202.0Y-60.0
X202.2Y-167.2
X203.0Y-103.0
X207.0Y-62.6
X208.0Y-84.0
X209.0Y-53.4
X216.8Y-40.6
X219.0Y-62.8
X220.6Y-40.0
X223.0Y-70.0
X224.0Y-140.0
X225.0Y-87.0
X225.0Y-165.8
X226.6Y-167.4
X227.8Y-103.4
X227.8Y-113.6
X228.0Y-95.6
X229.0Y-117.0
X229.2Y-106.4
X229.8Y-51.8
X244.0Y-152.4
X245.2Y-148.6
X251.5Y-86.0
X255.25Y-103.25
X269.0Y-83.0
X273.25Y-100.0
X279.0Y-106.0
T2
X62.454Y-52.51
X62.454Y-53.76
X62.454Y-55.01
X62.454Y-56.26
X62.454Y-57.51
X57.4Y-162.85
X57.4Y-164.35
X234.4Y-45.95
X234.4Y-47.2
X234.4Y-48.45
X239.2Y-171.45
X239.2Y-172.95
X231.0Y-30.75
X231.0Y-32.25
X234.4Y-36.3
X234.4Y-37.55
X234.4Y-38.8
X234.4Y-40.05
X234.4Y-41.3
X239.0Y-166.25
X239.0Y-167.75
X62.554Y-62.26
X62.554Y-63.51
X62.554Y-64.76
X225.2Y-46.25
X225.2Y-47.75
X62.8Y-40.45
X62.8Y-41.95
T3
X63.025Y-69.185
X63.025Y-70.455
X63.025Y-71.725
T4
X80.144Y-130.676
X81.415Y-132.516
X82.012Y-130.676
X85.148Y-132.516
X108.46Y-94.65
X108.46Y-99.73
X111.0Y-98.46
X111.0Y-101.0
T5
X245.954Y-115.91
X250.954Y-115.91
X48.054Y-115.0
X53.054Y-115.0
T6
X28.934Y-119.91
X28.934Y-122.45
X28.934Y-124.99
X28.934Y-127.53
X28.934Y-130.07
X28.934Y-132.61
X28.934Y-135.15
X36.554Y-119.91
X36.554Y-122.45
X36.554Y-124.99
X36.554Y-127.53
X36.554Y-130.07
X36.554Y-132.61
X36.554Y-135.15
X83.0Y-117.3
X83.0Y-119.8
X171.6Y-45.8
X174.1Y-45.8
X61.5Y-104.6
X65.0Y-104.6
X110.0Y-39.0
X111.2Y-37.1
X112.4Y-39.0
X113.6Y-37.1
X114.8Y-39.0
X116.0Y-37.1
X117.2Y-39.0
X118.4Y-37.1
X119.6Y-39.0
X120.8Y-37.1
X122.0Y-39.0
X123.2Y-37.1
X118.445Y-138.457
X118.445Y-140.857
X118.445Y-143.257
X118.445Y-145.657
X120.346Y-134.857
X120.346Y-137.257
X120.346Y-139.657
X120.346Y-142.058
X120.346Y-144.457
X120.346Y-146.857
T7
X249.4Y-146.71
X251.94Y-146.71
X47.014Y-146.71
X49.554Y-146.71
X42.014Y-146.71
X44.554Y-146.71
X254.4Y-146.71
X256.94Y-146.71
X52.014Y-146.71
X54.554Y-146.71
T8
X231.545Y-93.417
X231.545Y-95.787
X231.545Y-101.417
X231.545Y-103.767
X231.545Y-106.218
X231.545Y-112.017
X231.545Y-114.218
X231.545Y-116.617
X233.845Y-105.417
X244.954Y-127.61
X244.954Y-130.15
X244.954Y-132.69
X244.954Y-135.23
X244.954Y-137.77
X244.954Y-140.31
X61.572Y-134.973
X61.572Y-137.513
X61.572Y-140.053
X61.572Y-142.593
X61.572Y-157.833
X61.572Y-160.373
X102.212Y-160.373
X102.212Y-162.913
X102.212Y-165.453
X104.752Y-137.513
X104.752Y-155.293
X104.752Y-157.833
X104.752Y-160.373
X233.845Y-138.417
X233.845Y-142.417
X233.845Y-146.417
X233.845Y-150.417
X233.845Y-154.417
X233.845Y-158.417
X233.845Y-162.417
X233.845Y-166.417
X233.845Y-170.417
X197.74Y-41.2
X199.87Y-41.2
X202.0Y-41.2
X204.13Y-41.2
X206.26Y-41.2
X101.392Y-101.245
X102.537Y-103.225
X103.682Y-101.245
X104.827Y-103.225
X105.972Y-101.245
X107.117Y-103.225
X86.005Y-39.198
X88.505Y-39.198
X90.505Y-39.198
X93.005Y-39.198
X21.554Y-119.91
X21.554Y-122.45
X21.554Y-124.99
X21.554Y-127.53
X21.554Y-130.07
X21.554Y-132.61
T9
X241.4Y-155.8
X92.2Y-111.6
X237.8Y-155.8
X241.4Y-160.6
X92.4Y-117.4
X99.6Y-122.0
X54.75Y-126.42
X54.75Y-128.96
X54.75Y-131.5
X237.8Y-160.6
X65.2Y-85.8
X70.2Y-108.0
T12
X72.172Y-60.745
T13
X72.172Y-90.245
T14
X213.172Y-60.245
X63.072Y-171.343
T15
X262.054Y-93.0
T16
X70.15Y-30.0
X71.85Y-30.0
T17
X244.8Y-163.0
X60.4Y-32.4
X283.4Y-156.4
X17.6Y-156.6
X239.0Y-32.2
X283.6Y-77.6
X17.6Y-77.6
T7
G00X179.0Y-34.8
M15
G01X179.0Y-35.4
M16
G05
G00X179.8Y-42.0
M15
G01X179.2Y-42.0
M16
G05
G00X184.1Y-30.7
M15
G01X183.5Y-30.7
M16
G05
G00X186.4Y-37.3
M15
G01X186.4Y-37.9
M16
G05
G00X189.0Y-38.3
M15
G01X189.0Y-38.9
M16
G05
T8
G00X107.1Y-33.65
M15
G01X107.1Y-34.35
M16
G05
G00X107.1Y-39.65
M15
G01X107.1Y-40.35
M16
G05
G00X125.45Y-33.65
M15
G01X125.45Y-34.35
M16
G05
G00X125.45Y-39.65
M15
G01X125.45Y-40.35
M16
G05
G00X196.62Y-30.15
M15
G01X196.62Y-31.15
M16
G05
G00X207.12Y-30.15
M15
G01X207.12Y-31.15
M16
G05
T10
G00X83.805Y-36.948
M15
G01X83.805Y-35.948
M16
G05
G00X95.205Y-36.948
M15
G01X95.205Y-35.948
M16
G05
T11
G00X24.25Y-156.6
M15
G01X29.25Y-156.6
M16
G05
G00X34.0Y-156.6
M15
G01X39.0Y-156.6
M16
G05
G00X43.75Y-156.6
M15
G01X48.75Y-156.6
M16
G05
G00X251.304Y-156.6
M15
G01X256.304Y-156.6
M16
G05
G00X261.054Y-156.6
M15
G01X266.054Y-156.6
M16
G05
G00X270.804Y-156.6
M15
G01X275.804Y-156.6
M16
G05
T0
M30
