G04 #@! TF.GenerationSoftware,KiCad,Pcbnew,(5.1.5-0-10_14)*
G04 #@! TF.CreationDate,2020-07-09T12:53:03+12:00*
G04 #@! TF.ProjectId,PS2BaseMount,50533242-6173-4654-9d6f-756e742e6b69,rev?*
G04 #@! TF.SameCoordinates,Original*
G04 #@! TF.FileFunction,Paste,Top*
G04 #@! TF.FilePolarity,Positive*
%FSLAX46Y46*%
G04 Gerber Fmt 4.6, Leading zero omitted, Abs format (unit mm)*
G04 Created by KiCad (PCBNEW (5.1.5-0-10_14)) date 2020-07-09 12:53:03*
%MOMM*%
%LPD*%
G04 APERTURE LIST*
%ADD10R,3.500000X5.400000*%
%ADD11C,0.100000*%
%ADD12R,4.000000X1.800000*%
%ADD13R,2.400000X3.500000*%
%ADD14R,2.000000X3.000000*%
%ADD15R,0.800000X1.900000*%
%ADD16R,1.900000X0.800000*%
%ADD17R,2.400000X0.800000*%
%ADD18R,3.500000X2.400000*%
%ADD19R,4.600000X1.100000*%
%ADD20R,4.550000X5.250000*%
G04 APERTURE END LIST*
D10*
X87600000Y-98400000D03*
X77600000Y-98400000D03*
D11*
G36*
X267563755Y-74450961D02*
G01*
X267573134Y-74453806D01*
X267581779Y-74458427D01*
X267589355Y-74464645D01*
X267595573Y-74472221D01*
X267600194Y-74480866D01*
X267603039Y-74490245D01*
X267604000Y-74500000D01*
X267604000Y-75450000D01*
X269504000Y-75450000D01*
X269504000Y-74500000D01*
X269504961Y-74490245D01*
X269507806Y-74480866D01*
X269512427Y-74472221D01*
X269518645Y-74464645D01*
X269526221Y-74458427D01*
X269534866Y-74453806D01*
X269544245Y-74450961D01*
X269554000Y-74450000D01*
X277054000Y-74450000D01*
X277063755Y-74450961D01*
X277073134Y-74453806D01*
X277081779Y-74458427D01*
X277089355Y-74464645D01*
X277095573Y-74472221D01*
X277100194Y-74480866D01*
X277103039Y-74490245D01*
X277104000Y-74500000D01*
X277104000Y-82000000D01*
X277103039Y-82009755D01*
X277100194Y-82019134D01*
X277095573Y-82027779D01*
X277089355Y-82035355D01*
X277081779Y-82041573D01*
X277073134Y-82046194D01*
X277063755Y-82049039D01*
X277054000Y-82050000D01*
X269554000Y-82050000D01*
X269544245Y-82049039D01*
X269534866Y-82046194D01*
X269526221Y-82041573D01*
X269518645Y-82035355D01*
X269512427Y-82027779D01*
X269507806Y-82019134D01*
X269504961Y-82009755D01*
X269504000Y-82000000D01*
X269504000Y-80550000D01*
X267604000Y-80550000D01*
X267604000Y-82000000D01*
X267603039Y-82009755D01*
X267600194Y-82019134D01*
X267595573Y-82027779D01*
X267589355Y-82035355D01*
X267581779Y-82041573D01*
X267573134Y-82046194D01*
X267563755Y-82049039D01*
X267554000Y-82050000D01*
X259554000Y-82050000D01*
X259544245Y-82049039D01*
X259534866Y-82046194D01*
X259526221Y-82041573D01*
X259518645Y-82035355D01*
X259512427Y-82027779D01*
X259507806Y-82019134D01*
X259504961Y-82009755D01*
X259504000Y-82000000D01*
X259504000Y-80550000D01*
X257804000Y-80550000D01*
X257804000Y-81500000D01*
X249804000Y-81500000D01*
X249804000Y-74500000D01*
X257804000Y-74500000D01*
X257804000Y-75450000D01*
X259504000Y-75450000D01*
X259504000Y-74500000D01*
X259504961Y-74490245D01*
X259507806Y-74480866D01*
X259512427Y-74472221D01*
X259518645Y-74464645D01*
X259526221Y-74458427D01*
X259534866Y-74453806D01*
X259544245Y-74450961D01*
X259554000Y-74450000D01*
X267554000Y-74450000D01*
X267563755Y-74450961D01*
G37*
G36*
X212899505Y-45626204D02*
G01*
X212923773Y-45629804D01*
X212947572Y-45635765D01*
X212970671Y-45644030D01*
X212992850Y-45654520D01*
X213013893Y-45667132D01*
X213033599Y-45681747D01*
X213051777Y-45698223D01*
X213068253Y-45716401D01*
X213082868Y-45736107D01*
X213095480Y-45757150D01*
X213105970Y-45779329D01*
X213114235Y-45802428D01*
X213120196Y-45826227D01*
X213123796Y-45850495D01*
X213125000Y-45874999D01*
X213125000Y-48025001D01*
X213123796Y-48049505D01*
X213120196Y-48073773D01*
X213114235Y-48097572D01*
X213105970Y-48120671D01*
X213095480Y-48142850D01*
X213082868Y-48163893D01*
X213068253Y-48183599D01*
X213051777Y-48201777D01*
X213033599Y-48218253D01*
X213013893Y-48232868D01*
X212992850Y-48245480D01*
X212970671Y-48255970D01*
X212947572Y-48264235D01*
X212923773Y-48270196D01*
X212899505Y-48273796D01*
X212875001Y-48275000D01*
X211849999Y-48275000D01*
X211825495Y-48273796D01*
X211801227Y-48270196D01*
X211777428Y-48264235D01*
X211754329Y-48255970D01*
X211732150Y-48245480D01*
X211711107Y-48232868D01*
X211691401Y-48218253D01*
X211673223Y-48201777D01*
X211656747Y-48183599D01*
X211642132Y-48163893D01*
X211629520Y-48142850D01*
X211619030Y-48120671D01*
X211610765Y-48097572D01*
X211604804Y-48073773D01*
X211601204Y-48049505D01*
X211600000Y-48025001D01*
X211600000Y-45874999D01*
X211601204Y-45850495D01*
X211604804Y-45826227D01*
X211610765Y-45802428D01*
X211619030Y-45779329D01*
X211629520Y-45757150D01*
X211642132Y-45736107D01*
X211656747Y-45716401D01*
X211673223Y-45698223D01*
X211691401Y-45681747D01*
X211711107Y-45667132D01*
X211732150Y-45654520D01*
X211754329Y-45644030D01*
X211777428Y-45635765D01*
X211801227Y-45629804D01*
X211825495Y-45626204D01*
X211849999Y-45625000D01*
X212875001Y-45625000D01*
X212899505Y-45626204D01*
G37*
G36*
X217574505Y-45626204D02*
G01*
X217598773Y-45629804D01*
X217622572Y-45635765D01*
X217645671Y-45644030D01*
X217667850Y-45654520D01*
X217688893Y-45667132D01*
X217708599Y-45681747D01*
X217726777Y-45698223D01*
X217743253Y-45716401D01*
X217757868Y-45736107D01*
X217770480Y-45757150D01*
X217780970Y-45779329D01*
X217789235Y-45802428D01*
X217795196Y-45826227D01*
X217798796Y-45850495D01*
X217800000Y-45874999D01*
X217800000Y-48025001D01*
X217798796Y-48049505D01*
X217795196Y-48073773D01*
X217789235Y-48097572D01*
X217780970Y-48120671D01*
X217770480Y-48142850D01*
X217757868Y-48163893D01*
X217743253Y-48183599D01*
X217726777Y-48201777D01*
X217708599Y-48218253D01*
X217688893Y-48232868D01*
X217667850Y-48245480D01*
X217645671Y-48255970D01*
X217622572Y-48264235D01*
X217598773Y-48270196D01*
X217574505Y-48273796D01*
X217550001Y-48275000D01*
X216524999Y-48275000D01*
X216500495Y-48273796D01*
X216476227Y-48270196D01*
X216452428Y-48264235D01*
X216429329Y-48255970D01*
X216407150Y-48245480D01*
X216386107Y-48232868D01*
X216366401Y-48218253D01*
X216348223Y-48201777D01*
X216331747Y-48183599D01*
X216317132Y-48163893D01*
X216304520Y-48142850D01*
X216294030Y-48120671D01*
X216285765Y-48097572D01*
X216279804Y-48073773D01*
X216276204Y-48049505D01*
X216275000Y-48025001D01*
X216275000Y-45874999D01*
X216276204Y-45850495D01*
X216279804Y-45826227D01*
X216285765Y-45802428D01*
X216294030Y-45779329D01*
X216304520Y-45757150D01*
X216317132Y-45736107D01*
X216331747Y-45716401D01*
X216348223Y-45698223D01*
X216366401Y-45681747D01*
X216386107Y-45667132D01*
X216407150Y-45654520D01*
X216429329Y-45644030D01*
X216452428Y-45635765D01*
X216476227Y-45629804D01*
X216500495Y-45626204D01*
X216524999Y-45625000D01*
X217550001Y-45625000D01*
X217574505Y-45626204D01*
G37*
G36*
X220449504Y-45801204D02*
G01*
X220473773Y-45804804D01*
X220497571Y-45810765D01*
X220520671Y-45819030D01*
X220542849Y-45829520D01*
X220563893Y-45842133D01*
X220583598Y-45856747D01*
X220601777Y-45873223D01*
X220618253Y-45891402D01*
X220632867Y-45911107D01*
X220645480Y-45932151D01*
X220655970Y-45954329D01*
X220664235Y-45977429D01*
X220670196Y-46001227D01*
X220673796Y-46025496D01*
X220675000Y-46050000D01*
X220675000Y-46975000D01*
X220673796Y-46999504D01*
X220670196Y-47023773D01*
X220664235Y-47047571D01*
X220655970Y-47070671D01*
X220645480Y-47092849D01*
X220632867Y-47113893D01*
X220618253Y-47133598D01*
X220601777Y-47151777D01*
X220583598Y-47168253D01*
X220563893Y-47182867D01*
X220542849Y-47195480D01*
X220520671Y-47205970D01*
X220497571Y-47214235D01*
X220473773Y-47220196D01*
X220449504Y-47223796D01*
X220425000Y-47225000D01*
X219175000Y-47225000D01*
X219150496Y-47223796D01*
X219126227Y-47220196D01*
X219102429Y-47214235D01*
X219079329Y-47205970D01*
X219057151Y-47195480D01*
X219036107Y-47182867D01*
X219016402Y-47168253D01*
X218998223Y-47151777D01*
X218981747Y-47133598D01*
X218967133Y-47113893D01*
X218954520Y-47092849D01*
X218944030Y-47070671D01*
X218935765Y-47047571D01*
X218929804Y-47023773D01*
X218926204Y-46999504D01*
X218925000Y-46975000D01*
X218925000Y-46050000D01*
X218926204Y-46025496D01*
X218929804Y-46001227D01*
X218935765Y-45977429D01*
X218944030Y-45954329D01*
X218954520Y-45932151D01*
X218967133Y-45911107D01*
X218981747Y-45891402D01*
X218998223Y-45873223D01*
X219016402Y-45856747D01*
X219036107Y-45842133D01*
X219057151Y-45829520D01*
X219079329Y-45819030D01*
X219102429Y-45810765D01*
X219126227Y-45804804D01*
X219150496Y-45801204D01*
X219175000Y-45800000D01*
X220425000Y-45800000D01*
X220449504Y-45801204D01*
G37*
G36*
X220449504Y-48776204D02*
G01*
X220473773Y-48779804D01*
X220497571Y-48785765D01*
X220520671Y-48794030D01*
X220542849Y-48804520D01*
X220563893Y-48817133D01*
X220583598Y-48831747D01*
X220601777Y-48848223D01*
X220618253Y-48866402D01*
X220632867Y-48886107D01*
X220645480Y-48907151D01*
X220655970Y-48929329D01*
X220664235Y-48952429D01*
X220670196Y-48976227D01*
X220673796Y-49000496D01*
X220675000Y-49025000D01*
X220675000Y-49950000D01*
X220673796Y-49974504D01*
X220670196Y-49998773D01*
X220664235Y-50022571D01*
X220655970Y-50045671D01*
X220645480Y-50067849D01*
X220632867Y-50088893D01*
X220618253Y-50108598D01*
X220601777Y-50126777D01*
X220583598Y-50143253D01*
X220563893Y-50157867D01*
X220542849Y-50170480D01*
X220520671Y-50180970D01*
X220497571Y-50189235D01*
X220473773Y-50195196D01*
X220449504Y-50198796D01*
X220425000Y-50200000D01*
X219175000Y-50200000D01*
X219150496Y-50198796D01*
X219126227Y-50195196D01*
X219102429Y-50189235D01*
X219079329Y-50180970D01*
X219057151Y-50170480D01*
X219036107Y-50157867D01*
X219016402Y-50143253D01*
X218998223Y-50126777D01*
X218981747Y-50108598D01*
X218967133Y-50088893D01*
X218954520Y-50067849D01*
X218944030Y-50045671D01*
X218935765Y-50022571D01*
X218929804Y-49998773D01*
X218926204Y-49974504D01*
X218925000Y-49950000D01*
X218925000Y-49025000D01*
X218926204Y-49000496D01*
X218929804Y-48976227D01*
X218935765Y-48952429D01*
X218944030Y-48929329D01*
X218954520Y-48907151D01*
X218967133Y-48886107D01*
X218981747Y-48866402D01*
X218998223Y-48848223D01*
X219016402Y-48831747D01*
X219036107Y-48817133D01*
X219057151Y-48804520D01*
X219079329Y-48794030D01*
X219102429Y-48785765D01*
X219126227Y-48779804D01*
X219150496Y-48776204D01*
X219175000Y-48775000D01*
X220425000Y-48775000D01*
X220449504Y-48776204D01*
G37*
D12*
X224608900Y-118741700D03*
X224608900Y-116341700D03*
X224608900Y-114141700D03*
X224608900Y-108341700D03*
X224608900Y-105891700D03*
X224608900Y-103541700D03*
X224608900Y-97911700D03*
X224608900Y-95541700D03*
D13*
X109854000Y-162815000D03*
X109854000Y-168015000D03*
D11*
G36*
X182599504Y-55126204D02*
G01*
X182623773Y-55129804D01*
X182647571Y-55135765D01*
X182670671Y-55144030D01*
X182692849Y-55154520D01*
X182713893Y-55167133D01*
X182733598Y-55181747D01*
X182751777Y-55198223D01*
X182768253Y-55216402D01*
X182782867Y-55236107D01*
X182795480Y-55257151D01*
X182805970Y-55279329D01*
X182814235Y-55302429D01*
X182820196Y-55326227D01*
X182823796Y-55350496D01*
X182825000Y-55375000D01*
X182825000Y-56625000D01*
X182823796Y-56649504D01*
X182820196Y-56673773D01*
X182814235Y-56697571D01*
X182805970Y-56720671D01*
X182795480Y-56742849D01*
X182782867Y-56763893D01*
X182768253Y-56783598D01*
X182751777Y-56801777D01*
X182733598Y-56818253D01*
X182713893Y-56832867D01*
X182692849Y-56845480D01*
X182670671Y-56855970D01*
X182647571Y-56864235D01*
X182623773Y-56870196D01*
X182599504Y-56873796D01*
X182575000Y-56875000D01*
X181650000Y-56875000D01*
X181625496Y-56873796D01*
X181601227Y-56870196D01*
X181577429Y-56864235D01*
X181554329Y-56855970D01*
X181532151Y-56845480D01*
X181511107Y-56832867D01*
X181491402Y-56818253D01*
X181473223Y-56801777D01*
X181456747Y-56783598D01*
X181442133Y-56763893D01*
X181429520Y-56742849D01*
X181419030Y-56720671D01*
X181410765Y-56697571D01*
X181404804Y-56673773D01*
X181401204Y-56649504D01*
X181400000Y-56625000D01*
X181400000Y-55375000D01*
X181401204Y-55350496D01*
X181404804Y-55326227D01*
X181410765Y-55302429D01*
X181419030Y-55279329D01*
X181429520Y-55257151D01*
X181442133Y-55236107D01*
X181456747Y-55216402D01*
X181473223Y-55198223D01*
X181491402Y-55181747D01*
X181511107Y-55167133D01*
X181532151Y-55154520D01*
X181554329Y-55144030D01*
X181577429Y-55135765D01*
X181601227Y-55129804D01*
X181625496Y-55126204D01*
X181650000Y-55125000D01*
X182575000Y-55125000D01*
X182599504Y-55126204D01*
G37*
G36*
X185574504Y-55126204D02*
G01*
X185598773Y-55129804D01*
X185622571Y-55135765D01*
X185645671Y-55144030D01*
X185667849Y-55154520D01*
X185688893Y-55167133D01*
X185708598Y-55181747D01*
X185726777Y-55198223D01*
X185743253Y-55216402D01*
X185757867Y-55236107D01*
X185770480Y-55257151D01*
X185780970Y-55279329D01*
X185789235Y-55302429D01*
X185795196Y-55326227D01*
X185798796Y-55350496D01*
X185800000Y-55375000D01*
X185800000Y-56625000D01*
X185798796Y-56649504D01*
X185795196Y-56673773D01*
X185789235Y-56697571D01*
X185780970Y-56720671D01*
X185770480Y-56742849D01*
X185757867Y-56763893D01*
X185743253Y-56783598D01*
X185726777Y-56801777D01*
X185708598Y-56818253D01*
X185688893Y-56832867D01*
X185667849Y-56845480D01*
X185645671Y-56855970D01*
X185622571Y-56864235D01*
X185598773Y-56870196D01*
X185574504Y-56873796D01*
X185550000Y-56875000D01*
X184625000Y-56875000D01*
X184600496Y-56873796D01*
X184576227Y-56870196D01*
X184552429Y-56864235D01*
X184529329Y-56855970D01*
X184507151Y-56845480D01*
X184486107Y-56832867D01*
X184466402Y-56818253D01*
X184448223Y-56801777D01*
X184431747Y-56783598D01*
X184417133Y-56763893D01*
X184404520Y-56742849D01*
X184394030Y-56720671D01*
X184385765Y-56697571D01*
X184379804Y-56673773D01*
X184376204Y-56649504D01*
X184375000Y-56625000D01*
X184375000Y-55375000D01*
X184376204Y-55350496D01*
X184379804Y-55326227D01*
X184385765Y-55302429D01*
X184394030Y-55279329D01*
X184404520Y-55257151D01*
X184417133Y-55236107D01*
X184431747Y-55216402D01*
X184448223Y-55198223D01*
X184466402Y-55181747D01*
X184486107Y-55167133D01*
X184507151Y-55154520D01*
X184529329Y-55144030D01*
X184552429Y-55135765D01*
X184576227Y-55129804D01*
X184600496Y-55126204D01*
X184625000Y-55125000D01*
X185550000Y-55125000D01*
X185574504Y-55126204D01*
G37*
G36*
X185574504Y-52526204D02*
G01*
X185598773Y-52529804D01*
X185622571Y-52535765D01*
X185645671Y-52544030D01*
X185667849Y-52554520D01*
X185688893Y-52567133D01*
X185708598Y-52581747D01*
X185726777Y-52598223D01*
X185743253Y-52616402D01*
X185757867Y-52636107D01*
X185770480Y-52657151D01*
X185780970Y-52679329D01*
X185789235Y-52702429D01*
X185795196Y-52726227D01*
X185798796Y-52750496D01*
X185800000Y-52775000D01*
X185800000Y-54025000D01*
X185798796Y-54049504D01*
X185795196Y-54073773D01*
X185789235Y-54097571D01*
X185780970Y-54120671D01*
X185770480Y-54142849D01*
X185757867Y-54163893D01*
X185743253Y-54183598D01*
X185726777Y-54201777D01*
X185708598Y-54218253D01*
X185688893Y-54232867D01*
X185667849Y-54245480D01*
X185645671Y-54255970D01*
X185622571Y-54264235D01*
X185598773Y-54270196D01*
X185574504Y-54273796D01*
X185550000Y-54275000D01*
X184625000Y-54275000D01*
X184600496Y-54273796D01*
X184576227Y-54270196D01*
X184552429Y-54264235D01*
X184529329Y-54255970D01*
X184507151Y-54245480D01*
X184486107Y-54232867D01*
X184466402Y-54218253D01*
X184448223Y-54201777D01*
X184431747Y-54183598D01*
X184417133Y-54163893D01*
X184404520Y-54142849D01*
X184394030Y-54120671D01*
X184385765Y-54097571D01*
X184379804Y-54073773D01*
X184376204Y-54049504D01*
X184375000Y-54025000D01*
X184375000Y-52775000D01*
X184376204Y-52750496D01*
X184379804Y-52726227D01*
X184385765Y-52702429D01*
X184394030Y-52679329D01*
X184404520Y-52657151D01*
X184417133Y-52636107D01*
X184431747Y-52616402D01*
X184448223Y-52598223D01*
X184466402Y-52581747D01*
X184486107Y-52567133D01*
X184507151Y-52554520D01*
X184529329Y-52544030D01*
X184552429Y-52535765D01*
X184576227Y-52529804D01*
X184600496Y-52526204D01*
X184625000Y-52525000D01*
X185550000Y-52525000D01*
X185574504Y-52526204D01*
G37*
G36*
X182599504Y-52526204D02*
G01*
X182623773Y-52529804D01*
X182647571Y-52535765D01*
X182670671Y-52544030D01*
X182692849Y-52554520D01*
X182713893Y-52567133D01*
X182733598Y-52581747D01*
X182751777Y-52598223D01*
X182768253Y-52616402D01*
X182782867Y-52636107D01*
X182795480Y-52657151D01*
X182805970Y-52679329D01*
X182814235Y-52702429D01*
X182820196Y-52726227D01*
X182823796Y-52750496D01*
X182825000Y-52775000D01*
X182825000Y-54025000D01*
X182823796Y-54049504D01*
X182820196Y-54073773D01*
X182814235Y-54097571D01*
X182805970Y-54120671D01*
X182795480Y-54142849D01*
X182782867Y-54163893D01*
X182768253Y-54183598D01*
X182751777Y-54201777D01*
X182733598Y-54218253D01*
X182713893Y-54232867D01*
X182692849Y-54245480D01*
X182670671Y-54255970D01*
X182647571Y-54264235D01*
X182623773Y-54270196D01*
X182599504Y-54273796D01*
X182575000Y-54275000D01*
X181650000Y-54275000D01*
X181625496Y-54273796D01*
X181601227Y-54270196D01*
X181577429Y-54264235D01*
X181554329Y-54255970D01*
X181532151Y-54245480D01*
X181511107Y-54232867D01*
X181491402Y-54218253D01*
X181473223Y-54201777D01*
X181456747Y-54183598D01*
X181442133Y-54163893D01*
X181429520Y-54142849D01*
X181419030Y-54120671D01*
X181410765Y-54097571D01*
X181404804Y-54073773D01*
X181401204Y-54049504D01*
X181400000Y-54025000D01*
X181400000Y-52775000D01*
X181401204Y-52750496D01*
X181404804Y-52726227D01*
X181410765Y-52702429D01*
X181419030Y-52679329D01*
X181429520Y-52657151D01*
X181442133Y-52636107D01*
X181456747Y-52616402D01*
X181473223Y-52598223D01*
X181491402Y-52581747D01*
X181511107Y-52567133D01*
X181532151Y-52554520D01*
X181554329Y-52544030D01*
X181577429Y-52535765D01*
X181601227Y-52529804D01*
X181625496Y-52526204D01*
X181650000Y-52525000D01*
X182575000Y-52525000D01*
X182599504Y-52526204D01*
G37*
G36*
X108999504Y-150926204D02*
G01*
X109023773Y-150929804D01*
X109047571Y-150935765D01*
X109070671Y-150944030D01*
X109092849Y-150954520D01*
X109113893Y-150967133D01*
X109133598Y-150981747D01*
X109151777Y-150998223D01*
X109168253Y-151016402D01*
X109182867Y-151036107D01*
X109195480Y-151057151D01*
X109205970Y-151079329D01*
X109214235Y-151102429D01*
X109220196Y-151126227D01*
X109223796Y-151150496D01*
X109225000Y-151175000D01*
X109225000Y-152425000D01*
X109223796Y-152449504D01*
X109220196Y-152473773D01*
X109214235Y-152497571D01*
X109205970Y-152520671D01*
X109195480Y-152542849D01*
X109182867Y-152563893D01*
X109168253Y-152583598D01*
X109151777Y-152601777D01*
X109133598Y-152618253D01*
X109113893Y-152632867D01*
X109092849Y-152645480D01*
X109070671Y-152655970D01*
X109047571Y-152664235D01*
X109023773Y-152670196D01*
X108999504Y-152673796D01*
X108975000Y-152675000D01*
X108050000Y-152675000D01*
X108025496Y-152673796D01*
X108001227Y-152670196D01*
X107977429Y-152664235D01*
X107954329Y-152655970D01*
X107932151Y-152645480D01*
X107911107Y-152632867D01*
X107891402Y-152618253D01*
X107873223Y-152601777D01*
X107856747Y-152583598D01*
X107842133Y-152563893D01*
X107829520Y-152542849D01*
X107819030Y-152520671D01*
X107810765Y-152497571D01*
X107804804Y-152473773D01*
X107801204Y-152449504D01*
X107800000Y-152425000D01*
X107800000Y-151175000D01*
X107801204Y-151150496D01*
X107804804Y-151126227D01*
X107810765Y-151102429D01*
X107819030Y-151079329D01*
X107829520Y-151057151D01*
X107842133Y-151036107D01*
X107856747Y-151016402D01*
X107873223Y-150998223D01*
X107891402Y-150981747D01*
X107911107Y-150967133D01*
X107932151Y-150954520D01*
X107954329Y-150944030D01*
X107977429Y-150935765D01*
X108001227Y-150929804D01*
X108025496Y-150926204D01*
X108050000Y-150925000D01*
X108975000Y-150925000D01*
X108999504Y-150926204D01*
G37*
G36*
X111974504Y-150926204D02*
G01*
X111998773Y-150929804D01*
X112022571Y-150935765D01*
X112045671Y-150944030D01*
X112067849Y-150954520D01*
X112088893Y-150967133D01*
X112108598Y-150981747D01*
X112126777Y-150998223D01*
X112143253Y-151016402D01*
X112157867Y-151036107D01*
X112170480Y-151057151D01*
X112180970Y-151079329D01*
X112189235Y-151102429D01*
X112195196Y-151126227D01*
X112198796Y-151150496D01*
X112200000Y-151175000D01*
X112200000Y-152425000D01*
X112198796Y-152449504D01*
X112195196Y-152473773D01*
X112189235Y-152497571D01*
X112180970Y-152520671D01*
X112170480Y-152542849D01*
X112157867Y-152563893D01*
X112143253Y-152583598D01*
X112126777Y-152601777D01*
X112108598Y-152618253D01*
X112088893Y-152632867D01*
X112067849Y-152645480D01*
X112045671Y-152655970D01*
X112022571Y-152664235D01*
X111998773Y-152670196D01*
X111974504Y-152673796D01*
X111950000Y-152675000D01*
X111025000Y-152675000D01*
X111000496Y-152673796D01*
X110976227Y-152670196D01*
X110952429Y-152664235D01*
X110929329Y-152655970D01*
X110907151Y-152645480D01*
X110886107Y-152632867D01*
X110866402Y-152618253D01*
X110848223Y-152601777D01*
X110831747Y-152583598D01*
X110817133Y-152563893D01*
X110804520Y-152542849D01*
X110794030Y-152520671D01*
X110785765Y-152497571D01*
X110779804Y-152473773D01*
X110776204Y-152449504D01*
X110775000Y-152425000D01*
X110775000Y-151175000D01*
X110776204Y-151150496D01*
X110779804Y-151126227D01*
X110785765Y-151102429D01*
X110794030Y-151079329D01*
X110804520Y-151057151D01*
X110817133Y-151036107D01*
X110831747Y-151016402D01*
X110848223Y-150998223D01*
X110866402Y-150981747D01*
X110886107Y-150967133D01*
X110907151Y-150954520D01*
X110929329Y-150944030D01*
X110952429Y-150935765D01*
X110976227Y-150929804D01*
X111000496Y-150926204D01*
X111025000Y-150925000D01*
X111950000Y-150925000D01*
X111974504Y-150926204D01*
G37*
D14*
X69250000Y-32250000D03*
X72500000Y-32250000D03*
D11*
G36*
X40509755Y-74450961D02*
G01*
X40519134Y-74453806D01*
X40527779Y-74458427D01*
X40535355Y-74464645D01*
X40541573Y-74472221D01*
X40546194Y-74480866D01*
X40549039Y-74490245D01*
X40550000Y-74500000D01*
X40550000Y-75450000D01*
X42450000Y-75450000D01*
X42450000Y-74500000D01*
X42450961Y-74490245D01*
X42453806Y-74480866D01*
X42458427Y-74472221D01*
X42464645Y-74464645D01*
X42472221Y-74458427D01*
X42480866Y-74453806D01*
X42490245Y-74450961D01*
X42500000Y-74450000D01*
X50000000Y-74450000D01*
X50009755Y-74450961D01*
X50019134Y-74453806D01*
X50027779Y-74458427D01*
X50035355Y-74464645D01*
X50041573Y-74472221D01*
X50046194Y-74480866D01*
X50049039Y-74490245D01*
X50050000Y-74500000D01*
X50050000Y-82000000D01*
X50049039Y-82009755D01*
X50046194Y-82019134D01*
X50041573Y-82027779D01*
X50035355Y-82035355D01*
X50027779Y-82041573D01*
X50019134Y-82046194D01*
X50009755Y-82049039D01*
X50000000Y-82050000D01*
X42500000Y-82050000D01*
X42490245Y-82049039D01*
X42480866Y-82046194D01*
X42472221Y-82041573D01*
X42464645Y-82035355D01*
X42458427Y-82027779D01*
X42453806Y-82019134D01*
X42450961Y-82009755D01*
X42450000Y-82000000D01*
X42450000Y-80550000D01*
X40550000Y-80550000D01*
X40550000Y-82000000D01*
X40549039Y-82009755D01*
X40546194Y-82019134D01*
X40541573Y-82027779D01*
X40535355Y-82035355D01*
X40527779Y-82041573D01*
X40519134Y-82046194D01*
X40509755Y-82049039D01*
X40500000Y-82050000D01*
X32500000Y-82050000D01*
X32490245Y-82049039D01*
X32480866Y-82046194D01*
X32472221Y-82041573D01*
X32464645Y-82035355D01*
X32458427Y-82027779D01*
X32453806Y-82019134D01*
X32450961Y-82009755D01*
X32450000Y-82000000D01*
X32450000Y-80550000D01*
X30750000Y-80550000D01*
X30750000Y-81500000D01*
X22750000Y-81500000D01*
X22750000Y-74500000D01*
X30750000Y-74500000D01*
X30750000Y-75450000D01*
X32450000Y-75450000D01*
X32450000Y-74500000D01*
X32450961Y-74490245D01*
X32453806Y-74480866D01*
X32458427Y-74472221D01*
X32464645Y-74464645D01*
X32472221Y-74458427D01*
X32480866Y-74453806D01*
X32490245Y-74450961D01*
X32500000Y-74450000D01*
X40500000Y-74450000D01*
X40509755Y-74450961D01*
G37*
D15*
X176850000Y-53300000D03*
X178750000Y-53300000D03*
X177800000Y-50300000D03*
D16*
X109100000Y-155050000D03*
X109100000Y-156950000D03*
X112100000Y-156000000D03*
D11*
G36*
X161449504Y-37288704D02*
G01*
X161473773Y-37292304D01*
X161497571Y-37298265D01*
X161520671Y-37306530D01*
X161542849Y-37317020D01*
X161563893Y-37329633D01*
X161583598Y-37344247D01*
X161601777Y-37360723D01*
X161618253Y-37378902D01*
X161632867Y-37398607D01*
X161645480Y-37419651D01*
X161655970Y-37441829D01*
X161664235Y-37464929D01*
X161670196Y-37488727D01*
X161673796Y-37512996D01*
X161675000Y-37537500D01*
X161675000Y-38462500D01*
X161673796Y-38487004D01*
X161670196Y-38511273D01*
X161664235Y-38535071D01*
X161655970Y-38558171D01*
X161645480Y-38580349D01*
X161632867Y-38601393D01*
X161618253Y-38621098D01*
X161601777Y-38639277D01*
X161583598Y-38655753D01*
X161563893Y-38670367D01*
X161542849Y-38682980D01*
X161520671Y-38693470D01*
X161497571Y-38701735D01*
X161473773Y-38707696D01*
X161449504Y-38711296D01*
X161425000Y-38712500D01*
X160175000Y-38712500D01*
X160150496Y-38711296D01*
X160126227Y-38707696D01*
X160102429Y-38701735D01*
X160079329Y-38693470D01*
X160057151Y-38682980D01*
X160036107Y-38670367D01*
X160016402Y-38655753D01*
X159998223Y-38639277D01*
X159981747Y-38621098D01*
X159967133Y-38601393D01*
X159954520Y-38580349D01*
X159944030Y-38558171D01*
X159935765Y-38535071D01*
X159929804Y-38511273D01*
X159926204Y-38487004D01*
X159925000Y-38462500D01*
X159925000Y-37537500D01*
X159926204Y-37512996D01*
X159929804Y-37488727D01*
X159935765Y-37464929D01*
X159944030Y-37441829D01*
X159954520Y-37419651D01*
X159967133Y-37398607D01*
X159981747Y-37378902D01*
X159998223Y-37360723D01*
X160016402Y-37344247D01*
X160036107Y-37329633D01*
X160057151Y-37317020D01*
X160079329Y-37306530D01*
X160102429Y-37298265D01*
X160126227Y-37292304D01*
X160150496Y-37288704D01*
X160175000Y-37287500D01*
X161425000Y-37287500D01*
X161449504Y-37288704D01*
G37*
G36*
X161449504Y-40263704D02*
G01*
X161473773Y-40267304D01*
X161497571Y-40273265D01*
X161520671Y-40281530D01*
X161542849Y-40292020D01*
X161563893Y-40304633D01*
X161583598Y-40319247D01*
X161601777Y-40335723D01*
X161618253Y-40353902D01*
X161632867Y-40373607D01*
X161645480Y-40394651D01*
X161655970Y-40416829D01*
X161664235Y-40439929D01*
X161670196Y-40463727D01*
X161673796Y-40487996D01*
X161675000Y-40512500D01*
X161675000Y-41437500D01*
X161673796Y-41462004D01*
X161670196Y-41486273D01*
X161664235Y-41510071D01*
X161655970Y-41533171D01*
X161645480Y-41555349D01*
X161632867Y-41576393D01*
X161618253Y-41596098D01*
X161601777Y-41614277D01*
X161583598Y-41630753D01*
X161563893Y-41645367D01*
X161542849Y-41657980D01*
X161520671Y-41668470D01*
X161497571Y-41676735D01*
X161473773Y-41682696D01*
X161449504Y-41686296D01*
X161425000Y-41687500D01*
X160175000Y-41687500D01*
X160150496Y-41686296D01*
X160126227Y-41682696D01*
X160102429Y-41676735D01*
X160079329Y-41668470D01*
X160057151Y-41657980D01*
X160036107Y-41645367D01*
X160016402Y-41630753D01*
X159998223Y-41614277D01*
X159981747Y-41596098D01*
X159967133Y-41576393D01*
X159954520Y-41555349D01*
X159944030Y-41533171D01*
X159935765Y-41510071D01*
X159929804Y-41486273D01*
X159926204Y-41462004D01*
X159925000Y-41437500D01*
X159925000Y-40512500D01*
X159926204Y-40487996D01*
X159929804Y-40463727D01*
X159935765Y-40439929D01*
X159944030Y-40416829D01*
X159954520Y-40394651D01*
X159967133Y-40373607D01*
X159981747Y-40353902D01*
X159998223Y-40335723D01*
X160016402Y-40319247D01*
X160036107Y-40304633D01*
X160057151Y-40292020D01*
X160079329Y-40281530D01*
X160102429Y-40273265D01*
X160126227Y-40267304D01*
X160150496Y-40263704D01*
X160175000Y-40262500D01*
X161425000Y-40262500D01*
X161449504Y-40263704D01*
G37*
G36*
X139649504Y-37201204D02*
G01*
X139673773Y-37204804D01*
X139697571Y-37210765D01*
X139720671Y-37219030D01*
X139742849Y-37229520D01*
X139763893Y-37242133D01*
X139783598Y-37256747D01*
X139801777Y-37273223D01*
X139818253Y-37291402D01*
X139832867Y-37311107D01*
X139845480Y-37332151D01*
X139855970Y-37354329D01*
X139864235Y-37377429D01*
X139870196Y-37401227D01*
X139873796Y-37425496D01*
X139875000Y-37450000D01*
X139875000Y-38375000D01*
X139873796Y-38399504D01*
X139870196Y-38423773D01*
X139864235Y-38447571D01*
X139855970Y-38470671D01*
X139845480Y-38492849D01*
X139832867Y-38513893D01*
X139818253Y-38533598D01*
X139801777Y-38551777D01*
X139783598Y-38568253D01*
X139763893Y-38582867D01*
X139742849Y-38595480D01*
X139720671Y-38605970D01*
X139697571Y-38614235D01*
X139673773Y-38620196D01*
X139649504Y-38623796D01*
X139625000Y-38625000D01*
X138375000Y-38625000D01*
X138350496Y-38623796D01*
X138326227Y-38620196D01*
X138302429Y-38614235D01*
X138279329Y-38605970D01*
X138257151Y-38595480D01*
X138236107Y-38582867D01*
X138216402Y-38568253D01*
X138198223Y-38551777D01*
X138181747Y-38533598D01*
X138167133Y-38513893D01*
X138154520Y-38492849D01*
X138144030Y-38470671D01*
X138135765Y-38447571D01*
X138129804Y-38423773D01*
X138126204Y-38399504D01*
X138125000Y-38375000D01*
X138125000Y-37450000D01*
X138126204Y-37425496D01*
X138129804Y-37401227D01*
X138135765Y-37377429D01*
X138144030Y-37354329D01*
X138154520Y-37332151D01*
X138167133Y-37311107D01*
X138181747Y-37291402D01*
X138198223Y-37273223D01*
X138216402Y-37256747D01*
X138236107Y-37242133D01*
X138257151Y-37229520D01*
X138279329Y-37219030D01*
X138302429Y-37210765D01*
X138326227Y-37204804D01*
X138350496Y-37201204D01*
X138375000Y-37200000D01*
X139625000Y-37200000D01*
X139649504Y-37201204D01*
G37*
G36*
X139649504Y-40176204D02*
G01*
X139673773Y-40179804D01*
X139697571Y-40185765D01*
X139720671Y-40194030D01*
X139742849Y-40204520D01*
X139763893Y-40217133D01*
X139783598Y-40231747D01*
X139801777Y-40248223D01*
X139818253Y-40266402D01*
X139832867Y-40286107D01*
X139845480Y-40307151D01*
X139855970Y-40329329D01*
X139864235Y-40352429D01*
X139870196Y-40376227D01*
X139873796Y-40400496D01*
X139875000Y-40425000D01*
X139875000Y-41350000D01*
X139873796Y-41374504D01*
X139870196Y-41398773D01*
X139864235Y-41422571D01*
X139855970Y-41445671D01*
X139845480Y-41467849D01*
X139832867Y-41488893D01*
X139818253Y-41508598D01*
X139801777Y-41526777D01*
X139783598Y-41543253D01*
X139763893Y-41557867D01*
X139742849Y-41570480D01*
X139720671Y-41580970D01*
X139697571Y-41589235D01*
X139673773Y-41595196D01*
X139649504Y-41598796D01*
X139625000Y-41600000D01*
X138375000Y-41600000D01*
X138350496Y-41598796D01*
X138326227Y-41595196D01*
X138302429Y-41589235D01*
X138279329Y-41580970D01*
X138257151Y-41570480D01*
X138236107Y-41557867D01*
X138216402Y-41543253D01*
X138198223Y-41526777D01*
X138181747Y-41508598D01*
X138167133Y-41488893D01*
X138154520Y-41467849D01*
X138144030Y-41445671D01*
X138135765Y-41422571D01*
X138129804Y-41398773D01*
X138126204Y-41374504D01*
X138125000Y-41350000D01*
X138125000Y-40425000D01*
X138126204Y-40400496D01*
X138129804Y-40376227D01*
X138135765Y-40352429D01*
X138144030Y-40329329D01*
X138154520Y-40307151D01*
X138167133Y-40286107D01*
X138181747Y-40266402D01*
X138198223Y-40248223D01*
X138216402Y-40231747D01*
X138236107Y-40217133D01*
X138257151Y-40204520D01*
X138279329Y-40194030D01*
X138302429Y-40185765D01*
X138326227Y-40179804D01*
X138350496Y-40176204D01*
X138375000Y-40175000D01*
X139625000Y-40175000D01*
X139649504Y-40176204D01*
G37*
G36*
X142287004Y-45076204D02*
G01*
X142311273Y-45079804D01*
X142335071Y-45085765D01*
X142358171Y-45094030D01*
X142380349Y-45104520D01*
X142401393Y-45117133D01*
X142421098Y-45131747D01*
X142439277Y-45148223D01*
X142455753Y-45166402D01*
X142470367Y-45186107D01*
X142482980Y-45207151D01*
X142493470Y-45229329D01*
X142501735Y-45252429D01*
X142507696Y-45276227D01*
X142511296Y-45300496D01*
X142512500Y-45325000D01*
X142512500Y-46575000D01*
X142511296Y-46599504D01*
X142507696Y-46623773D01*
X142501735Y-46647571D01*
X142493470Y-46670671D01*
X142482980Y-46692849D01*
X142470367Y-46713893D01*
X142455753Y-46733598D01*
X142439277Y-46751777D01*
X142421098Y-46768253D01*
X142401393Y-46782867D01*
X142380349Y-46795480D01*
X142358171Y-46805970D01*
X142335071Y-46814235D01*
X142311273Y-46820196D01*
X142287004Y-46823796D01*
X142262500Y-46825000D01*
X141337500Y-46825000D01*
X141312996Y-46823796D01*
X141288727Y-46820196D01*
X141264929Y-46814235D01*
X141241829Y-46805970D01*
X141219651Y-46795480D01*
X141198607Y-46782867D01*
X141178902Y-46768253D01*
X141160723Y-46751777D01*
X141144247Y-46733598D01*
X141129633Y-46713893D01*
X141117020Y-46692849D01*
X141106530Y-46670671D01*
X141098265Y-46647571D01*
X141092304Y-46623773D01*
X141088704Y-46599504D01*
X141087500Y-46575000D01*
X141087500Y-45325000D01*
X141088704Y-45300496D01*
X141092304Y-45276227D01*
X141098265Y-45252429D01*
X141106530Y-45229329D01*
X141117020Y-45207151D01*
X141129633Y-45186107D01*
X141144247Y-45166402D01*
X141160723Y-45148223D01*
X141178902Y-45131747D01*
X141198607Y-45117133D01*
X141219651Y-45104520D01*
X141241829Y-45094030D01*
X141264929Y-45085765D01*
X141288727Y-45079804D01*
X141312996Y-45076204D01*
X141337500Y-45075000D01*
X142262500Y-45075000D01*
X142287004Y-45076204D01*
G37*
G36*
X139312004Y-45076204D02*
G01*
X139336273Y-45079804D01*
X139360071Y-45085765D01*
X139383171Y-45094030D01*
X139405349Y-45104520D01*
X139426393Y-45117133D01*
X139446098Y-45131747D01*
X139464277Y-45148223D01*
X139480753Y-45166402D01*
X139495367Y-45186107D01*
X139507980Y-45207151D01*
X139518470Y-45229329D01*
X139526735Y-45252429D01*
X139532696Y-45276227D01*
X139536296Y-45300496D01*
X139537500Y-45325000D01*
X139537500Y-46575000D01*
X139536296Y-46599504D01*
X139532696Y-46623773D01*
X139526735Y-46647571D01*
X139518470Y-46670671D01*
X139507980Y-46692849D01*
X139495367Y-46713893D01*
X139480753Y-46733598D01*
X139464277Y-46751777D01*
X139446098Y-46768253D01*
X139426393Y-46782867D01*
X139405349Y-46795480D01*
X139383171Y-46805970D01*
X139360071Y-46814235D01*
X139336273Y-46820196D01*
X139312004Y-46823796D01*
X139287500Y-46825000D01*
X138362500Y-46825000D01*
X138337996Y-46823796D01*
X138313727Y-46820196D01*
X138289929Y-46814235D01*
X138266829Y-46805970D01*
X138244651Y-46795480D01*
X138223607Y-46782867D01*
X138203902Y-46768253D01*
X138185723Y-46751777D01*
X138169247Y-46733598D01*
X138154633Y-46713893D01*
X138142020Y-46692849D01*
X138131530Y-46670671D01*
X138123265Y-46647571D01*
X138117304Y-46623773D01*
X138113704Y-46599504D01*
X138112500Y-46575000D01*
X138112500Y-45325000D01*
X138113704Y-45300496D01*
X138117304Y-45276227D01*
X138123265Y-45252429D01*
X138131530Y-45229329D01*
X138142020Y-45207151D01*
X138154633Y-45186107D01*
X138169247Y-45166402D01*
X138185723Y-45148223D01*
X138203902Y-45131747D01*
X138223607Y-45117133D01*
X138244651Y-45104520D01*
X138266829Y-45094030D01*
X138289929Y-45085765D01*
X138313727Y-45079804D01*
X138337996Y-45076204D01*
X138362500Y-45075000D01*
X139287500Y-45075000D01*
X139312004Y-45076204D01*
G37*
G36*
X161224504Y-45076204D02*
G01*
X161248773Y-45079804D01*
X161272571Y-45085765D01*
X161295671Y-45094030D01*
X161317849Y-45104520D01*
X161338893Y-45117133D01*
X161358598Y-45131747D01*
X161376777Y-45148223D01*
X161393253Y-45166402D01*
X161407867Y-45186107D01*
X161420480Y-45207151D01*
X161430970Y-45229329D01*
X161439235Y-45252429D01*
X161445196Y-45276227D01*
X161448796Y-45300496D01*
X161450000Y-45325000D01*
X161450000Y-46575000D01*
X161448796Y-46599504D01*
X161445196Y-46623773D01*
X161439235Y-46647571D01*
X161430970Y-46670671D01*
X161420480Y-46692849D01*
X161407867Y-46713893D01*
X161393253Y-46733598D01*
X161376777Y-46751777D01*
X161358598Y-46768253D01*
X161338893Y-46782867D01*
X161317849Y-46795480D01*
X161295671Y-46805970D01*
X161272571Y-46814235D01*
X161248773Y-46820196D01*
X161224504Y-46823796D01*
X161200000Y-46825000D01*
X160275000Y-46825000D01*
X160250496Y-46823796D01*
X160226227Y-46820196D01*
X160202429Y-46814235D01*
X160179329Y-46805970D01*
X160157151Y-46795480D01*
X160136107Y-46782867D01*
X160116402Y-46768253D01*
X160098223Y-46751777D01*
X160081747Y-46733598D01*
X160067133Y-46713893D01*
X160054520Y-46692849D01*
X160044030Y-46670671D01*
X160035765Y-46647571D01*
X160029804Y-46623773D01*
X160026204Y-46599504D01*
X160025000Y-46575000D01*
X160025000Y-45325000D01*
X160026204Y-45300496D01*
X160029804Y-45276227D01*
X160035765Y-45252429D01*
X160044030Y-45229329D01*
X160054520Y-45207151D01*
X160067133Y-45186107D01*
X160081747Y-45166402D01*
X160098223Y-45148223D01*
X160116402Y-45131747D01*
X160136107Y-45117133D01*
X160157151Y-45104520D01*
X160179329Y-45094030D01*
X160202429Y-45085765D01*
X160226227Y-45079804D01*
X160250496Y-45076204D01*
X160275000Y-45075000D01*
X161200000Y-45075000D01*
X161224504Y-45076204D01*
G37*
G36*
X158249504Y-45076204D02*
G01*
X158273773Y-45079804D01*
X158297571Y-45085765D01*
X158320671Y-45094030D01*
X158342849Y-45104520D01*
X158363893Y-45117133D01*
X158383598Y-45131747D01*
X158401777Y-45148223D01*
X158418253Y-45166402D01*
X158432867Y-45186107D01*
X158445480Y-45207151D01*
X158455970Y-45229329D01*
X158464235Y-45252429D01*
X158470196Y-45276227D01*
X158473796Y-45300496D01*
X158475000Y-45325000D01*
X158475000Y-46575000D01*
X158473796Y-46599504D01*
X158470196Y-46623773D01*
X158464235Y-46647571D01*
X158455970Y-46670671D01*
X158445480Y-46692849D01*
X158432867Y-46713893D01*
X158418253Y-46733598D01*
X158401777Y-46751777D01*
X158383598Y-46768253D01*
X158363893Y-46782867D01*
X158342849Y-46795480D01*
X158320671Y-46805970D01*
X158297571Y-46814235D01*
X158273773Y-46820196D01*
X158249504Y-46823796D01*
X158225000Y-46825000D01*
X157300000Y-46825000D01*
X157275496Y-46823796D01*
X157251227Y-46820196D01*
X157227429Y-46814235D01*
X157204329Y-46805970D01*
X157182151Y-46795480D01*
X157161107Y-46782867D01*
X157141402Y-46768253D01*
X157123223Y-46751777D01*
X157106747Y-46733598D01*
X157092133Y-46713893D01*
X157079520Y-46692849D01*
X157069030Y-46670671D01*
X157060765Y-46647571D01*
X157054804Y-46623773D01*
X157051204Y-46599504D01*
X157050000Y-46575000D01*
X157050000Y-45325000D01*
X157051204Y-45300496D01*
X157054804Y-45276227D01*
X157060765Y-45252429D01*
X157069030Y-45229329D01*
X157079520Y-45207151D01*
X157092133Y-45186107D01*
X157106747Y-45166402D01*
X157123223Y-45148223D01*
X157141402Y-45131747D01*
X157161107Y-45117133D01*
X157182151Y-45104520D01*
X157204329Y-45094030D01*
X157227429Y-45085765D01*
X157251227Y-45079804D01*
X157275496Y-45076204D01*
X157300000Y-45075000D01*
X158225000Y-45075000D01*
X158249504Y-45076204D01*
G37*
G36*
X165049504Y-40176204D02*
G01*
X165073773Y-40179804D01*
X165097571Y-40185765D01*
X165120671Y-40194030D01*
X165142849Y-40204520D01*
X165163893Y-40217133D01*
X165183598Y-40231747D01*
X165201777Y-40248223D01*
X165218253Y-40266402D01*
X165232867Y-40286107D01*
X165245480Y-40307151D01*
X165255970Y-40329329D01*
X165264235Y-40352429D01*
X165270196Y-40376227D01*
X165273796Y-40400496D01*
X165275000Y-40425000D01*
X165275000Y-41350000D01*
X165273796Y-41374504D01*
X165270196Y-41398773D01*
X165264235Y-41422571D01*
X165255970Y-41445671D01*
X165245480Y-41467849D01*
X165232867Y-41488893D01*
X165218253Y-41508598D01*
X165201777Y-41526777D01*
X165183598Y-41543253D01*
X165163893Y-41557867D01*
X165142849Y-41570480D01*
X165120671Y-41580970D01*
X165097571Y-41589235D01*
X165073773Y-41595196D01*
X165049504Y-41598796D01*
X165025000Y-41600000D01*
X163775000Y-41600000D01*
X163750496Y-41598796D01*
X163726227Y-41595196D01*
X163702429Y-41589235D01*
X163679329Y-41580970D01*
X163657151Y-41570480D01*
X163636107Y-41557867D01*
X163616402Y-41543253D01*
X163598223Y-41526777D01*
X163581747Y-41508598D01*
X163567133Y-41488893D01*
X163554520Y-41467849D01*
X163544030Y-41445671D01*
X163535765Y-41422571D01*
X163529804Y-41398773D01*
X163526204Y-41374504D01*
X163525000Y-41350000D01*
X163525000Y-40425000D01*
X163526204Y-40400496D01*
X163529804Y-40376227D01*
X163535765Y-40352429D01*
X163544030Y-40329329D01*
X163554520Y-40307151D01*
X163567133Y-40286107D01*
X163581747Y-40266402D01*
X163598223Y-40248223D01*
X163616402Y-40231747D01*
X163636107Y-40217133D01*
X163657151Y-40204520D01*
X163679329Y-40194030D01*
X163702429Y-40185765D01*
X163726227Y-40179804D01*
X163750496Y-40176204D01*
X163775000Y-40175000D01*
X165025000Y-40175000D01*
X165049504Y-40176204D01*
G37*
G36*
X165049504Y-37201204D02*
G01*
X165073773Y-37204804D01*
X165097571Y-37210765D01*
X165120671Y-37219030D01*
X165142849Y-37229520D01*
X165163893Y-37242133D01*
X165183598Y-37256747D01*
X165201777Y-37273223D01*
X165218253Y-37291402D01*
X165232867Y-37311107D01*
X165245480Y-37332151D01*
X165255970Y-37354329D01*
X165264235Y-37377429D01*
X165270196Y-37401227D01*
X165273796Y-37425496D01*
X165275000Y-37450000D01*
X165275000Y-38375000D01*
X165273796Y-38399504D01*
X165270196Y-38423773D01*
X165264235Y-38447571D01*
X165255970Y-38470671D01*
X165245480Y-38492849D01*
X165232867Y-38513893D01*
X165218253Y-38533598D01*
X165201777Y-38551777D01*
X165183598Y-38568253D01*
X165163893Y-38582867D01*
X165142849Y-38595480D01*
X165120671Y-38605970D01*
X165097571Y-38614235D01*
X165073773Y-38620196D01*
X165049504Y-38623796D01*
X165025000Y-38625000D01*
X163775000Y-38625000D01*
X163750496Y-38623796D01*
X163726227Y-38620196D01*
X163702429Y-38614235D01*
X163679329Y-38605970D01*
X163657151Y-38595480D01*
X163636107Y-38582867D01*
X163616402Y-38568253D01*
X163598223Y-38551777D01*
X163581747Y-38533598D01*
X163567133Y-38513893D01*
X163554520Y-38492849D01*
X163544030Y-38470671D01*
X163535765Y-38447571D01*
X163529804Y-38423773D01*
X163526204Y-38399504D01*
X163525000Y-38375000D01*
X163525000Y-37450000D01*
X163526204Y-37425496D01*
X163529804Y-37401227D01*
X163535765Y-37377429D01*
X163544030Y-37354329D01*
X163554520Y-37332151D01*
X163567133Y-37311107D01*
X163581747Y-37291402D01*
X163598223Y-37273223D01*
X163616402Y-37256747D01*
X163636107Y-37242133D01*
X163657151Y-37229520D01*
X163679329Y-37219030D01*
X163702429Y-37210765D01*
X163726227Y-37204804D01*
X163750496Y-37201204D01*
X163775000Y-37200000D01*
X165025000Y-37200000D01*
X165049504Y-37201204D01*
G37*
G36*
X157649504Y-40263704D02*
G01*
X157673773Y-40267304D01*
X157697571Y-40273265D01*
X157720671Y-40281530D01*
X157742849Y-40292020D01*
X157763893Y-40304633D01*
X157783598Y-40319247D01*
X157801777Y-40335723D01*
X157818253Y-40353902D01*
X157832867Y-40373607D01*
X157845480Y-40394651D01*
X157855970Y-40416829D01*
X157864235Y-40439929D01*
X157870196Y-40463727D01*
X157873796Y-40487996D01*
X157875000Y-40512500D01*
X157875000Y-41437500D01*
X157873796Y-41462004D01*
X157870196Y-41486273D01*
X157864235Y-41510071D01*
X157855970Y-41533171D01*
X157845480Y-41555349D01*
X157832867Y-41576393D01*
X157818253Y-41596098D01*
X157801777Y-41614277D01*
X157783598Y-41630753D01*
X157763893Y-41645367D01*
X157742849Y-41657980D01*
X157720671Y-41668470D01*
X157697571Y-41676735D01*
X157673773Y-41682696D01*
X157649504Y-41686296D01*
X157625000Y-41687500D01*
X156375000Y-41687500D01*
X156350496Y-41686296D01*
X156326227Y-41682696D01*
X156302429Y-41676735D01*
X156279329Y-41668470D01*
X156257151Y-41657980D01*
X156236107Y-41645367D01*
X156216402Y-41630753D01*
X156198223Y-41614277D01*
X156181747Y-41596098D01*
X156167133Y-41576393D01*
X156154520Y-41555349D01*
X156144030Y-41533171D01*
X156135765Y-41510071D01*
X156129804Y-41486273D01*
X156126204Y-41462004D01*
X156125000Y-41437500D01*
X156125000Y-40512500D01*
X156126204Y-40487996D01*
X156129804Y-40463727D01*
X156135765Y-40439929D01*
X156144030Y-40416829D01*
X156154520Y-40394651D01*
X156167133Y-40373607D01*
X156181747Y-40353902D01*
X156198223Y-40335723D01*
X156216402Y-40319247D01*
X156236107Y-40304633D01*
X156257151Y-40292020D01*
X156279329Y-40281530D01*
X156302429Y-40273265D01*
X156326227Y-40267304D01*
X156350496Y-40263704D01*
X156375000Y-40262500D01*
X157625000Y-40262500D01*
X157649504Y-40263704D01*
G37*
G36*
X157649504Y-37288704D02*
G01*
X157673773Y-37292304D01*
X157697571Y-37298265D01*
X157720671Y-37306530D01*
X157742849Y-37317020D01*
X157763893Y-37329633D01*
X157783598Y-37344247D01*
X157801777Y-37360723D01*
X157818253Y-37378902D01*
X157832867Y-37398607D01*
X157845480Y-37419651D01*
X157855970Y-37441829D01*
X157864235Y-37464929D01*
X157870196Y-37488727D01*
X157873796Y-37512996D01*
X157875000Y-37537500D01*
X157875000Y-38462500D01*
X157873796Y-38487004D01*
X157870196Y-38511273D01*
X157864235Y-38535071D01*
X157855970Y-38558171D01*
X157845480Y-38580349D01*
X157832867Y-38601393D01*
X157818253Y-38621098D01*
X157801777Y-38639277D01*
X157783598Y-38655753D01*
X157763893Y-38670367D01*
X157742849Y-38682980D01*
X157720671Y-38693470D01*
X157697571Y-38701735D01*
X157673773Y-38707696D01*
X157649504Y-38711296D01*
X157625000Y-38712500D01*
X156375000Y-38712500D01*
X156350496Y-38711296D01*
X156326227Y-38707696D01*
X156302429Y-38701735D01*
X156279329Y-38693470D01*
X156257151Y-38682980D01*
X156236107Y-38670367D01*
X156216402Y-38655753D01*
X156198223Y-38639277D01*
X156181747Y-38621098D01*
X156167133Y-38601393D01*
X156154520Y-38580349D01*
X156144030Y-38558171D01*
X156135765Y-38535071D01*
X156129804Y-38511273D01*
X156126204Y-38487004D01*
X156125000Y-38462500D01*
X156125000Y-37537500D01*
X156126204Y-37512996D01*
X156129804Y-37488727D01*
X156135765Y-37464929D01*
X156144030Y-37441829D01*
X156154520Y-37419651D01*
X156167133Y-37398607D01*
X156181747Y-37378902D01*
X156198223Y-37360723D01*
X156216402Y-37344247D01*
X156236107Y-37329633D01*
X156257151Y-37317020D01*
X156279329Y-37306530D01*
X156302429Y-37298265D01*
X156326227Y-37292304D01*
X156350496Y-37288704D01*
X156375000Y-37287500D01*
X157625000Y-37287500D01*
X157649504Y-37288704D01*
G37*
G36*
X142649504Y-40088704D02*
G01*
X142673773Y-40092304D01*
X142697571Y-40098265D01*
X142720671Y-40106530D01*
X142742849Y-40117020D01*
X142763893Y-40129633D01*
X142783598Y-40144247D01*
X142801777Y-40160723D01*
X142818253Y-40178902D01*
X142832867Y-40198607D01*
X142845480Y-40219651D01*
X142855970Y-40241829D01*
X142864235Y-40264929D01*
X142870196Y-40288727D01*
X142873796Y-40312996D01*
X142875000Y-40337500D01*
X142875000Y-41262500D01*
X142873796Y-41287004D01*
X142870196Y-41311273D01*
X142864235Y-41335071D01*
X142855970Y-41358171D01*
X142845480Y-41380349D01*
X142832867Y-41401393D01*
X142818253Y-41421098D01*
X142801777Y-41439277D01*
X142783598Y-41455753D01*
X142763893Y-41470367D01*
X142742849Y-41482980D01*
X142720671Y-41493470D01*
X142697571Y-41501735D01*
X142673773Y-41507696D01*
X142649504Y-41511296D01*
X142625000Y-41512500D01*
X141375000Y-41512500D01*
X141350496Y-41511296D01*
X141326227Y-41507696D01*
X141302429Y-41501735D01*
X141279329Y-41493470D01*
X141257151Y-41482980D01*
X141236107Y-41470367D01*
X141216402Y-41455753D01*
X141198223Y-41439277D01*
X141181747Y-41421098D01*
X141167133Y-41401393D01*
X141154520Y-41380349D01*
X141144030Y-41358171D01*
X141135765Y-41335071D01*
X141129804Y-41311273D01*
X141126204Y-41287004D01*
X141125000Y-41262500D01*
X141125000Y-40337500D01*
X141126204Y-40312996D01*
X141129804Y-40288727D01*
X141135765Y-40264929D01*
X141144030Y-40241829D01*
X141154520Y-40219651D01*
X141167133Y-40198607D01*
X141181747Y-40178902D01*
X141198223Y-40160723D01*
X141216402Y-40144247D01*
X141236107Y-40129633D01*
X141257151Y-40117020D01*
X141279329Y-40106530D01*
X141302429Y-40098265D01*
X141326227Y-40092304D01*
X141350496Y-40088704D01*
X141375000Y-40087500D01*
X142625000Y-40087500D01*
X142649504Y-40088704D01*
G37*
G36*
X142649504Y-37113704D02*
G01*
X142673773Y-37117304D01*
X142697571Y-37123265D01*
X142720671Y-37131530D01*
X142742849Y-37142020D01*
X142763893Y-37154633D01*
X142783598Y-37169247D01*
X142801777Y-37185723D01*
X142818253Y-37203902D01*
X142832867Y-37223607D01*
X142845480Y-37244651D01*
X142855970Y-37266829D01*
X142864235Y-37289929D01*
X142870196Y-37313727D01*
X142873796Y-37337996D01*
X142875000Y-37362500D01*
X142875000Y-38287500D01*
X142873796Y-38312004D01*
X142870196Y-38336273D01*
X142864235Y-38360071D01*
X142855970Y-38383171D01*
X142845480Y-38405349D01*
X142832867Y-38426393D01*
X142818253Y-38446098D01*
X142801777Y-38464277D01*
X142783598Y-38480753D01*
X142763893Y-38495367D01*
X142742849Y-38507980D01*
X142720671Y-38518470D01*
X142697571Y-38526735D01*
X142673773Y-38532696D01*
X142649504Y-38536296D01*
X142625000Y-38537500D01*
X141375000Y-38537500D01*
X141350496Y-38536296D01*
X141326227Y-38532696D01*
X141302429Y-38526735D01*
X141279329Y-38518470D01*
X141257151Y-38507980D01*
X141236107Y-38495367D01*
X141216402Y-38480753D01*
X141198223Y-38464277D01*
X141181747Y-38446098D01*
X141167133Y-38426393D01*
X141154520Y-38405349D01*
X141144030Y-38383171D01*
X141135765Y-38360071D01*
X141129804Y-38336273D01*
X141126204Y-38312004D01*
X141125000Y-38287500D01*
X141125000Y-37362500D01*
X141126204Y-37337996D01*
X141129804Y-37313727D01*
X141135765Y-37289929D01*
X141144030Y-37266829D01*
X141154520Y-37244651D01*
X141167133Y-37223607D01*
X141181747Y-37203902D01*
X141198223Y-37185723D01*
X141216402Y-37169247D01*
X141236107Y-37154633D01*
X141257151Y-37142020D01*
X141279329Y-37131530D01*
X141302429Y-37123265D01*
X141326227Y-37117304D01*
X141350496Y-37113704D01*
X141375000Y-37112500D01*
X142625000Y-37112500D01*
X142649504Y-37113704D01*
G37*
G36*
X139312004Y-42526204D02*
G01*
X139336273Y-42529804D01*
X139360071Y-42535765D01*
X139383171Y-42544030D01*
X139405349Y-42554520D01*
X139426393Y-42567133D01*
X139446098Y-42581747D01*
X139464277Y-42598223D01*
X139480753Y-42616402D01*
X139495367Y-42636107D01*
X139507980Y-42657151D01*
X139518470Y-42679329D01*
X139526735Y-42702429D01*
X139532696Y-42726227D01*
X139536296Y-42750496D01*
X139537500Y-42775000D01*
X139537500Y-44025000D01*
X139536296Y-44049504D01*
X139532696Y-44073773D01*
X139526735Y-44097571D01*
X139518470Y-44120671D01*
X139507980Y-44142849D01*
X139495367Y-44163893D01*
X139480753Y-44183598D01*
X139464277Y-44201777D01*
X139446098Y-44218253D01*
X139426393Y-44232867D01*
X139405349Y-44245480D01*
X139383171Y-44255970D01*
X139360071Y-44264235D01*
X139336273Y-44270196D01*
X139312004Y-44273796D01*
X139287500Y-44275000D01*
X138362500Y-44275000D01*
X138337996Y-44273796D01*
X138313727Y-44270196D01*
X138289929Y-44264235D01*
X138266829Y-44255970D01*
X138244651Y-44245480D01*
X138223607Y-44232867D01*
X138203902Y-44218253D01*
X138185723Y-44201777D01*
X138169247Y-44183598D01*
X138154633Y-44163893D01*
X138142020Y-44142849D01*
X138131530Y-44120671D01*
X138123265Y-44097571D01*
X138117304Y-44073773D01*
X138113704Y-44049504D01*
X138112500Y-44025000D01*
X138112500Y-42775000D01*
X138113704Y-42750496D01*
X138117304Y-42726227D01*
X138123265Y-42702429D01*
X138131530Y-42679329D01*
X138142020Y-42657151D01*
X138154633Y-42636107D01*
X138169247Y-42616402D01*
X138185723Y-42598223D01*
X138203902Y-42581747D01*
X138223607Y-42567133D01*
X138244651Y-42554520D01*
X138266829Y-42544030D01*
X138289929Y-42535765D01*
X138313727Y-42529804D01*
X138337996Y-42526204D01*
X138362500Y-42525000D01*
X139287500Y-42525000D01*
X139312004Y-42526204D01*
G37*
G36*
X142287004Y-42526204D02*
G01*
X142311273Y-42529804D01*
X142335071Y-42535765D01*
X142358171Y-42544030D01*
X142380349Y-42554520D01*
X142401393Y-42567133D01*
X142421098Y-42581747D01*
X142439277Y-42598223D01*
X142455753Y-42616402D01*
X142470367Y-42636107D01*
X142482980Y-42657151D01*
X142493470Y-42679329D01*
X142501735Y-42702429D01*
X142507696Y-42726227D01*
X142511296Y-42750496D01*
X142512500Y-42775000D01*
X142512500Y-44025000D01*
X142511296Y-44049504D01*
X142507696Y-44073773D01*
X142501735Y-44097571D01*
X142493470Y-44120671D01*
X142482980Y-44142849D01*
X142470367Y-44163893D01*
X142455753Y-44183598D01*
X142439277Y-44201777D01*
X142421098Y-44218253D01*
X142401393Y-44232867D01*
X142380349Y-44245480D01*
X142358171Y-44255970D01*
X142335071Y-44264235D01*
X142311273Y-44270196D01*
X142287004Y-44273796D01*
X142262500Y-44275000D01*
X141337500Y-44275000D01*
X141312996Y-44273796D01*
X141288727Y-44270196D01*
X141264929Y-44264235D01*
X141241829Y-44255970D01*
X141219651Y-44245480D01*
X141198607Y-44232867D01*
X141178902Y-44218253D01*
X141160723Y-44201777D01*
X141144247Y-44183598D01*
X141129633Y-44163893D01*
X141117020Y-44142849D01*
X141106530Y-44120671D01*
X141098265Y-44097571D01*
X141092304Y-44073773D01*
X141088704Y-44049504D01*
X141087500Y-44025000D01*
X141087500Y-42775000D01*
X141088704Y-42750496D01*
X141092304Y-42726227D01*
X141098265Y-42702429D01*
X141106530Y-42679329D01*
X141117020Y-42657151D01*
X141129633Y-42636107D01*
X141144247Y-42616402D01*
X141160723Y-42598223D01*
X141178902Y-42581747D01*
X141198607Y-42567133D01*
X141219651Y-42554520D01*
X141241829Y-42544030D01*
X141264929Y-42535765D01*
X141288727Y-42529804D01*
X141312996Y-42526204D01*
X141337500Y-42525000D01*
X142262500Y-42525000D01*
X142287004Y-42526204D01*
G37*
D17*
X151388000Y-46155499D03*
X151388000Y-44885499D03*
X151388000Y-43615499D03*
X151388000Y-42345499D03*
X151388000Y-41075499D03*
X151388000Y-39805499D03*
X151388000Y-38535499D03*
X151388000Y-37265499D03*
X145800000Y-37265499D03*
X145800000Y-38535499D03*
X145800000Y-39805499D03*
X145800000Y-41075499D03*
X145800000Y-42345499D03*
X145800000Y-43615499D03*
X145800000Y-44885499D03*
X145800000Y-46155499D03*
D11*
G36*
X158199504Y-42726204D02*
G01*
X158223773Y-42729804D01*
X158247571Y-42735765D01*
X158270671Y-42744030D01*
X158292849Y-42754520D01*
X158313893Y-42767133D01*
X158333598Y-42781747D01*
X158351777Y-42798223D01*
X158368253Y-42816402D01*
X158382867Y-42836107D01*
X158395480Y-42857151D01*
X158405970Y-42879329D01*
X158414235Y-42902429D01*
X158420196Y-42926227D01*
X158423796Y-42950496D01*
X158425000Y-42975000D01*
X158425000Y-44225000D01*
X158423796Y-44249504D01*
X158420196Y-44273773D01*
X158414235Y-44297571D01*
X158405970Y-44320671D01*
X158395480Y-44342849D01*
X158382867Y-44363893D01*
X158368253Y-44383598D01*
X158351777Y-44401777D01*
X158333598Y-44418253D01*
X158313893Y-44432867D01*
X158292849Y-44445480D01*
X158270671Y-44455970D01*
X158247571Y-44464235D01*
X158223773Y-44470196D01*
X158199504Y-44473796D01*
X158175000Y-44475000D01*
X157250000Y-44475000D01*
X157225496Y-44473796D01*
X157201227Y-44470196D01*
X157177429Y-44464235D01*
X157154329Y-44455970D01*
X157132151Y-44445480D01*
X157111107Y-44432867D01*
X157091402Y-44418253D01*
X157073223Y-44401777D01*
X157056747Y-44383598D01*
X157042133Y-44363893D01*
X157029520Y-44342849D01*
X157019030Y-44320671D01*
X157010765Y-44297571D01*
X157004804Y-44273773D01*
X157001204Y-44249504D01*
X157000000Y-44225000D01*
X157000000Y-42975000D01*
X157001204Y-42950496D01*
X157004804Y-42926227D01*
X157010765Y-42902429D01*
X157019030Y-42879329D01*
X157029520Y-42857151D01*
X157042133Y-42836107D01*
X157056747Y-42816402D01*
X157073223Y-42798223D01*
X157091402Y-42781747D01*
X157111107Y-42767133D01*
X157132151Y-42754520D01*
X157154329Y-42744030D01*
X157177429Y-42735765D01*
X157201227Y-42729804D01*
X157225496Y-42726204D01*
X157250000Y-42725000D01*
X158175000Y-42725000D01*
X158199504Y-42726204D01*
G37*
G36*
X161174504Y-42726204D02*
G01*
X161198773Y-42729804D01*
X161222571Y-42735765D01*
X161245671Y-42744030D01*
X161267849Y-42754520D01*
X161288893Y-42767133D01*
X161308598Y-42781747D01*
X161326777Y-42798223D01*
X161343253Y-42816402D01*
X161357867Y-42836107D01*
X161370480Y-42857151D01*
X161380970Y-42879329D01*
X161389235Y-42902429D01*
X161395196Y-42926227D01*
X161398796Y-42950496D01*
X161400000Y-42975000D01*
X161400000Y-44225000D01*
X161398796Y-44249504D01*
X161395196Y-44273773D01*
X161389235Y-44297571D01*
X161380970Y-44320671D01*
X161370480Y-44342849D01*
X161357867Y-44363893D01*
X161343253Y-44383598D01*
X161326777Y-44401777D01*
X161308598Y-44418253D01*
X161288893Y-44432867D01*
X161267849Y-44445480D01*
X161245671Y-44455970D01*
X161222571Y-44464235D01*
X161198773Y-44470196D01*
X161174504Y-44473796D01*
X161150000Y-44475000D01*
X160225000Y-44475000D01*
X160200496Y-44473796D01*
X160176227Y-44470196D01*
X160152429Y-44464235D01*
X160129329Y-44455970D01*
X160107151Y-44445480D01*
X160086107Y-44432867D01*
X160066402Y-44418253D01*
X160048223Y-44401777D01*
X160031747Y-44383598D01*
X160017133Y-44363893D01*
X160004520Y-44342849D01*
X159994030Y-44320671D01*
X159985765Y-44297571D01*
X159979804Y-44273773D01*
X159976204Y-44249504D01*
X159975000Y-44225000D01*
X159975000Y-42975000D01*
X159976204Y-42950496D01*
X159979804Y-42926227D01*
X159985765Y-42902429D01*
X159994030Y-42879329D01*
X160004520Y-42857151D01*
X160017133Y-42836107D01*
X160031747Y-42816402D01*
X160048223Y-42798223D01*
X160066402Y-42781747D01*
X160086107Y-42767133D01*
X160107151Y-42754520D01*
X160129329Y-42744030D01*
X160152429Y-42735765D01*
X160176227Y-42729804D01*
X160200496Y-42726204D01*
X160225000Y-42725000D01*
X161150000Y-42725000D01*
X161174504Y-42726204D01*
G37*
D18*
X86200000Y-109400000D03*
X81000000Y-109400000D03*
D19*
X73375000Y-119800000D03*
X73375000Y-118100000D03*
X73375000Y-116400000D03*
X73375000Y-114700000D03*
X73375000Y-113000000D03*
D20*
X61800000Y-113625000D03*
X66650000Y-119175000D03*
X61800000Y-119175000D03*
X66650000Y-113625000D03*
M02*
