G04 #@! TF.GenerationSoftware,KiCad,Pcbnew,(5.1.5-0-10_14)*
G04 #@! TF.CreationDate,2020-07-09T12:53:03+12:00*
G04 #@! TF.ProjectId,PS2BaseMount,50533242-6173-4654-9d6f-756e742e6b69,rev?*
G04 #@! TF.SameCoordinates,Original*
G04 #@! TF.FileFunction,Profile,NP*
%FSLAX46Y46*%
G04 Gerber Fmt 4.6, Leading zero omitted, Abs format (unit mm)*
G04 Created by KiCad (PCBNEW (5.1.5-0-10_14)) date 2020-07-09 12:53:03*
%MOMM*%
%LPD*%
G04 APERTURE LIST*
%ADD10C,0.150000*%
G04 APERTURE END LIST*
D10*
X242000000Y-57250000D02*
X241250000Y-58000000D01*
X132000000Y-30000000D02*
X131000000Y-29000000D01*
X170000000Y-30000000D02*
X171000000Y-29000000D01*
X132000000Y-32000000D02*
X133000000Y-33000000D01*
X169000000Y-33000000D02*
X170000000Y-32000000D01*
X171000000Y-29000000D02*
X241000000Y-29000000D01*
X170000000Y-32000000D02*
X170000000Y-30000000D01*
X133000000Y-33000000D02*
X169000000Y-33000000D01*
X132000000Y-30000000D02*
X132000000Y-32000000D01*
X232000000Y-74000000D02*
X231000000Y-73000000D01*
X242000000Y-74000000D02*
X232000000Y-74000000D01*
X231000000Y-60000000D02*
X231000000Y-73000000D01*
X233000000Y-58000000D02*
X231000000Y-60000000D01*
X241250000Y-58000000D02*
X233000000Y-58000000D01*
X286000000Y-74000000D02*
X287000000Y-75000000D01*
X286000000Y-160000000D02*
X287000000Y-159000000D01*
X241000000Y-175000000D02*
X242000000Y-174000000D01*
X241000000Y-175000000D02*
X60000000Y-175000000D01*
X59000000Y-174000000D02*
X60000000Y-175000000D01*
X14000000Y-159000000D02*
X15000000Y-160000000D01*
X14000000Y-75000000D02*
X15000000Y-74000000D01*
X57000000Y-30000000D02*
X58000000Y-29000000D01*
X241000000Y-29000000D02*
X242000000Y-30000000D01*
X242000000Y-170000000D02*
X252000000Y-160000000D01*
X59000000Y-170000000D02*
X49000000Y-160000000D01*
X242000000Y-170000000D02*
X242000000Y-174000000D01*
X286000000Y-160000000D02*
X252000000Y-160000000D01*
X287000000Y-75000000D02*
X287000000Y-159000000D01*
X242000000Y-74000000D02*
X286000000Y-74000000D01*
X242000000Y-30000000D02*
X242000000Y-57250000D01*
X58000000Y-29000000D02*
X131000000Y-29000000D01*
X57000000Y-74000000D02*
X57000000Y-30000000D01*
X15000000Y-74000000D02*
X57000000Y-74000000D01*
X14000000Y-159000000D02*
X14000000Y-75000000D01*
X49000000Y-160000000D02*
X15000000Y-160000000D01*
X59000000Y-174000000D02*
X59000000Y-170000000D01*
M02*
